<?xml version="1.0" standalone="no"?>
<svg version="1.1" id="Layer_1" xmlns="http://www.w3.org/2000/svg" xmlns:xlink="http://www.w3.org/1999/xlink" x="0px" y="0px" width="595.279px" height="595.281px" viewBox="0 0 595.279 595.281" enable-background="new 0 0 595.279 595.281" xml:space="preserve">
<path id="color_x5F_2" fill="#fbc02d" d="M240.368,279.855c-4.87-2.383-10.041-4.51-15.473-5.003
	c2.971-3.523,6.04-7.014,7.89-11.273c27.733-0.359,41.517-25.565,51.155-48.364c1.857,1.048,3.94,1.738,6.008,1.303
	c0.212,11.812-3.104,25.026-9.369,35.506c-2.799,3.781-6.009,7.773-8.678,10.95C263.433,271.281,251.389,278.548,240.368,279.855z
	 M285.168,211.387c0.184,0.091,0.271,0.239,0.181,0.457c-0.042,0.103-0.086,0.206-0.128,0.309c0.069,0.616,0.214,1.087,0.479,1.238
	c1.812,1.024,4.05,2.461,5.116-0.024c1.511-3.519,1.309-7.538,3.112-10.966c-1.295-1.071-2.736-1.984-4.229-2.797
	c-0.434-0.237-0.499-0.542-0.354-0.834c-0.044,0.004-0.088,0.009-0.13,0.013c-0.022,0.021-0.041,0.043-0.064,0.063
	c0.026,0.675-0.972,1.51-1.917,1.338c-0.704-0.127-1.329-0.082-1.89,0.086c0.002,0.025,0.01,0.046,0.01,0.072
	c0,2.283,0,4.565,0,6.847C285.355,207.809,285.121,209.812,285.168,211.387z M228.132,266.836c0.693-1.082,1.314-2.212,1.844-3.403
	L228.132,266.836z M270.779,312.193c-0.015,0.027-0.029,0.053-0.048,0.086c0.006,0.006,0.01,0.012,0.017,0.018L270.779,312.193z
	 M299.152,319.236c-1.607,1.211-3.439,2.055-5.377,2.459c1.424,0.957,2.72,2.168,2.169,3.655c-0.521,1.408-1.858,2.548-2.911,3.554
	c-2.432,2.325-4.916,4.594-7.353,6.913c-0.9,0.854-3.718,0.429-2.414-0.813c1.665-1.584,3.351-3.146,5.026-4.719
	c-0.012-0.006-0.024-0.009-0.035-0.015c-6.979-4.112-13.896-8.788-18.918-15.222c-0.902,1.955-1.732,4.156-0.974,4.24
	c0.742,0.08-1.708,1.181-2.385,1.104c-2.983-0.329,3.351-9.799,4.104-10.653c2.674-3.037,7.082-5.111,9.975-2.346l2.554-3.617
	c-0.016-0.015-0.036-0.025-0.051-0.041c-7.986-8.739-16.295,4.174-21.111,10.129c-0.757,0.935-3.53,0.676-2.393-0.73
	c0.041-0.051,0.085-0.105,0.127-0.157c-0.77,0.188-1.972,0.519-3.4,1.031c-3.51,1.677-6.754,4.78-9.305,7.169
	c-3.137,2.938-6.137,6.076-8.884,9.406c-2.799,3.639-5.646,7.617-7.557,11.459c-0.904,2.152-1.468,4.438-1.472,6.961
	c-0.012,8.054,4.936,13.426,11.416,17.453c0.558,0.062,0.979,0.312,0.894,0.617c0.73,0.869-1.461,2.098-2.494,1.479
	c-0.067-0.041-0.136-0.086-0.203-0.127c-1.904,0.814-3.748,1.74-5.59,2.658l-0.839,0.69l-3.222,1.253
	c-1.229,0.547-2.479,1.045-3.765,1.465l-5.015,1.949c0,0-0.072-0.05-0.18-0.121c-0.184,0.012-0.348-0.003-0.47-0.06
	c-1.723-0.79-6.423-3.07-8.909-2.197c-0.661,0.421-1.141,1.054-1.494,1.767c-0.047,0.224-0.09,0.453-0.1,0.724
	c-0.104,3.094,1.734,6.135,3.788,8.313c1.61,1.709,9.184,8.342,11.489,5.764c2.441-2.727,1.264-6.885,0.423-10.086
	c-0.15,0.054-0.301,0.103-0.451,0.156c-1.092,0.392-2.942,0.065-0.995-0.634c8.596-3.084,17.493-5.558,26.682-5.757
	c3.792-0.083,7.783,0.648,11.539,0.305c2.056-0.188,4.072-0.811,6.005-1.658c3.845-2.578,9.8-6.531,14.276-9.502
	c3.887-3.324,7.432-7.07,10.272-11.213c0.551-0.802,1.117-1.666,1.663-2.57c0.518-0.924,1.021-1.848,1.493-2.748
	c1.762-3.678,2.648-7.738,0.555-11.325c-1.631,1.118-3.258,2.192-4.735,3.288c-1.079,0.799-3.472-0.014-1.888-1.188
	c3.849-2.852,8.335-5.428,11.564-9.004C303.804,324.796,302.752,321.794,299.152,319.236z M258.75,375.857
	c2.037,0.404,3.354,0.525,4.672-0.415c0.103-0.073,0.256-0.18,0.43-0.3c-1.694,0.445-3.414,0.686-5.132,0.646
	C258.731,375.81,258.739,375.833,258.75,375.857z"></path>
<path id="color_x5F_1" d="M273.678,149.413c0.348-0.687,1.192-0.882,1.891-0.871c1.445,0.022,2.814,0.384,4.177,0.838
	c0.632,0.21,0.807,0.841,0.359,1.339c-0.479,0.534-1.367,0.776-2.049,0.549c-1.165-0.388-2.275-0.68-3.511-0.699
	C273.943,150.56,273.369,150.02,273.678,149.413z M280.217,170.916c-0.648,0.065-1.429,0.399-1.621,1.08
	c-0.26,0.913-0.951,1.583-1.838,1.611c-0.585,0.018-1.509,0.426-1.621,1.08c-0.123,0.715,0.822,0.803,1.297,0.789
	c2.262-0.07,4.452-1.563,5.08-3.77C281.707,171.02,280.635,170.875,280.217,170.916z M202.621,392.962
	c-0.672,0.025-1.441,0.248-1.928,0.734c-1.539,1.536-3.076,3.074-4.613,4.613c-0.491,0.49,0.422,0.645,0.728,0.635
	c0.672-0.025,1.442-0.25,1.928-0.734c1.538-1.539,3.075-3.077,4.613-4.613C203.841,393.106,202.927,392.953,202.621,392.962z
	 M189.574,413.451c0.909-1.871,1.399-3.896,2.308-5.77c0.741-1.529-2.192-1.619-2.787-0.395c-0.908,1.871-1.397,3.896-2.308,5.768
	C186.045,414.583,188.979,414.675,189.574,413.451z M183.838,422.611c-0.037,1.936-0.539,3.828-0.577,5.766
	c-0.028,1.428,2.899,0.93,2.924-0.266c0.038-1.938,0.54-3.828,0.578-5.768C186.79,420.916,183.861,421.414,183.838,422.611z
	 M183.872,440.201c0-1.152,0-2.307,0-3.459c0-1.352-2.913-0.789-2.913,0.305c0,1.152,0,2.307,0,3.459
	C180.958,441.855,183.872,441.292,183.872,440.201z M183.31,455.244c0-1.537,0-3.074,0-4.611c0-1.563-2.941-1.156-2.941,0.199
	c0,1.537,0,3.074,0,4.611C180.368,457.005,183.31,456.597,183.31,455.244z M182.026,466.611c-0.441,0.053-1.639,0.385-1.639,1.012
	c0,0.576,0,1.152,0,1.73c0,0.656,0.738,0.73,1.264,0.67c0.441-0.055,1.639-0.387,1.639-1.014c0-0.574,0-1.15,0-1.729
	C183.29,466.623,182.552,466.548,182.026,466.611z M207.739,397.312c-0.647-0.051-1.576,0.217-1.897,0.844
	c-0.522,1.018-1.209,1.943-1.244,3.131c-0.041,1.383,2.884,0.861,2.918-0.285c0.029-1.02,0.613-1.76,1.063-2.637
	C208.9,397.74,208.305,397.355,207.739,397.312z M203.967,410.208c-0.615,0.086-1.369,0.34-1.659,0.938
	c-0.455,0.936-0.7,1.945-1.154,2.883c-0.284,0.588,1.003,0.568,1.229,0.537c0.613-0.086,1.369-0.342,1.658-0.938
	c0.453-0.936,0.698-1.947,1.154-2.883C205.481,410.16,204.191,410.177,203.967,410.208z M202.34,428.15
	c0.037-1.938,0.54-3.828,0.578-5.768c0.03-1.584-2.918-1.205-2.945,0.189c-0.038,1.936-0.54,3.828-0.578,5.766
	C199.362,429.921,202.312,429.541,202.34,428.15z M201.163,448.037c0-1.154,0-2.307,0-3.461c0-0.445-2.897-0.037-2.897,0.777
	c0,1.152,0,2.307,0,3.461C198.265,449.257,201.163,448.849,201.163,448.037z M212.813,404.962c0.68-0.066,1.391-0.404,1.621-1.082
	c0.519-1.525,1.116-2.979,1.151-4.611c0.03-1.379-2.893-0.85-2.918,0.287c-0.035,1.637-0.633,3.088-1.151,4.613
	C211.286,404.849,212.425,405.001,212.813,404.962z M210.941,412.246c0,1.154,0,2.307,0,3.459c0,1.371,2.916,0.822,2.916-0.295
	c0-1.152,0-2.305,0-3.459C213.857,410.58,210.941,411.128,210.941,412.246z M209.785,424.339c0,1.73,0,3.459,0,5.189
	c0,1.432,2.924,0.922,2.924-0.268c0-1.729,0-3.459,0-5.188C212.709,422.644,209.785,423.154,209.785,424.339z M208.057,439.914
	c0,0.963,0,1.924,0,2.885c0,0.695,0.717,0.867,1.302,0.813c0.506-0.049,1.618-0.416,1.618-1.092c0-0.963,0-1.924,0-2.887
	c0-0.693-0.717-0.867-1.302-0.811C209.17,438.871,208.057,439.238,208.057,439.914z M208.172,455.207
	c-0.536,0.143-1.259,0.463-1.259,1.102c0,0.77,0,1.537,0,2.309c0,0.604,1.362,0.398,1.642,0.324
	c0.535-0.145,1.258-0.463,1.258-1.104c0-0.768,0-1.537,0-2.307C209.812,454.925,208.449,455.132,208.172,455.207z M200.448,434.21
	c-0.504,0.049-1.617,0.416-1.618,1.09c0,0.422,0.005,0.844-0.052,1.262c-0.007,0.049-0.111,0.398-0.056,0.266
	c-0.028,0.063-0.062,0.123-0.099,0.184c0.111-0.195-0.077,0.084-0.102,0.111c-0.447,0.469-0.292,1.059,0.332,1.24
	c0.68,0.197,1.561-0.035,2.049-0.549c0.772-0.813,0.845-1.729,0.846-2.793C201.75,434.326,201.032,434.156,200.448,434.21z
	 M198.105,458.289c-0.587,0.039-1.591,0.465-1.591,1.193c0,0.383,0,0.768,0,1.15c0,0.734,0.694,1.037,1.351,0.99
	c0.587-0.039,1.591-0.465,1.591-1.193c0-0.383,0-0.768,0-1.15C199.456,458.544,198.762,458.242,198.105,458.289z M388.134,531.705
	c-16.521,3.508-33.282,4.764-50.108,5.955c-22.301,1.58-44.652,2.27-67.003,1.51c-27.091-0.92-54.094-3.57-80.971-7.02
	c-13.755-1.768-38.321-6.227-38.616-24.641c-0.198-12.379,10.113-22.84,21.081-27.076c8.198-3.166,17.001-5.469,25.81-7.359
	c-0.382-0.141-0.657-0.432-0.657-0.91c0-1.152,0-2.307,0-3.461c0-1.357,2.94-1.764,2.94-0.199c0,1.154,0,2.309,0,3.461
	c0,0.277-0.125,0.51-0.317,0.699c4.249-0.885,8.489-1.691,12.653-2.447c14.854-2.697,29.833-4.104,44.935-3.563
	c-1.032-30.053-1.944-60.109-1.965-90.169c0-0.321,0.224-0.591,0.543-0.788c-10.234-0.425-19.591,0.799-29.304,3.895
	c1.262,4.912,2.16,10.5-3.698,12.479c-5.041,1.703-11.688-3.473-14.627-7.189c-2.114-2.672-5.044-7.86-1.526-10.65
	c3.703-2.938,9.146-1.275,13.188,0.454c0.259-0.349,0.782-0.707,1.349-0.813c5.319-1.008,9.957-4.151,14.886-6.371
	c-5.971-3.955-11.104-9.564-11.093-17.174c0.009-5.873,2.054-10.498,5.399-15.205c2.646-3.724,5.567-7.311,8.731-10.654
	c-26.319,0.928-11.201-31.297-10.938-46.324c0.004-0.247,0.278-0.454,0.656-0.61c-2.386-0.765-4.824-1.298-7.296-1.375
	c-1.117-0.035-0.87-0.506-0.279-0.896c-0.071-0.204-0.017-0.461,0.248-0.777c2.088-2.488,4.238-4.932,5.979-7.646
	c0.694-1.082,1.314-2.212,1.844-3.403c0.105-0.238,0.223-0.467,0.319-0.71c0.295-0.74,1.656-1.037,2.379-0.724
	c0.163-0.049,0.321-0.078,0.465-0.077c0.75,0.003,1.483-0.024,2.211-0.063c4.817-14.386,9.92-28.671,15.384-42.822
	c-10.701,2.446-22.403,2.426-33.248,1.575c-9.932-0.779-25.281-2.063-31.788-10.97c-6.834-9.356,0.235-20.128,8.313-25.658
	c5.249-3.593,10.977-6.349,16.701-9.087c5.145-2.459,10.972-4.778,15.084-8.854c0.127-0.125,0.292-0.222,0.476-0.295
	c0.37-5.492,4.087-11.238,8.843-11.348c0.254-0.318,0.682-0.555,1.241-0.545c0.906,0.017,1.81,0.059,2.709,0.12
	c1.937-1.466,4.88-2.483,7.361-2.174c-0.081-0.479,0.238-1.056,1.076-1.308c4.392-1.321,8.58,0.653,9.844,4.836
	c0.106-0.063,0.217-0.114,0.324-0.17c-0.124-0.048-0.204-0.118-0.205-0.22c-0.045-4.229-0.009-8.456,0-12.685
	c0.001-0.448,0.658-0.787,1.346-0.952c-4.743,0.042-9.235-1.091-12.371-5.514c-3.909-5.514-5.299-13.512-0.018-18.773
	c6.996-6.97,15.942-2.092,24.045,1.784c4.511,0.051,9.021,0.312,13.531,0.432c-0.438-1.787-1.037-3.496-1.777-5.134
	c-0.696,0.314-1.626,0.379-1.968-0.084c-7.972-10.806-22.956-10.17-34.554-14.112c-4.939-1.678-10.038-4.171-12.951-8.713
	c-3.683-5.74-4.039-12.505-3.461-19.119c-0.314-0.258-0.634-0.511-0.942-0.774c-0.257-0.219-0.036-0.513,0.376-0.762
	c-1.354-0.89,0.567-2.597,1.799-1.964c12.363,6.354,26.607,7.863,38.938,14.251c12.72,6.589,18.258,17.41,17.066,31.664
	c-0.026,0.33-0.214,0.599-0.478,0.802c0.293,0.864,0.555,1.745,0.771,2.649c1.912-4.571,3.571-9.27,5.231-13.968
	c-0.573,0.126-1.162,0.06-1.415-0.319c-7.929-11.864-6.869-24.624,3.896-34.195c9.632-8.561,23.447-12.333,36.204-12.357
	c1.189-0.427,2.395-0.835,3.626-1.207c1.788-0.539,2.321,1.518,0.552,2.052c-0.613,0.185-1.209,0.389-1.811,0.588
	c-0.38,0.287-0.869,0.5-1.302,0.487c-0.039-0.001-0.079,0-0.118-0.001c-13.307,4.775-23.271,13.387-29.334,26.572
	c-3.124,6.791-5.581,13.844-8.138,20.86c0.145-0.253,0.464-0.503,1.026-0.652c21.564-5.701,36.49-24.213,37.951-46.387
	c0.063-0.949,2.973-1.536,2.896-0.373c-1.543,23.438-17.964,42.226-40.468,48.174c-1.01,0.267-1.543-0.103-1.483-0.546
	c-1.549,4.246-3.15,8.472-4.952,12.62c0.271-0.002,0.544,0,0.814-0.005c3.688-0.066,7.363-0.434,11.051-0.206
	c5.418,0.335,10.01,2.559,10.044,8.388c6.763,0.909,8.194,9.2,8.343,14.938c0.267,10.397-4.393,19.154-10.111,27.557
	c-0.354,0.52-1.173,0.697-1.807,0.572c0.084,0.091,0.132,0.208,0.122,0.359c-0.072,1.102-0.6,2.847-0.261,3.94
	c0.408,1.329,0.995,2.609,1.418,3.939c0.072,0.229-0.054,0.451-0.288,0.641c1.777,1.858,2.596,4.074,2.71,6.449
	c0.029,0.001,0.063-0.001,0.09,0.003c12.365,1.719,29.171,4.206,37.71,14.445c9.937,11.915,7.1,29.884,8.979,44.193
	c0.977,7.424,3.116,15.34,1.905,22.86c-1.249,7.752-5.713,13.825-11.72,18.724c-0.163,0.133-0.332,0.257-0.496,0.389
	c1.139,8.483,6.587,15.396,9.734,23.181c2.925,7.238,4.849,15.264,10.27,21.135c0.563,0.608-0.529,1.303-1.521,1.436
	c-5.57,2.133-11.621,3.17-17.529,3.755c-6.037,0.599-12.625,1.3-18.587-0.131c-0.153-0.037-0.3-0.083-0.449-0.123
	c-0.204,19.532-2.517,38.92-4.033,58.376c-1.047,13.434-1.457,26.895-2.018,40.354c-0.456,10.963-0.712,22.174-1.343,33.373
	c9.063-1.271,18.398-0.57,27.466,0.268c12.063,1.115,24.085,3.002,35.945,5.459c11.188,2.316,22.396,5.004,33.155,8.885
	c7.498,2.703,15.766,5.969,21.239,12.041C459.405,515.978,399.468,529.3,388.134,531.705z M292.851,101.706
	c2.631-7.399,5.382-14.738,9.294-21.497c5.688-9.826,13.711-16.578,23.519-21.053c-10.707,0.771-21.913,4.424-29.616,11.75
	C286.683,79.81,286.143,91.133,292.851,101.706z M326.7,334.68c-9.591-4.46-12.061-16.547-16.576-25.404
	c-0.038-0.077-0.041-0.155-0.023-0.233c-1.539,0.486-3.093,0.877-4.854,1.668c-0.197,0.09-0.401,0.139-0.604,0.162
	c-0.65,2.559-1.889,4.789-3.517,6.568c3.771,2.52,5.979,5.809,3.033,10.217c-1.717,2.567-4.217,4.662-6.858,6.568
	c0.334-0.021,0.608,0.033,0.729,0.221c3.771,5.809-0.562,13.354-4.147,18.123c-2.183,2.901-4.623,5.645-7.252,8.194
	c0.558-0.063,1.022-0.007,1.022,0.205c-0.04,48.435-1.146,96.866-1.154,145.304c0,0.873-2.897,1.309-2.897,0.775
	c0.01-48.176,1.102-96.35,1.15-144.524c-2.84,2.562-5.877,4.9-9.082,6.935c-3.494,2.216-7.576,4.568-11.818,5.685
	c-1.694,0.444-3.414,0.687-5.132,0.647c0.013,0.021,0.021,0.045,0.03,0.066c0.051,0.104,0.085,0.217,0.085,0.354
	c0.025,37.293,1.418,74.586,2.718,111.859c1.353-0.016,0.875,0.893,0.051,1.443c0.229,6.658,0.459,13.314,0.675,19.971
	c3.96,0.602,7.841,1.592,11.588,3.141c9.604-3.385,17.563-8.4,28.277-7.678c4.314,0.291,8.239,1.805,12.063,3.65
	c5.472-24.359,5.463-50.416,6.473-75.199c0.558-13.672,0.983-27.348,2.121-40.986C324.401,373.186,326.594,353.996,326.7,334.68z
	 M270.779,312.193c-0.015,0.027-0.029,0.053-0.048,0.086c0.006,0.006,0.01,0.012,0.017,0.018c0.03,0.025,0.063,0.05,0.084,0.082
	c4.872,6.979,11.989,11.951,19.226,16.25c0.046-0.043,0.092-0.086,0.138-0.129c0.922-0.881,2.249-1.877,2.818-3.055
	c0.643-1.328-3.076-3.039-3.896-3.627c-0.014-0.01-0.021-0.021-0.033-0.029c-2.148-0.362-4.305-1.289-6.316-2.887
	c-2.658-2.109-3.503-5.646-2.992-8.929c-0.61,0.155-1.205,0.179-1.364-0.121c-0.731-1.384-2.16-3.489-3.764-2.219
	c-1.538,1.219-2.775,2.776-3.801,4.442C270.833,312.098,270.806,312.146,270.779,312.193z M260.846,310.925
	c1.725-2.124,3.697-4.469,5.839-6.536c-5.104-1.2-10.226-2.907-14.743-5.618c-0.541,4.747-0.472,9.527,0.986,14.439
	c2.139-1.289,4.427-2.26,6.874-2.533C260.313,310.621,260.65,310.73,260.846,310.925z M255.86,276.644
	c-0.721,6.662-2.574,13.1-3.575,19.565c0.037,0.016,0.075,0.031,0.105,0.053c4.691,3.354,10.257,5.343,15.836,6.714
	c5.014-4.323,10.785-6.611,16.373-1.109c1.864-1.555,4.097-2.605,6.657-3.107c-0.757-1.026-1.435-2.103-1.968-3.245
	c-0.092-0.196,0.027-0.402,0.261-0.586c-0.153-0.069-0.199-0.187-0.054-0.371c3.651-4.596,8.316-8.057,13.002-11.502
	c-0.009-0.02-0.021-0.036-0.026-0.057c-4.127-15.038-5.049-31.01-4.082-46.531c0.704-11.311,2.282-22.659,5.338-33.59
	c-1.309,1.526-2.643,2.849-3.873,3.861c-0.502,0.413-1.891,0.71-2.29-0.032c-0.449-0.833-0.98-1.592-1.575-2.292
	c-0.929,3.387-1.028,8.033-3.211,10.5c0.036,0.052,0.063,0.109,0.064,0.178c0.454,15.7-5.055,33.851-15.962,45.439
	c-5.638,5.988-13.063,11.825-21.097,15.84C255.843,276.443,255.872,276.532,255.86,276.644z M281.194,188.159
	c-0.865,2.866-0.476,6.55-0.347,9.283c0.053,1.109,0.127,2.217,0.206,3.325c1.377-1.646,3.244-2.731,5.535-2.787
	C286.043,194.371,283.278,191.292,281.194,188.159z M306.834,170.286c0.046,0.002,0.09,0.005,0.132,0.01
	c-0.021-0.016-0.043-0.032-0.063-0.05C306.881,170.26,306.856,170.273,306.834,170.286z M291.306,197.776
	c0.229,0.001,0.446,0.04,0.626,0.138c2.849,1.553,5.578,3.498,7.443,6.16c2.71-2.648,5.797-6.75,7.549-10.988
	c0.132-0.347,0.266-0.692,0.399-1.037c1.431-3.99,1.55-7.995-1.054-10.926C302.404,187.394,295.147,191.487,291.306,197.776z
	 M278.273,203.083c-10.078,15.52-18.62,33.167-22.632,51.223c12.807-9.728,20.6-27.056,26.637-41.702
	c-0.053-1.058,0.161-2.24,0.161-3.227c0-2.092,0-4.184,0-6.276c-0.438,0.905-0.736,1.906-0.919,2.846
	c-0.198,1.021-2.759,1.841-2.916,0.503C278.474,205.331,278.373,204.207,278.273,203.083z M285.348,211.844
	c-0.042,0.103-0.086,0.206-0.128,0.309c0.069,0.616,0.214,1.087,0.479,1.238c1.812,1.024,4.05,2.461,5.116-0.024
	c1.511-3.519,1.309-7.538,3.112-10.966c-1.295-1.071-2.736-1.984-4.229-2.797c-0.434-0.237-0.499-0.542-0.354-0.834
	c-0.044,0.004-0.089,0.009-0.13,0.013c-0.022,0.021-0.041,0.043-0.064,0.063c0.026,0.675-0.972,1.51-1.917,1.338
	c-0.704-0.127-1.329-0.082-1.89,0.086c0.002,0.025,0.01,0.046,0.01,0.072c0,2.283,0,4.565,0,6.847c0,0.622-0.234,2.625-0.188,4.199
	C285.351,211.477,285.438,211.625,285.348,211.844z M284.596,316.863c1.9,1.91,3.949,2.881,5.955,3.119
	c0.155,0.02,0.313,0.034,0.468,0.044c2.303,0.146,4.524-0.671,6.374-2.147c-0.072-0.444,0.543-0.922,1.238-1.147
	c1.701-1.817,2.936-4.253,3.384-6.985c-2.396-1.844-4.583-4.023-6.626-6.215c-1.035-1.111-2.104-2.255-3.098-3.457
	c-0.263,0.264-0.625,0.481-1.051,0.559C284.749,301.787,279.184,311.421,284.596,316.863z M344.989,288.544
	c-5.8,4.283-12.069,7.856-18.36,11.39c-4.112,2.312-8.262,4.59-12.222,7.157c-0.662,0.429-1.295,0.757-1.919,1.042
	c0.241,0.058,0.436,0.171,0.534,0.364c4.201,8.242,6.523,20.217,15.517,24.597c0.414,0.014,0.787,0.146,0.973,0.433
	c0.418,0.17,0.844,0.328,1.289,0.465c5.678,1.746,12.437,1.088,18.25,0.436c5.188-0.583,10.457-1.35,15.391-3.122
	c-5.101-5.935-7-13.763-9.918-20.876C351.506,303.068,346.471,296.434,344.989,288.544z M311.175,187.673
	c-0.084,0.936-0.259,1.886-0.512,2.841c-0.001,0.055-0.013,0.114-0.038,0.179c-0.013,0.028-0.021,0.057-0.033,0.085
	c-0.364,1.303-0.867,2.611-1.476,3.896c-9.693,26.811-11.274,59.085-4.028,86.465c1.653-1.235,3.289-2.494,4.856-3.828
	c5.86-4.985,11.269-10.125,17.77-14.117c-2.438-14.037-4.808-28.13-4.921-42.414c-0.012-1.291,2.922-1.741,2.934-0.225
	c0.111,13.827,2.389,27.472,4.747,41.061c0.147-0.079,0.286-0.167,0.436-0.245c0.728-0.378,3.404-0.42,1.693,0.472
	c-0.71,0.37-1.384,0.776-2.063,1.178c-0.233,0.493-0.879,0.833-1.496,0.911c-6.445,4.125-11.704,9.505-17.763,14.274
	c-1.947,1.534-3.969,3.007-5.984,4.491c-0.154,0.266-0.479,0.49-0.863,0.637c-4.462,3.299-8.846,6.712-12.297,11.056
	c-0.035,0.044-0.088,0.086-0.147,0.127c0.086,0.057,0.159,0.126,0.202,0.22c1.455,3.12,4.075,5.827,6.445,8.272
	c2.057,2.119,4.194,4.25,6.578,6.018c3.385-1.423,6.741-2.47,10.001-4.425c3.633-2.181,7.329-4.246,11.02-6.327
	c6.309-3.556,12.848-7.131,18.504-11.724c0.097-0.41,0.553-0.737,1.077-0.92c0.396-0.337,0.8-0.664,1.186-1.013
	c6.544-5.927,10.662-13.039,10.256-22.058c-0.319-7.083-2.001-14.002-2.467-21.072c-0.824-12.53,0.623-31.308-9.232-40.877
	C336.653,191.968,323.152,189.387,311.175,187.673z M235.356,73.537c15.467,11.034,38.988,19.664,48.329,36.44
	c-0.409-12.565-7.1-21.593-19.419-26.737C254.885,79.322,244.805,77.249,235.356,73.537z M279.424,109.121
	c-4.456-6.591-11.111-11.882-17.789-16.315c-9.656-6.411-20.313-11.581-29.601-18.569c-0.295,6.48,0.565,13.435,5.319,18.149
	c4.225,4.19,9.976,6.021,15.642,7.354C261.924,101.842,272.265,103.068,279.424,109.121z M260.362,154.164
	c0.001,0.09-0.031,0.174-0.079,0.255c0.067-0.004,0.133-0.017,0.2-0.018c0.254-0.318,0.682-0.555,1.242-0.545
	c6.909,0.125,13.624,1.704,20.487,2.259c0.688-0.476,1.809-0.589,2.237,0.093c1.583,2.518,2.054,5.31,1.687,8.241
	c-0.111,0.879-1.369,1.339-2.207,1.152c-4.56,2.738-8.997,5.67-13.811,7.958c-0.42,0.2-1.665,0.337-2.083,0.203
	c-1.826,1.31-4.173,2.007-6.521,2.058c4.783,10.422,17.781,10.854,26.65,4.823c0.52-0.353,3.429-0.722,2.224,0.098
	c-2.377,1.616-5.148,2.926-8.063,3.812c0.141,0.089,0.253,0.208,0.327,0.363c1.887,3.948,5.926,7.501,6.771,11.933
	c4.581-6.298,12.349-10.517,15.341-17.815c0.021-0.051,0.057-0.099,0.1-0.145c0.146-0.209,0.371-0.397,0.643-0.539
	c-0.217-0.642-0.44-1.281-0.699-1.907c-0.133-0.322-0.339-0.679-0.367-1.033c-0.109-1.343,0.219-2.795,0.307-4.132
	c0.008-0.105,0.057-0.206,0.131-0.3c-1.823,0.247-3.642-0.542-5.039-2.067c-0.563-0.614,2.162-1.643,2.717-1.037
	c0.646,0.707,1.575,1.699,2.604,1.835c0.023-0.021,0.042-0.039,0.072-0.067c0.309-0.295,0.604-0.619,0.824-0.987
	c1.15-1.919,1.658-4.277,1.675-6.5c0.015-1.983-0.192-4.552-1.605-6.1c-1.896-2.075-3.917-0.526-5.724,0.914
	c-0.242,0.194-0.914,0.358-1.508,0.407c-0.594,1.548-1.273,3.053-2.119,4.493c-0.105,0.181-0.348,0.337-0.643,0.458l-0.045,0.117
	c0,0-0.033-0.035-0.068-0.072c-0.857,0.309-2.066,0.317-2.021-0.252c-0.545,0.091-1.038,0.044-1.17-0.257
	c-2.972-6.855-5.791-13.904-7.245-21.258c-2.977-0.057-16.78,4.748-17.69-0.266c-2.503,0.377-5.138,0.792-7.729,0.926
	c0.123,0.047,0.202,0.117,0.202,0.217c-0.006,2.312-0.016,4.624-0.02,6.935c0.39-0.219,0.792-0.416,1.188-0.613
	c0.566-0.284,1.393-0.522,2.027-0.36c0.651,0.167-0.099,0.669-0.345,0.792c-0.487,0.244-1.044,0.467-1.448,0.843
	c-0.365,0.339-0.898,0.537-1.417,0.634C260.349,151.195,260.348,152.68,260.362,154.164z M229.857,193.013
	c4.907-1.548,9.956-2.244,15.051-3.103c7.313-1.232,14.083-4.022,21.26-5.704c-3.429-1.547-6.275-4.279-7.937-8.509
	c-0.028-0.072-0.006-0.15,0.054-0.23c-1.101-0.271-2.14-0.697-3.049-1.287c-1.645-1.067-2.67-2.632-3.197-4.417
	c-0.492,0.297-0.989,0.587-1.486,0.877c-0.049,0.085-0.109,0.175-0.201,0.274c-4.318,4.632-9.269,8.567-15.298,10.561
	c1.064,0.275,2.148,0.352,3.219,0.142c1.147-0.225,1.786,0.504,1.623,1.154c0.591,0.287,0.744,0.855-0.379,1.276
	C235.333,185.614,232.399,189.063,229.857,193.013z M245.213,170.87c-0.314,0.62-0.713,1.179-1.171,1.684
	c1.234-0.605,2.447-1.249,3.642-1.93c0.102-0.108,0.207-0.212,0.309-0.321c0.21-0.225,0.591-0.374,0.998-0.446
	c0.911-0.539,1.816-1.086,2.717-1.641c-0.143-1.073-0.125-2.194,0.02-3.313c-0.141-2.193-0.643-4.341-1.182-6.502
	c-0.053-0.213,0.318-0.451,0.813-0.637c-3.424-0.462-6.831-1.051-10.265-1.416C245.053,159.738,247.681,166.022,245.213,170.87z
	 M278.912,158.033c0.699,2.83,1.305,5.644,1.068,8.573c0.933-0.573,1.868-1.144,2.813-1.7c0.079-0.047,0.226-0.096,0.4-0.142
	c0-0.04-0.005-0.076,0-0.119c0.282-2.24,0.055-4.379-0.951-6.357c-0.125,0.022-0.252,0.036-0.379,0.027
	C280.877,158.244,279.894,158.144,278.912,158.033z M275.913,158.4c-0.053-0.213,0.318-0.451,0.813-0.637
	c-3.424-0.462-6.831-1.051-10.264-1.415c3.959,3.391,6.589,9.674,4.12,14.522c-0.397,0.783-0.936,1.464-1.555,2.063
	c3.181-1.557,6.2-3.398,9.211-5.256c-0.628,0.087-1.184,0.069-1.172-0.051C277.372,164.467,276.675,161.447,275.913,158.4z
	 M258.413,156.884c-0.038,0.539-0.696,1.208-1.448,1.385c-1.174,1.545-2.021,3.832-2.318,6.165c0.039,0.798,0.028,1.602-0.051,2.416
	c-0.005,0.048-0.021,0.095-0.045,0.139c0.147,2.471,1.043,4.685,2.977,5.73c4.876,2.637,11.075,0.885,10.993-5.283
	c-0.056-4.201-2.158-8.396-5.733-10.668c-0.447,0.118-0.896,0.136-1.174-0.016C260.478,156.132,259.388,156.263,258.413,156.884z
	 M254.374,158.121c-0.276-0.028-0.555-0.057-0.831-0.088c0.08,0.325,0.159,0.651,0.235,0.976
	C253.967,158.702,254.168,158.407,254.374,158.121z M248.325,152.388c1.074,0.562,1.913,1.53,2.331,3.016
	c1.233,0.172,2.469,0.334,3.708,0.474C253.456,153.32,251.278,151.649,248.325,152.388z M242.549,154.306
	c1.529,0.175,3.058,0.378,4.584,0.597C246.066,153.561,244.222,153.598,242.549,154.306z M232.155,172.719
	c4.876,2.637,11.077,0.885,10.995-5.283c-0.057-4.202-2.159-8.396-5.735-10.668c-0.447,0.118-0.896,0.136-1.174-0.016
	C230.531,153.629,225.877,169.323,232.155,172.719z M224.911,169.712c0.515,3.828,3.802,8.619,7.798,10.82
	c0.164-0.109,0.359-0.207,0.613-0.277c4.182-1.153,7.729-3.466,10.904-6.273c-0.667,0.218-1.396,0.098-1.598-0.192
	c-3.584,2.545-9.171,2.725-12.765,0.392c-2.011-1.306-3.098-3.353-3.474-5.642C225.909,168.944,225.416,169.334,224.911,169.712z
	 M238.188,261.61c5.41-0.698,10.193-2.554,14.463-5.23c-0.13-0.065-0.2-0.163-0.171-0.302c4.113-19.616,13.666-38.8,24.795-55.353
	c0.136-0.202,0.437-0.358,0.792-0.473c-0.054-0.859-0.119-1.719-0.152-2.579c-0.135-3.514-0.672-8.168,1.143-11.372
	c0.141-0.25,0.406-0.439,0.721-0.571c-0.007-0.013-0.014-0.025-0.02-0.037c-0.078-0.165-0.075-0.323-0.021-0.471
	c-3.883,0.814-7.88,0.833-11.438-0.225c-0.104,0.323-0.442,0.636-1.086,0.78c-6.404,1.44-12.443,4.14-18.912,5.333
	c-6.547,1.208-13.27,1.768-19.534,4.143c-0.111,0.042-0.226,0.07-0.338,0.09c-2.563,4.332-4.873,8.928-7.934,12.161
	c-0.721,0.762-3.551,0.689-2.352-0.578c6.473-6.839,9.432-18.396,17.974-23.161c-6.29-0.407-12.546-6.115-13.921-12.191
	c-6.426,4.021-14.053,6.587-20.5,10.182c-8.224,4.585-21.697,15.181-13.766,26.039c6.566,8.992,21.548,10.181,31.682,10.797
	c10.381,0.63,21.555,0.718,31.729-1.794c0.1-0.025,0.181-0.017,0.271-0.027c1.416-3.64,2.85-7.273,4.314-10.894
	c0.364-0.899,3.23-1.242,2.89-0.397C251.336,223.963,244.515,242.7,238.188,261.61z M224.896,274.852
	c5.432,0.493,10.603,2.62,15.473,5.003c11.021-1.307,23.064-8.574,31.533-16.881c1.717-1.685,3.299-3.408,4.682-5.137
	c1.446-1.808,2.771-3.764,3.996-5.813c6.266-10.48,9.581-23.694,9.369-35.506c-2.067,0.435-4.149-0.254-6.008-1.303
	c-9.64,22.799-23.422,48.005-51.155,48.364C230.936,267.838,227.866,271.329,224.896,274.852z M240.836,323.355
	c1.752-1.789,3.567-3.509,5.459-5.125c1.342-1.146,2.766-2.342,4.271-3.441c-0.204-0.053-0.354-0.155-0.407-0.322
	c-3.96-12.583,1.252-24.265,2.741-36.738c-4.271,1.86-8.669,3.169-13.03,3.674c-0.44,0.051-0.728,0.011-0.902-0.08
	c-0.262,0.031-0.489,0.021-0.638-0.052c-2.131-1.049-4.357-2.091-6.646-2.967C230.836,292.406,217.091,323.899,240.836,323.355z
	 M208.702,375.83c-0.047,0.225-0.09,0.455-0.099,0.725c-0.104,3.094,1.734,6.135,3.788,8.314c1.609,1.709,9.183,8.34,11.489,5.764
	c2.44-2.729,1.264-6.885,0.423-10.088c-0.151,0.055-0.302,0.104-0.451,0.156c-1.093,0.393-2.943,0.066-0.996-0.633
	c8.596-3.084,17.494-5.558,26.682-5.757c3.792-0.083,7.783,0.649,11.539,0.306c2.056-0.188,4.072-0.812,6.005-1.658
	c1.923-0.844,3.764-1.91,5.473-2.996c3.037-1.926,6.008-4.11,8.806-6.506c3.886-3.325,7.431-7.071,10.272-11.213
	c0.551-0.803,1.116-1.668,1.662-2.572c0.532-0.879,1.039-1.799,1.493-2.746c1.763-3.678,2.649-7.739,0.556-11.326
	c-1.631,1.118-3.259,2.191-4.736,3.288c-1.079,0.799-3.471-0.015-1.887-1.188c3.848-2.851,8.335-5.427,11.563-9.004
	c3.52-3.898,2.468-6.9-1.132-9.459c-1.607,1.209-3.439,2.055-5.377,2.457c1.424,0.959,2.72,2.168,2.169,3.656
	c-0.521,1.408-1.858,2.548-2.911,3.555c-2.432,2.324-4.916,4.594-7.353,6.912c-0.9,0.855-3.718,0.43-2.414-0.813
	c1.665-1.584,3.351-3.147,5.026-4.719c-0.012-0.006-0.024-0.01-0.035-0.016c-6.979-4.111-13.896-8.788-18.918-15.223
	c-0.902,1.955-1.732,4.156-0.974,4.24c0.742,0.082-1.708,1.182-2.385,1.105c-2.983-0.329,3.351-9.799,4.104-10.654
	c2.674-3.035,7.082-5.109,9.975-2.345c0.102,0.097,0.198,0.204,0.296,0.313c0.188-0.51,0.406-1,0.661-1.465
	c0.484-0.885,1.045-1.684,1.647-2.424c-0.018-0.014-0.034-0.027-0.052-0.043c-0.016-0.015-0.036-0.025-0.051-0.042
	c-7.986-8.738-16.295,4.175-21.111,10.13c-0.757,0.934-3.529,0.676-2.393-0.73c0.041-0.051,0.085-0.105,0.127-0.157
	c0.017-0.021,0.034-0.042,0.051-0.063c-1.168,0.172-2.323,0.557-3.451,1.096c-3.51,1.677-6.754,4.781-9.305,7.169
	c-3.137,2.937-6.137,6.075-8.884,9.407c-1.227,1.486-2.406,3.006-3.519,4.57c-1.584,2.229-3.024,4.477-4.038,6.887
	c-0.903,2.154-1.468,4.438-1.472,6.961c-0.012,8.055,4.936,13.427,11.416,17.455c0.558,0.061,0.98,0.311,0.895,0.617
	c0.729,0.867-1.462,2.096-2.494,1.478c-0.068-0.041-0.137-0.086-0.204-0.127c-1.904,0.815-3.748,1.741-5.59,2.659
	c-1.347,0.67-2.691,1.334-4.061,1.943c-1.229,0.547-2.479,1.043-3.765,1.463c-0.956,0.313-1.934,0.58-2.937,0.787
	c0.002,0.002,0.004,0.002,0.005,0.002c0.254,0.116-1.301,0.977-2.263,1.039c-0.183,0.012-0.347-0.002-0.47-0.059
	c-1.723-0.79-6.423-3.07-8.909-2.197C209.451,374.328,208.908,374.873,208.702,375.83z M154.977,510.892
	c0.019,0.061,0.042,0.115,0.062,0.176c30.479-20.498,67.914-22.324,103.584-22.949c-0.233-6.732-0.469-13.467-0.699-20.201
	c-0.368,0.203-0.79,0.344-1.118,0.332c-15.623-0.563-31.128,1.02-46.416,3.949c0,0.4,0,0.805,0,1.207
	c0,0.883-2.898,1.322-2.898,0.775c0-0.471,0-0.941,0-1.412c-5.008,1.016-9.99,2.17-14.947,3.439
	c-12.283,3.152-25.732,5.584-33.509,16.654C155.425,498.003,153.074,504.626,154.977,510.892z M431.494,515.289
	c-0.077-0.016-0.146-0.037-0.203-0.074c-32.492-21.658-71.989-28.324-110.436-27.496c-0.139,0.002-0.228-0.01-0.289-0.027
	c-0.868,7.506-2.078,14.932-3.786,22.199c5.379,2.771,10.688,5.814,16.747,6.611c0.715,0.094-1.73,1.162-2.393,1.076
	c-5.566-0.73-10.345-3.273-15.145-5.781c-0.914,0.635-2.677,0.648-2.422-0.396c0.063-0.252,0.113-0.51,0.174-0.764
	c-3.009-1.527-6.073-2.934-9.394-3.764c-11.1-2.775-19.517,2.725-29.333,6.254c0.66,0.297,1.317,0.604,1.97,0.938
	c1.139,0.58-1.539,1.738-2.322,1.34c-1.005-0.514-2.021-0.979-3.049-1.402c-0.356-0.021-0.616-0.104-0.601-0.234
	c-3.258-1.285-6.611-2.15-10.029-2.701c-0.482,0.092-0.983,0.045-1.298-0.189c-11.798-1.623-24.282,0.268-35.972,1.141
	c-2.016,0.15-0.948-1.385,0.429-1.486c11.41-0.854,23.58-2.633,35.188-1.424c-0.207-6.381-0.425-12.762-0.646-19.145
	c-35.409,0.594-72.828,2.113-102.948,22.957c2.893,6.629,9.346,10.92,16.039,13.379c13.312,4.893,28.333,5.449,42.322,6.963
	c13.962,1.512,27.954,2.785,41.977,3.582c23.043,1.311,46.12,1.379,69.167,0.104c18.665-1.031,37.698-1.893,56.105-5.35
	c15.627-2.938,32.132-6.703,46.287-14.176C428.842,516.787,430.164,516.08,431.494,515.289z M440.555,505.669
	c1.646-5.979-3.332-10.869-7.814-14.018c-6.729-4.727-14.732-7.521-22.533-9.928c-10.344-3.191-20.918-5.666-31.554-7.664
	c-18.079-3.398-38.079-7.238-56.534-4.727c-0.359,6.063-0.834,12.115-1.522,18.121c0.419-0.328,1.776-0.848,2.157-0.857
	c38.53-0.826,78.196,5.791,110.831,27.365C436.745,511.82,439.601,509.13,440.555,505.669z M302.78,161.176
	c0.176-0.341,0.372-0.672,0.624-0.961c0.629,0.224,1.384,0.074,1.934-0.28c0.388-0.25,0.878-0.935,0.228-1.23
	c-2.235-1.013-4.46,0.316-5.503,2.337C299.389,162.348,302.307,162.094,302.78,161.176z" fill="#0d89ec"></path>
</svg>