<?xml version="1.0" standalone="no"?>
<svg version="1.1" id="Layer_1" xmlns="http://www.w3.org/2000/svg" xmlns:xlink="http://www.w3.org/1999/xlink" x="0px" y="0px" width="595.28px" height="595.28px" viewBox="0 0 595.28 595.28" enable-background="new 0 0 595.28 595.28" xml:space="preserve">
<path id="color_x5F_2" fill="#FBC02D" d="M424.37,415.715c0.248,1.505,0.155,2.972-0.302,4.229L424.37,415.715z M436.596,347.927
	c-0.572,0.426-1.088,0.875-1.523,1.344L436.596,347.927z M513.798,362.784c0.096-0.309,0.184-0.629,0.277-0.941
	c0.037-0.189,0.068-0.383,0.083-0.583l-2.2,3.96C512.76,364.516,513.412,363.716,513.798,362.784z M504.356,336.051
	c0.064,0.094,0.128,0.186,0.192,0.277c1.26-0.803,4-2.421,6.966-3.394c-0.879,0.069-1.902,0.363-3.115,0.959
	C507.026,334.567,505.683,335.295,504.356,336.051z M478.208,423.26l4.127-0.375C480.946,422.562,479.509,422.657,478.208,423.26z
	 M435.815,395.462c0.357-1.505,0.381-3.092,0-4.684V395.462z M535.25,312.151c0.263,0,0.526,0,0.789,0
	c0.181,0,0.32,0.021,0.442,0.051l0.001-0.058L535.25,312.151z M419.148,379.478l0.045,0.057c-0.042-0.543-0.085-1.087-0.128-1.631
	L419.148,379.478z M422.577,383.764l1.422,1.777c-0.214-0.481-0.513-0.94-0.928-1.362
	C422.918,384.023,422.741,383.903,422.577,383.764z M534.994,314.104c0.5,0,1.065-0.297,1.454-0.659l-0.022,0.849
	c-0.167,0.078-0.335,0.156-0.526,0.268c-0.646,0.377-0.175,0.484,0.507,0.457l-0.001,0.053c-0.185,0.041-0.369,0.082-0.554,0.123
	c-0.126-0.049-0.351,4.969-0.403,5.788c-0.312,4.946-0.715,9.888-1.115,14.827c-0.013,0.162-0.026,0.324-0.039,0.487
	c-0.061,0.753-0.127,1.505-0.188,2.257c-0.324,3.969-0.661,7.937-0.995,11.904c-0.562,6.67-1.121,13.339-1.693,20.008
	c-0.399,4.646-0.799,9.294-1.194,13.941c-1.988,23.356-4.486,46.839-5.802,70.312c-0.205,3.653-0.382,7.306-0.523,10.958
	c-0.142,3.684-0.251,7.367-0.315,11.049c-0.1,5.739-3.594,8.101-9.101,9.184c-1.475,0.29-12.729,1.492-12.033-2.035
	c0.09-0.457-1-0.438-1.863-0.179c-0.321-0.312-0.653-0.618-1.003-0.915c-3.124-2.643-7.141-3.811-11.219-4.254l-0.235-0.563
	c0.888,0.026,2.519-0.606,2.363-1.008c-3.449-8.868-11.58-14.2-20.067-14.009l-1.086-0.334c0.431-0.31,0.663-0.753,0.37-1.222
	c-0.728-1.163-1.521-2.279-2.363-3.35c-1.48-1.882-3.133-3.602-4.944-5.103c-4.375-3.627-9.66-5.974-15.647-6.161
	c-7.786-0.243-14.248,4.004-18.924,9.77c-0.78-11.562-1.598-23.119-2.449-34.676c1.243-1.28,2.037-2.963,2.071-5.05
	c2.358,0.824,4.759,0.646,6.952-0.198l0.745,0.187l0.447-0.714c6.967-3.566,11.09-13.745,2.982-18.422
	c-0.229-0.132-0.521-0.168-0.825-0.141c1.637-3.393,1.85-7.381-0.33-10.803c-1.738-2.729-4.23-3.74-6.834-3.611l-0.772-0.31
	l-0.845,0.528c-0.836,0.185-1.669,0.468-2.481,0.846c-0.305-0.538-0.707-1.055-1.245-1.535c-0.852-0.76-1.872-1.283-2.976-1.64
	c-1.358-17.386-2.74-34.769-4.105-52.155c-0.021-0.268-0.362-0.377-0.801-0.373c1.539-1.719,2.754-3.852,1.997-6.1
	c-0.353-1.047-1.036-1.958-1.918-2.76c-0.14-1.795-0.279-3.588-0.418-5.383c-0.004-0.05-0.02-0.093-0.037-0.135
	C456.322,314.104,495.658,314.104,534.994,314.104z M508.539,443.56c0.094-0.073,0.191-0.143,0.284-0.219
	c0.797-0.647,1.539-1.357,2.201-2.115c2.254-2.582,4.066-6.226,3.327-9.728c-0.905-4.287-6.044-5.278-9.707-5.433
	c-0.125-0.006-0.327,0.036-0.561,0.105c1.117-6.934-7.583-12.367-14.412-11.28c-1.665-0.257-3.097-0.172-3.855,0.587
	c-0.532,0.531-0.967,1.301-1.322,2.141c-0.578,0.646-1.086,1.396-1.485,2.289c-0.242,0.542,0.033,0.849,0.49,0.965
	c-0.033,0.152-0.063,0.295-0.091,0.434c-3.124-0.42-6.467,0.574-9.007,2.667c-1.579,1.301-2.825,3.214-2.58,5.329
	c0.094,0.813,0.451,1.495,0.958,2.073l-0.296,0.77l1.372,0.171c0.368,0.254,0.762,0.48,1.172,0.678
	c-3.771,1.732-6.044,5.319-4.182,9.656c0.46,1.071,1.099,1.975,1.855,2.731l0.449,2.097l3.602,0.258
	c1.497,0.434,3.109,0.546,4.693,0.335l1.039,0.074c0,0,1.47,0.653,3.278,1.313c5.276,3.488,13.84,3.2,15.205-2.931
	c0.15-0.004,0.297-0.003,0.452-0.015C504.029,446.317,506.473,445.168,508.539,443.56z M519.52,347.737
	c0.293-3.918,0.162-7.814-0.583-11.383c-0.057-0.273-0.122-0.531-0.194-0.778c-0.147-0.501-0.326-0.946-0.53-1.343
	c-0.384-1.057-0.974-1.795-1.84-2.014c-3.39-1.99-9.038,0.74-12.709,2.797c-2.063-3.12-4.278-6.647-7.64-7.297l-0.208-0.242
	l-0.388,0.162c-1.113-0.098-2.345,0.112-3.734,0.744c-8.988,4.09-17.455,9.13-26.005,14.04c-3.986-3.844-7.686-6.048-13.285-4.556
	c-6.288,1.677-12.906,6.584-18.099,10.377c-1.603,1.17-4.422,3.235-2.931,5.465c1.748,2.613,4.742,4.041,6.455,6.834
	c0.056,0.092,0.147,0.154,0.263,0.195c-0.034,0.105-0.026,0.213,0.046,0.317c5.917,8.673,9.97,18.465,15.967,27.075
	c1.86,2.671,3.564,5.16,6.982,5.143c3.228-0.019,5.95-1.799,8.719-3.224c0.786-0.404,1.565-0.815,2.349-1.222
	c4.298-1.761,9.66-4.019,9.66-4.019l10.212-6.581c2.563-1.414,5.119-2.842,7.669-4.291c4.238-2.406,8.998-4.461,12.958-7.296
	c1.359-0.972,2.61-2.007,3.436-3.241c0.141-0.211,0.265-0.431,0.379-0.654c0.051-0.057,0.093-0.115,0.112-0.177
	c0.014-0.043,0.026-0.087,0.04-0.131c0.171-0.388,0.296-0.798,0.375-1.229c0.798-2.703,1.472-5.606,1.944-8.572
	C519.198,351.015,519.397,349.375,519.52,347.737z M501.144,445.251c0.561,0.117,1.157,0.131,1.79,0.001
	c0.849-0.174,1.668-0.561,2.446-1.059l-4.228,0.976C501.151,445.197,501.146,445.223,501.144,445.251z M503.779,487.765
	c0.458-0.066,0.958-0.139,1.494-0.218c-0.588-0.037-1.173-0.096-1.733-0.179C503.621,487.499,503.7,487.632,503.779,487.765z
	 M497.744,484.739l1.988,1.988C499.146,486.005,498.482,485.341,497.744,484.739z M218.741,319.739l0.439-0.066
	c-0.005-0.013-0.011-0.025-0.016-0.037C219.023,319.67,218.882,319.704,218.741,319.739z M174.481,324.811
	c1.463,0.098,3.203,0.093,5.098,0.019c-3.114-0.092-6.202-0.342-9.243-0.785C171.881,324.457,173.288,324.731,174.481,324.811z
	 M214.019,287.573c-0.547-7.815,2.059-15.48,5.364-22.434c-0.722-0.809-1.436-1.625-2.166-2.428
	c-1.151-1.266-2.819-3.521-4.325-5.029l-2.19-1.094c-2.961,0.979-6.213,1.328-9.458,1.133c-0.32,0.264-0.675,0.553-1.062,0.869
	c-8.443,8.484-19.144,15.489-29.182,21.633c-6.059,3.707-12.316,7.328-19.028,9.727c-1.361,0.486-2.845,0.994-4.372,1.379
	c-3.875,5.218-6.52,10.127-6.742,16.625c0.368-0.033,0.694,0.012,0.871,0.184c20.935,20.319,51.378,16.537,77.36,10.189
	c0.095-0.107,0.218-0.204,0.359-0.288c-0.021-0.074-0.035-0.153-0.038-0.241C219.131,307.446,214.74,297.854,214.019,287.573z
	 M161.542,234.019c0.329,0.146,0.664,0.281,0.999,0.4c0.174,0.003,0.348,0.005,0.522,0.007c0.596-0.888,2.784-1.112,2.774,0.033
	c0.211,0.001,0.423,0.007,0.634,0.008c0.006,0,0.01,0.001,0.016,0.001c0.556-0.371,0.968-1.008,1.155-2.004
	c0.224-1.161,0.436-2.324,0.637-3.488c0.401-2.363,0.782-4.728,1.156-7.094c0.742-4.686,1.507-9.361,2.5-14
	c0.008-0.037,0.027-0.072,0.044-0.108c-1.716-2.011-3.424-4.028-5.11-6.065c-3.49-4.218-6.971-8.478-10.238-12.887
	c-0.532,0.378-1.047,0.768-1.533,1.176c-0.687,0.648-1.456,1.387-2.269,2.183c-9.57,10.491-8.692,28.119-13.014,41.343v0.467
	c6.604,0.057,13.206,0.271,19.809,0.395C160.251,234.062,161.143,233.842,161.542,234.019z M168.548,236.315
	c-1.027,0.215-1.986,0.33-2.919,0.363c-0.651,6.786-1.142,13.349-3.313,19.799c6.85-4.75,17.212-6.096,22.565-12.705
	c2.793-3.449,4.507-8.506,7.543-11.936c0.024-0.057,0.053-0.124,0.077-0.18c-0.029-0.027-0.056-0.056-0.072-0.092
	c-0.031-0.076-0.068-0.148-0.112-0.217c-2.498-3.869-6.103-7.254-9.134-10.695c-2.999-3.406-5.99-6.818-8.953-10.254
	c-1.617,8.332-2.631,16.77-4.409,25.072C169.722,235.931,168.934,236.234,168.548,236.315z M232.312,238.073
	c0.269,0.006,0.467,0.068,0.514,0.215c0.002,0.007,0.004,0.014,0.006,0.021c0.039-0.104,0.076-0.197,0.108-0.283
	c-0.208-0.006-0.416-0.012-0.624-0.018C232.315,238.03,232.314,238.052,232.312,238.073z M253.656,223.056
	c-0.28-2-0.604-4.072-0.972-6.122c-0.249-1.187-0.519-2.368-0.839-3.536c-1.723-6.297-4.097-13.93-8.885-18.62
	c-7.147-7.001-17.76-7.836-25.242-13.963c-0.987,0-2.835,0-4.923,0c-6.645,0.931-14.459-0.7-18.936-4.82l-4.337,1.136
	c-6.557,2.593-13.639,3.767-20.48,5.451c2.095,2.914,4.164,5.854,6.372,8.658c5.917,7.518,11.918,14.973,18.03,22.332
	c3.737,4.502,7.398,9.292,11.581,13.431c0.656-0.015,1.313-0.013,1.968,0.002c0.431-0.194,0.904-0.296,1.248-0.205
	c8.581,2.259,16.739,10.161,13.172,19.767c-0.369,0.993-0.822,1.901-1.329,2.752c1.104-0.066,1.593,0.689,2.333,1.557
	c0.897,1.052,1.766,2.127,2.645,3.194c3.001-6.668,4.977-13.557,4.367-21.003c-0.022-0.277,0.124-0.521,0.358-0.725
	c-0.854-6.734-1.748-13.533-1.858-20.275c-0.018-1.101,2.883-1.654,2.897-0.777c0.126,7.65,1.347,15.377,2.21,22.971
	c0.187,1.643,0.768,2.162-0.5,2.119c1.248,0.042,2.496,0.072,3.744,0.09c5.892,0.081,11.795,0.035,17.665-0.52
	c-0.001-0.02-0.008-0.035-0.007-0.055C254.211,231.634,254.129,227.32,253.656,223.056z"></path>
<path id="color_x5F_1" d="M206.826,145.788c0.264,0.956-2.632,1.739-2.897,0.777c-0.136-0.49-0.327-1.016-0.74-1.342
	c-0.057,0.059-0.115,0.12-0.158,0.161c-0.488,0.464-1.4,0.666-2.049,0.549c-0.621-0.112-0.683-0.562-0.259-0.965
	c1.002-0.953,2.546-1.677,3.961-1.407C205.875,143.788,206.517,144.667,206.826,145.788z M235.429,138.065
	c1.088,3.531,4.669,11.076-1.3,12.007c-1.221,0.19-2.533,1.526-0.502,1.209c2.854-0.444,6.034-1.503,6.678-4.675
	c0.622-3.059-1.1-6.469-1.979-9.318C238.091,136.525,235.207,137.347,235.429,138.065z M223.165,155.21
	c-2.032,0.363-4.036-0.309-5.339-1.922c-0.523-0.647-3.034,0.608-2.897,0.777c1.923,2.382,4.83,2.584,7.661,2.078
	c0.483-0.086,1.424-0.273,1.711-0.74C224.548,155.001,223.252,155.194,223.165,155.21z M224.083,133.905
	c-0.417,0.055-1.635,0.365-1.652,0.961c-0.025,0.868-0.475,1.633-0.5,2.5c-0.019,0.633,0.772,0.645,1.24,0.582
	c0.417-0.055,1.635-0.365,1.652-0.961c0.025-0.868,0.475-1.633,0.5-2.5C225.342,133.854,224.552,133.843,224.083,133.905z
	 M244.061,134.821c-0.451,0.051-1.636,0.389-1.636,1.022c0,1,0,2,0,3c0,0.663,0.736,0.751,1.269,0.688
	c0.451-0.051,1.636-0.389,1.636-1.022c0-1,0-2,0-3C245.33,134.847,244.594,134.759,244.061,134.821z M231.048,122.542
	c-3.816-1.733-8.09-0.853-11.54,1.316c-1.649,1.037,0.937,1.141,1.738,0.637c2.425-1.526,4.818-1.883,7.46-0.684
	C229.445,124.147,232.111,123.024,231.048,122.542z M240.889,124.394c-0.095,0.036-1.307,0.517-0.88,0.764
	c0.476,0.276,1.4-0.026,1.857-0.197c1.848-0.693,3.538-0.414,5.143,0.697c0.646,0.447,3.071-0.73,2.737-0.961
	C247.074,122.845,243.777,123.312,240.889,124.394z M448.995,449.042c-9.198-1.274-16.198,3.84-20.932,11.285
	c-0.042,0.237-0.199,0.447-0.422,0.62c-0.049,0.054-0.104,0.103-0.166,0.149c2.039,0.387,4.083,1.121,6.067,2.258
	c1.098,0.629-1.593,1.734-2.33,1.313c-9.44-5.406-18.784-0.594-22.19,8.795c1.187,1.641,2.478,3.491,2.805,5.326
	c0.013,0.072,0.013,0.142,0.005,0.21c1.687-0.312,3.389-0.501,5.089-0.549c1.955-0.056,0.08,1.759-1.088,1.791
	c-12.235,0.347-24.489,9.521-28.667,20.945c-0.382,1.043-3.307,1.402-2.91,0.318c1.771-4.842,4.792-9.186,8.589-12.769
	c-5.985-0.594-12.057-9.324-15.39-13.272c-8.515-10.087-16.217-20.875-23.625-31.791c-7.843-11.556-15.409-23.325-22.407-35.415
	c-3.616-6.247-8.854-13.57-10.488-20.844c-0.522,0.316-1.057,0.617-1.603,0.901c0.748,7.279,5.578,15.001,8.768,21.39
	c6.016,12.049,12.545,23.85,19.402,35.439c6.836,11.552,13.92,23.032,21.876,33.855c2.994,4.072,6.082,8.164,9.641,11.769
	c1.692,1.714,4.191,4.583,6.794,4.794c1.474,0.119-1.217,1.283-1.866,1.23c-6.513-0.528-12.428-10.31-15.867-14.862
	c-7.98-10.565-15.042-21.859-21.819-33.222c-7.301-12.242-14.301-24.692-20.669-37.447c-3.265-6.539-8.246-14.418-9.118-21.881
	c-0.774-0.033-1.336-0.457-0.694-0.94c-1.843-1.944-3.395-4.142-5.205-6.116c-0.408-0.103-0.668-0.329-0.544-0.604
	c-0.001-0.001-0.003-0.003-0.004-0.005c-0.176-0.181-0.1-0.389,0.11-0.585c-4.382-2.606-8.798-5.141-13.342-7.46
	c-0.99,0.036-1.94-0.52-1.136-1.453c2.138-2.484,4.5-4.75,6.995-6.871c-0.684-0.84-1.624-1.809-2.089-2.381
	c-2.457-3.012-4.933-6.008-7.413-9.002c-7.146-8.624-14.323-17.222-21.51-25.811c-7.344-8.777-14.698-17.547-22.078-26.295
	c-2.781-3.297-6.697-9.41-9.827-11.671c-0.062-0.018-0.119-0.039-0.171-0.065c-4.781,3.958-10.955,7.449-12.531,0.406
	c-0.008-0.002-0.019-0.002-0.027-0.004c-4.525-1.174-5.927-5.268-5.642-9.494c-4.531-3.727-2.166-8.068,1.938-11.492
	c0.03-0.084,0.085-0.17,0.161-0.254c-0.022,0.008-0.045,0.016-0.067,0.023c-0.367,0.46-0.191,0.234-0.713-0.395
	c-0.438-0.527-0.883-1.05-1.333-1.566c-0.018-0.02-0.036-0.039-0.053-0.061c-3.761,8.555-5.443,17.306-3.384,26.671
	c1.729,7.862,4.21,15.491,4.43,23.601c0.009,0.328-0.192,0.601-0.489,0.801c7.18,17.928,16.387,34.981,23.199,53.072
	c2.658,7.057,5.777,14.822,5.896,22.479c0.065,4.168-0.88,8.462-1.423,12.581c-2.05,15.532-4.107,31.063-6.237,46.584
	c-0.918,6.694-1.834,13.392-2.833,20.075c-0.189,1.262-0.161,4.422-0.759,6.427c0.143,0.079,0.173,0.205,0.007,0.394
	c-0.081,0.092-0.17,0.177-0.252,0.267c-0.152,0.336-0.329,0.619-0.545,0.81c-0.143,0.125-0.342,0.219-0.564,0.286
	c-1.698,1.531-3.728,2.762-5.971,3.688l0.655,0.119c-0.193-0.381,1.932-1.226,2.538-1.035c6.291,1.971,12.916,2.679,19.194,4.709
	c3.804,1.23,11.407,4.335,11.569,9.227c0.271,8.146-17.922,8.262-22.885,8.248c-10.667-0.03-21.343-0.502-32.002-0.863
	c-1.839-0.063-4.184,0.6-5.016-1.311c-2.508-5.76-1.264-11.781,1.522-17.188c0.214-0.416,1.147-0.665,1.894-0.726l0.302-0.83
	c-3.012-1.096-5.696-2.685-7.759-4.755c-0.197-0.059-0.372-0.154-0.5-0.304c-1.284-1.504-0.131-6.423,0.005-8.114
	c0.533-6.594,1.249-13.174,2-19.746c1.705-14.92,3.521-29.849,5.836-44.688c0.649-4.166,1.662-7.744,0.544-11.898
	c-1.728-6.421-4.347-12.628-7.07-18.68c-3.233-7.186-6.702-14.305-10.709-21.096c-1.169-1.98-2.912-5.744-5.032-8.221
	c-6.828,16.999-8.658,36.112-18.483,51.848c-5.89,9.432-15.225,16.61-23.28,24.151c-10.602,9.925-21.184,19.872-31.829,29.751
	c-3.709,3.441-7.411,6.895-11.182,10.269c-0.614,0.55-1.331,1.337-2.119,2.005c-0.143,0.255-0.638,0.583-1.133,0.797
	c-0.531,0.299-1.082,0.499-1.652,0.484c-0.457-0.012-0.708-0.127-0.819-0.295c-1.014-0.063-2.026-0.209-3.028-0.445
	c2.578,4.922,5.623,9.619,7.679,14.794c1.433,3.606,3.429,11.173-0.4,14.093c-7.478,5.703-17.786-6.484-21.96-11.368
	c-7.211-8.437-14.188-17.079-21.201-25.683c-1.652-2.025-0.432-3.245,1.117-5.389c3.16-4.373,8.279-6.633,13.364-7.864
	c1.696-0.411,1.963,0.533,0.254,0.947c-1.984,0.48-3.975,1.221-5.798,2.237c2.517-0.772,5.708-1.867,7.248-2.402
	c-0.327-1.545-0.474-3.092-0.414-4.61c-0.082-0.132-0.126-0.294-0.113-0.491c0.156-2.342,4.308-5.613,5.73-7.153
	c4.647-5.03,9.428-9.939,14.258-14.794c10.313-10.363,20.698-21.063,32.199-30.131c1.355-1.068,3.627-2.076,4.317-3.724
	c0.908-2.166,1.233-4.585,1.499-6.903c0.844-7.371,0.98-14.815,1.214-22.224c0.283-8.976,0.496-17.981,1.393-26.922
	c0.638-6.347,1.387-12.968,3.964-18.87c-0.217-0.141-0.361-0.354-0.364-0.665c-0.052-6.867,2.531-12.079,6.331-17.397
	c-1.755,0.146-3.493-0.001-5.1-0.664c-9.021-3.723-5.953-21.091-4.932-28.155c0.89-6.151,2.117-12.243,3.457-18.312
	c0.468-2.119,0.961-4.235,1.392-6.363c0.172-0.849,0.148-2.76,0.692-2.422c-0.283-0.176-0.392-0.377-0.388-0.578
	c-0.167-0.002-0.334-0.006-0.502-0.007c-0.883,0.507-2.662,0.612-2.429-0.021c0.003-0.009,0.006-0.017,0.009-0.024
	c-0.838-0.11-0.342-0.648,0.355-1.025c1.435-4.224,2.347-8.804,3.197-13.443c-0.039-0.016-0.08-0.029-0.113-0.051
	c-13.169-8.397-17.927-30.215-11.528-44.215c0.636-1.391,1.311-2.768,2.02-4.129c0.476-1.07,1.068-2.128,1.745-3.166
	c3.585-6.149,8.071-11.752,13.882-15.979c4.459-3.242,9.308-5.451,14.384-7.36l0.76-0.522c0,0,3.158-1.053,6.872-2.686
	c5.8-3.344,9.909-8.717,11.996-15.461c2.898-9.363,3.661-19.842,9.349-28.135c5.136-7.488,12.56-10.971,21.609-10.303
	c10.804,0.797,19.813,8.236,30.453,9.918c2.703-1.354,5.609-2.657,8.537-3.405c0.87-0.473,1.901-0.608,2.958-0.546
	c2.922-0.313,5.803,0.1,8.459,1.762c6.796,4.25,9.863,14.185,3.602,20.527c-2.772,2.81-5.889,4.076-9.149,4.324
	c-0.005,0.001-0.018,0.004-0.018,0.004l-0.007-0.002c-0.654,0.049-1.311,0.07-1.975,0.04c0.171,12.167,2.782,29.112-5.85,39.035
	c-7.698,8.849-24.403,6.178-29.176,17.385c-0.031,0.073-0.091,0.142-0.162,0.206c0.062,0.063,0.126,0.122,0.189,0.184
	c0.748-0.057,1.33,0.016,0.65,0.394c-0.052,0.029-0.112,0.052-0.165,0.08c4.152,3.878,9.318,5.548,14.646,7.677
	c5.479,2.189,10.04,5.004,13.764,9.672c8.135,10.191,9.886,26.833,9.084,39.314c-0.021,0.335-0.53,0.636-1.112,0.805
	c0.067,0.438-0.66,1.104-1.532,1.191c-0.195,0.02-0.391,0.033-0.586,0.053c3.275,8.942,4.239,19.523,3.662,28.932
	c-0.415,6.771-1.749,15.234-7.875,18.884c3.576,3.007,6.497,8.207,9.336,11.754c6.89,8.606,13.769,17.221,20.656,25.829
	c7.102,8.876,14.203,17.754,21.349,26.595c2.666,3.298,5.322,7.649,8.5,10.755c2.042-1.47,4.115-2.891,6.191-4.281
	c0.445-0.298,1.042-0.335,1.541-0.211c0.397,0.04,0.736,0.197,0.88,0.523c3.585,8.154,7.335,17.736,13.771,24.059
	c2.949,2.896,5.718,5.982,8.479,9.057c9.613,10.702,18.958,21.648,28.207,32.666c10.162,12.105,20.246,24.293,29.93,36.788
	c3.121,4.027,6.233,8.077,9.143,12.263c3.548-6.653,10.341-10.649,17.533-10.331c0.023-0.075,0.058-0.155,0.112-0.243
	c0.044-0.072,0.093-0.143,0.139-0.215c-0.815-12.179-1.678-24.354-2.572-36.527c-6.433,2.891-16.624-0.197-13.9-9.803
	c0.249-0.878,3.132-1.305,2.882-0.422c-1.395,4.918,1.164,9.984,6.744,10.038c1.787,0.017,3.166-0.479,4.166-1.313
	c-0.024-0.328-0.047-0.656-0.071-0.984c-0.049-0.668,0.838-1.162,1.644-1.283c0.012-0.031,0.025-0.061,0.037-0.092
	c0.457-1.258,0.55-2.725,0.302-4.229c-0.104-0.634-0.264-1.272-0.485-1.903c-0.287-0.815,2.584-1.669,2.897-0.777
	c0.126,0.359,0.217,0.704,0.307,1.048c0.245,0.001,0.477,0.048,0.664,0.161c8.45,5.118,17.055-9.591,8.841-14.733
	c-0.871,1.243-1.938,2.354-3.14,3.257c-0.679,0.51-3.592,0.58-2.301-0.391c2.297-1.725,4.016-4.185,4.663-6.914
	c0.357-1.505,0.381-3.092,0-4.684c-0.023-0.1-0.04-0.199-0.067-0.298c-1.168-4.306-4.625-7.292-8.704-4.911
	c0.737,3.032-1.122,6.528-2.906,9.115c-0.492,0.713-3.099,0.839-2.862,0.496c1.534-2.225,3.657-5.811,3.004-8.766
	c-0.586-0.059-0.915-0.281-0.304-0.732c0.02-0.015,0.041-0.027,0.061-0.042c-0.014-0.032-0.023-0.067-0.038-0.1
	c-0.214-0.481-0.513-0.94-0.928-1.362c-0.152-0.155-0.33-0.275-0.494-0.415c-0.271-0.23-0.552-0.447-0.851-0.636
	c-0.841,0.432-2.208,0.53-2.25-0.016c-0.027-0.342-0.054-0.684-0.081-1.026c-2.156-0.626-4.575-0.61-6.676-0.271
	c-8.693,1.403-15.167,8.265-9.394,16.579c1.172-0.504,2.424-0.898,3.755-1.146c1.769-0.33,2.282,1.4,0.466,1.738
	c-6.045,1.127-10.461,5.878-10.39,12.19c0.059,5.237,3.38,10.831,9.358,8.7c1.412-0.504,3.11,0.795,1.22,1.469
	c-6.543,2.334-12.972-0.781-13.434-8.227c-0.37-5.962,2.413-10.894,7.025-13.695c-0.392,0.042-0.729-0.009-0.881-0.227
	c-6.946-9.967,3.468-17.217,12.799-18.508c1.807-0.25,3.947-0.435,6.022-0.257c-0.023-0.3-0.047-0.599-0.071-0.897
	c-0.042-0.543-0.085-1.087-0.128-1.631c-1.239-15.823-2.494-31.646-3.736-47.467c-6.319,5.477-14.304,8.827-20.991,13.753
	c-0.74,0.831-1.546,1.449-2.402,1.888c-0.5,0.426-0.991,0.862-1.469,1.315c-0.524,0.497-3.296,0.803-2.635,0.176
	c0.217-0.205,0.442-0.4,0.664-0.601c-4.25,0.229-9.03-2.128-12.737-3.701c-12.301-5.221-24.791-10.041-36.893-15.719
	c-3.456-1.622-6.896-3.273-10.356-4.885c-2.165-1.008-4.711-1.793-6.434-3.512c-3.546-3.535-2.131-7.492-0.639-11.822
	c3.971-11.521,9.759-22.312,13.461-33.934c0.036-0.112,0.121-0.215,0.237-0.31c-0.043-0.04-0.06-0.087-0.034-0.146
	c3.462-8.011,9.88-12.678,18.776-10.206c4.925,1.368,12.941,3.546,16.38,7.629c3.178,3.772,2.846,9.083,2.258,13.744
	c-0.013,0.103-0.064,0.195-0.14,0.281c10.109,4.142,20.397,7.969,30.145,12.926c3.418,1.738,6.995,3.66,7.25,7.9
	c0.183,3.033-1.643,5.966-2.5,8.771c-0.048,0.157-0.159,0.298-0.305,0.423c0.191,0.078,0.385,0.152,0.576,0.231
	c1.826,0.756,4.445,1.644,6.778,2.875c-0.065-0.832-0.13-1.666-0.194-2.498c-0.029-0.379,0.26-0.699,0.664-0.926
	c-1.602-0.146,0.022-1.939,1.255-1.939c39.735,0,79.471,0,119.206,0c0.263,0,0.526,0,0.789,0c0.181,0,0.32,0.021,0.442,0.051
	c0.682,0.17,0.485,0.762-0.033,1.243c-0.389,0.362-0.954,0.659-1.454,0.659c-39.336,0-78.671,0-118.007,0
	c0.017,0.042,0.033,0.085,0.037,0.135c0.14,1.795,0.279,3.588,0.418,5.383c0.882,0.802,1.565,1.713,1.918,2.76
	c0.757,2.248-0.458,4.381-1.997,6.1c0.439-0.004,0.78,0.105,0.801,0.373c1.365,17.387,2.747,34.77,4.105,52.155
	c1.104,0.356,2.124,0.88,2.976,1.64c0.539,0.48,0.94,0.997,1.245,1.535c0.812-0.378,1.645-0.661,2.481-0.846
	c0.541-0.119,1.081-0.193,1.618-0.219c2.604-0.129,5.097,0.883,6.834,3.611c2.18,3.422,1.966,7.41,0.33,10.803
	c0.305-0.027,0.597,0.009,0.825,0.141c8.108,4.677,3.985,14.855-2.982,18.422c-0.389,0.198-0.787,0.372-1.191,0.527
	c-2.193,0.844-4.594,1.022-6.952,0.198c-0.034,2.087-0.829,3.77-2.071,5.05c0.851,11.557,1.668,23.114,2.449,34.676
	c4.676-5.766,11.138-10.013,18.924-9.77c5.988,0.188,11.273,2.534,15.647,6.161c1.811,1.501,3.463,3.221,4.944,5.103
	c0.842,1.07,1.636,2.187,2.363,3.35c0.293,0.469,0.062,0.912-0.37,1.222c-0.691,0.497-1.896,0.651-2.293,0.017
	C463.051,456.249,456.804,450.124,448.995,449.042z M322.728,313.13c0.011,0.957,0.206,1.794,0.52,2.551
	c9.292-3.718,18.107-8.436,27.115-12.779c5.533-2.668,11.072-5.484,17.377-5.025c6.251,0.455,11.994,5.316,17.463,7.887
	c6.327,2.973,12.945,5.172,19.441,7.714c1.3-3.595,3.866-7.954,0.786-11.21c-3.021-3.191-8.03-4.934-12.005-6.707
	c-7.972-3.559-16.109-6.715-24.18-10.039c-0.681-0.281-0.253-0.789,0.435-1.146c0.398-3.236,0.779-7.387-0.471-10.398
	c-1.665-4.012-6.063-5.76-9.812-7.246c-3.457-1.37-7.173-3.217-10.961-3.393c-5.833-0.271-8.498,4.531-10.474,9.104
	c-0.042,0.097-0.125,0.185-0.234,0.265c0.057,0.063,0.077,0.143,0.045,0.24c-2.828,8.879-6.906,17.215-10.404,25.828
	C325.665,302.971,322.677,308.521,322.728,313.13z M416.638,323.681c-0.23-0.684-0.594-1.306-1.041-1.885
	c-0.521,0.025-0.954-0.123-0.983-0.508c-0.016-0.203-0.032-0.407-0.047-0.61c-2.572-2.363-6.671-3.783-9.394-4.874
	c-6.468-2.592-13.076-4.816-19.483-7.561c-5.688-2.436-10.968-6.599-16.877-8.424c-8.582-2.65-17.738,4.002-25.208,7.723
	c-6.527,3.25-13.085,6.414-19.87,9.088c2.084,3.346,7.005,4.714,10.561,6.37c9.252,4.31,18.51,8.506,27.944,12.411
	c4.709,1.949,9.428,3.88,14.12,5.871c3.572,1.516,12.142,6.956,15.62,2.671c0.156-0.192,0.549-0.358,0.991-0.468
	c5.312-3.639,11.329-6.467,16.453-10.255C411.76,331.501,417.9,327.429,416.638,323.681z M250.498,237.765
	c-5.836,0.414-11.711,0.436-17.557,0.262c-0.208-0.006-0.416-0.012-0.624-0.018c-0.001,0.021-0.003,0.043-0.005,0.064
	c0.269,0.006,0.467,0.068,0.514,0.215c0.002,0.007,0.004,0.014,0.006,0.021c2.608,8.035,1.5,16.812,3.494,24.979
	c0.016,0.064-0.008,0.129-0.052,0.193c10.262-0.616,13.781,13.195,9.937,21.316c8.386-2.555,8.402-16.631,8.19-23.548
	C254.163,253.444,253.285,245.128,250.498,237.765z M233.079,264.099c0.113-0.036,0.225-0.072,0.334-0.105
	c-1.524-6.302-1.222-12.963-2.208-19.366c-1.002,3.96-2.546,7.803-4.369,11.585c0.071,0.088,0.146,0.174,0.217,0.262
	c1.61,1.986,3.221,3.975,4.766,6.012C232.084,262.835,232.714,263.47,233.079,264.099z M192.424,231.837
	c0.042-0.047,0.084-0.095,0.127-0.142c-0.018-0.012-0.036-0.024-0.05-0.038c-0.029-0.027-0.056-0.056-0.072-0.092
	c-0.031-0.076-0.068-0.148-0.112-0.217c-2.498-3.869-6.103-7.254-9.134-10.695c-2.999-3.406-5.99-6.818-8.953-10.254
	c-1.617,8.332-2.631,16.77-4.409,25.072c-0.099,0.459-0.887,0.763-1.272,0.844c-1.027,0.215-1.986,0.33-2.919,0.363
	c-0.651,6.786-1.142,13.349-3.313,19.799c6.85-4.75,17.212-6.096,22.565-12.705C187.675,240.323,189.388,235.267,192.424,231.837z
	 M210.439,138.444l-0.018,0.014c0.002,0.003,0.004,0.006,0.006,0.009C210.432,138.46,210.436,138.452,210.439,138.444z
	 M201.541,227.275c-9.525-9.376-17.604-20.859-25.853-31.247c-3.595-4.529-7.689-9.018-10.747-13.943l-0.458,0.058
	c0,0-3.024-5.493-6.776-9.428c-1.608-1.519-3.372-2.804-5.303-3.649c-0.116-0.051-0.224-0.1-0.332-0.148
	c-0.31-0.064-0.618-0.107-0.922-0.107c-0.776,0-1.382,0.079-1.854,0.215c0.009,0.234,0.034,0.514,0.075,0.846
	c0.092,0.749,0.251,1.484,0.502,2.197c1.811,5.147,5.126,9.836,8.39,14.234c1.042-0.154,2.472,0.102,1.092,0.834
	c-0.114,0.061-0.218,0.129-0.33,0.19c0.125,0.168,0.252,0.339,0.377,0.507c4.972,6.669,10.275,13.086,15.685,19.403
	c4.615,5.39,9.314,10.704,13.995,16.035c1.711,1.948,4.247,4.125,5.692,6.484C196.838,228.354,199.144,227.624,201.541,227.275z
	 M216.687,179.919c-1.222,0.406-2.53,0.705-3.892,0.896c-6.645,0.931-14.459-0.7-18.936-4.82c-0.025-0.023-0.048-0.048-0.073-0.071
	c-0.612,0.125-1.252,0.199-1.924,0.213c-0.023,0.004-0.045,0.007-0.046,0.007c-0.757,0.349-1.521,0.682-2.294,0.987
	c-6.557,2.593-13.639,3.767-20.48,5.451c2.095,2.914,4.164,5.854,6.372,8.658c5.917,7.518,11.918,14.973,18.03,22.332
	c3.737,4.502,7.398,9.292,11.581,13.431c0.656-0.015,1.313-0.013,1.968,0.002c0.431-0.194,0.904-0.296,1.248-0.205
	c8.581,2.259,16.739,10.161,13.172,19.767c-0.369,0.993-0.822,1.901-1.329,2.752c1.104-0.066,1.593,0.689,2.333,1.557
	c0.897,1.052,1.766,2.127,2.645,3.194c3.001-6.668,4.977-13.557,4.367-21.003c-0.022-0.277,0.124-0.521,0.358-0.725
	c-0.854-6.734-1.748-13.533-1.858-20.275c-0.018-1.101,2.883-1.654,2.897-0.777c0.126,7.65,1.347,15.377,2.21,22.971
	c0.187,1.643,0.768,2.162-0.5,2.119c1.248,0.042,2.496,0.072,3.744,0.09c5.892,0.081,11.795,0.035,17.665-0.52
	c-0.001-0.02-0.008-0.035-0.007-0.055c0.273-4.26,0.191-8.573-0.282-12.838c-0.228-2.057-0.548-4.101-0.972-6.122
	c-0.249-1.187-0.519-2.368-0.839-3.536c-1.723-6.297-4.097-13.93-8.885-18.62c-7.147-7.001-17.76-7.836-25.242-13.963
	C217.368,180.527,217.023,180.231,216.687,179.919z M250.929,121.565c-0.001-0.137,0.074-0.261,0.191-0.374
	c-2.307-0.433-4.639-1.243-6.933-2.282c-1.26-0.571-2.542-1.171-3.852-1.688c-3.418-0.287-9.196-0.697-13-0.576
	c-1.244,0.219-2.488,0.451-3.749,0.656c-3.31,0.537-6.446,0.711-9.623,0.29c1.428,8.339,2.626,15.878-2.083,23.45
	c0.007,0.84-1.893,1.441-2.694,0.83c-0.193-0.086-0.311-0.223-0.309-0.41c-1.092-2.271-3.286-5.672-6.035-3.443
	c-2.042,1.654-3.506,4.254-4.217,6.764c-1.729,6.098,0.5,10.877,7.512,8.999c0.424-0.114,1.986-0.11,1.701,0.759
	c-2.111,6.435-4.677,16.889-11.322,20.402c4.426,3.992,13.758,6.357,19.461,4.271c-0.323-0.328-0.649-0.648-0.955-1.005
	c-0.409-0.477,0.7-1.085,1.644-1.236c5.172-9.225,17.704-7.498,25.544-13.326C254.363,154.613,251.003,134.675,250.929,121.565z
	 M236.59,99.776l1.439,0.785c0.204-0.105,0.409-0.213,0.616-0.32C237.954,100.106,237.268,99.954,236.59,99.776z M177.025,137.679
	c0.905-0.86,1.664-2.059,2.297-3.439C178.633,135.442,177.871,136.592,177.025,137.679z M145.667,156.06
	c2.796-2.037,4.816-3.25,4.816-3.25l3.323-2.285c-1.468,0.752-2.902,1.578-4.279,2.529
	C148.179,153.985,146.896,154.994,145.667,156.06z M139.654,233.987c0.054,0,0.107,0.002,0.161,0.002
	c6.604,0.057,13.206,0.271,19.809,0.395c0.627-0.322,1.519-0.542,1.918-0.365c0.329,0.146,0.664,0.281,0.999,0.4
	c0.174,0.003,0.348,0.005,0.522,0.007c0.596-0.888,2.784-1.112,2.774,0.033c0.211,0.001,0.423,0.007,0.634,0.008
	c0.006,0,0.01,0.001,0.016,0.001c0.556-0.371,0.968-1.008,1.155-2.004c0.224-1.161,0.436-2.324,0.637-3.488
	c0.401-2.363,0.782-4.728,1.156-7.094c0.742-4.686,1.507-9.361,2.5-14c0.008-0.037,0.027-0.072,0.044-0.108
	c-1.716-2.011-3.424-4.028-5.11-6.065c-3.49-4.218-6.971-8.478-10.238-12.887c-0.532,0.378-1.047,0.768-1.533,1.176
	c-0.687,0.648-1.456,1.387-2.269,2.183c-9.57,10.491-8.692,28.119-13.014,41.343C139.764,233.68,139.707,233.832,139.654,233.987z
	 M145.88,289.708c0.101-0.133,0.199-0.264,0.301-0.396c0.508-0.66,1.979-0.744,2.48-0.262c1.504-0.465,2.945-1.053,4.179-1.564
	c6.391-2.652,12.453-6.079,18.28-9.797c10.08-6.431,20.95-13.501,29.05-22.416c0.8-0.881,3.319-0.58,2.583,0.586
	c7.642,0.199,15.832-3.421,16.408-12.104c0.529-7.98-5.386-13.289-12.647-15.2c-0.122-0.032-0.217-0.071-0.3-0.113
	c-0.386,0.469-2.248,1.149-2.704,0.724c-0.3-0.279-0.594-0.57-0.891-0.854c-2.905,0.189-5.681,0.979-7.56,3.505
	c-1.399,1.882-2.399,3.985-3.572,6.005c-2.331,4.012-5.193,8.069-9.253,10.493c-8.263,4.935-21.266,6.024-23.424,17.123
	c-0.148,0.763-3.017,1.253-2.866,0.479c0.473-2.431,1.422-4.388,2.697-6.023c-0.218-0.179-0.303-0.453-0.139-0.843
	c3.094-7.35,3.504-14.814,4.248-22.576c-0.763-0.145-1.53-0.357-2.319-0.646c-5.975-0.091-11.947-0.27-17.921-0.372
	c0.127,1.564-0.813,4.145-0.986,4.932c-1.072,4.871-2.177,9.735-3.082,14.641c-1.123,6.09-2.134,12.279-2.286,18.482
	c-0.107,4.367-0.297,10.42,2.642,14.061C140.582,289.782,143.197,290.124,145.88,289.708z M219.383,265.14
	c-0.722-0.809-1.436-1.625-2.166-2.428c-1.151-1.266-2.819-3.521-4.325-5.029c-0.488-0.488-0.958-0.897-1.389-1.17
	c-0.095-0.022-0.181-0.055-0.259-0.098c-0.178,0.064-0.362,0.113-0.542,0.174c-2.961,0.979-6.213,1.328-9.458,1.133
	c-0.063-0.004-0.125-0.011-0.187-0.015c-0.287,0.298-0.582,0.59-0.875,0.884c-8.443,8.484-19.144,15.489-29.182,21.633
	c-6.059,3.707-12.316,7.328-19.028,9.727c-1.361,0.486-2.845,0.994-4.372,1.379c-3.875,5.218-6.52,10.127-6.742,16.625
	c0.368-0.033,0.694,0.012,0.871,0.184c20.935,20.319,51.378,16.537,77.36,10.189c0.095-0.107,0.218-0.204,0.359-0.288
	c-0.021-0.074-0.035-0.153-0.038-0.241c-0.281-10.352-4.673-19.944-5.394-30.225C213.472,279.758,216.078,272.093,219.383,265.14z
	 M263.455,498.507c-0.31,1.156-0.873,2.152-1.418,2.906C263.096,500.626,263.645,499.667,263.455,498.507z M219.18,319.673
	c-0.005-0.013-0.011-0.025-0.016-0.037c-0.141,0.034-0.282,0.068-0.423,0.104c-12.503,3.027-26.064,5.475-39.161,5.09
	c-3.114-0.092-6.202-0.342-9.243-0.785c-10.729-1.564-20.87-5.514-29.521-13.179c-2.713,6.564-3.325,14.099-3.862,21.093
	c-0.661,8.617-0.892,17.254-1.172,25.889c-0.231,7.117-0.269,14.365-1.339,21.42c-0.568,3.746-1.172,6.596-4.285,8.846
	c-11.553,8.352-21.689,19.096-31.738,29.143c-5.076,5.074-10.117,10.188-15.014,15.436c-1.335,1.432-5.975,5.34-6.678,7.373
	c-0.646,8.029,5.408,17.844,13.245,22.604c0.791-0.33,1.894-0.507,2.09-0.062c0.223,0.506,0.466,1,0.704,1.498
	c1.683,0.719,3.415,1.189,5.158,1.355c0.289-0.15,0.603-0.248,0.897-0.24c-0.61-0.016-0.97,0.076-1.128,0.133
	c0.104-0.055,0.284-0.169,0.549-0.394c0.456-0.388,0.904-0.782,1.351-1.181c1.41-1.256,2.807-2.525,4.199-3.802
	c4.204-3.852,8.38-7.733,12.551-11.621c9.886-9.214,19.737-18.468,29.607-27.698c8.118-7.593,17.113-14.611,22.252-24.696
	c8.061-15.82,10.255-33.7,17.173-49.929c-0.275-0.162-0.552-0.304-0.835-0.398c-1.733-0.578,0.472-2.322,1.682-1.918
	c0.178,0.06,0.352,0.137,0.525,0.216c0.992-0.411,2.487-0.214,2.003,0.866c-0.055,0.122-0.102,0.247-0.156,0.369
	c2.418,2.144,4.259,5.827,5.635,8.121c3.717,6.197,7.024,12.65,10.072,19.201c4.529,9.734,10.711,20.682,8.896,31.654
	c-2.402,14.523-4.176,29.168-5.883,43.787c-0.821,7.029-1.624,14.066-2.248,21.117c-0.152,1.713-1.449,8.216-0.636,9.811
	c6.924,7.84,23.746,9.715,31.753,2.087c-0.041-0.171,0.043-0.381,0.329-0.632c-0.407,0.358,0.234-1.85,0.362-2.646
	c0.371-2.307,0.713-4.616,1.049-6.928c0.986-6.798,1.924-13.604,2.852-20.409c2.012-14.759,3.972-29.525,5.92-44.293
	c0.556-4.21,1.699-8.835,1.246-13.095c-0.844-7.939-3.771-15.681-6.684-23.057C234.54,352.865,226.015,336.633,219.18,319.673z
	 M225.591,267.829c1.513-1.016,3.114-1.898,4.619-2.593c-0.116-0.164-0.239-0.476-0.43-0.733c-0.47-0.635-0.948-1.262-1.434-1.884
	c-1.308-1.677-2.637-3.339-3.978-4.989c-1.657-2.039-3.367-4.869-5.449-6.596c-1.375,1.74-3.066,3.109-4.959,4.15
	c0.783,0.58,1.471,1.539,2.083,2.189c1.533,1.631,3.048,3.279,4.548,4.94C221.066,262.842,224.253,265.851,225.591,267.829z
	 M236.115,290.573c2.188-1.729,4.121-3.73,6.082-5.705c0.316-0.318,0.991-0.479,1.584-0.469c2.914-7.294,0.771-18.241-8.103-19.694
	c-0.712-0.116-1.508-0.073-2.346,0.093c0.017,0.156,0.011,0.308-0.059,0.441c-0.347,0.666-1.57,0.936-2.234,0.764
	c-0.014-0.003-0.027-0.006-0.041-0.01c-0.24-0.062-0.386-0.146-0.472-0.242c-1.547,0.725-3.098,1.755-4.443,2.969
	c0.114,0.297,0.139,0.54,0.021,0.688c-0.326,0.409-0.906,0.722-1.482,0.805c-2.498,2.884-3.645,6.352-1.334,9.058
	c0.602-0.014,1.104,0.202,1.043,0.746c-0.389,3.537,0.381,7.588,4.171,8.735c0.633-0.095,1.233,0.045,1.323,0.536
	c0.227,1.243,0.792,3.99,2.662,3.408C233.823,292.281,235.027,291.433,236.115,290.573z M304.798,363.581
	c0.733-0.583,1.478-1.152,2.227-1.717c-3.581-3.274-6.529-8.15-9.476-11.801c-6.981-8.646-13.926-17.322-20.868-26
	c-7.043-8.804-14.077-17.614-21.125-26.414c-2.694-3.363-5.462-8.283-8.848-11.152c-0.036,0.011-0.066,0.026-0.102,0.037
	c-0.609,0.18-1.046,0.082-1.304-0.132c0,0.001,0,0.001-0.001,0.002c-0.313,0.465-1.591,0.644-2.326,0.646
	c-0.462,0.446-0.974,0.928-1.521,1.427c0.156,0.024,0.299,0.063,0.403,0.135c1.194,0.815,2.135,2.349,3.059,3.432
	c2.453,2.878,4.894,5.767,7.331,8.657c7.378,8.749,14.734,17.518,22.078,26.295c7.503,8.969,15,17.942,22.454,26.951
	c2.348,2.838,4.697,5.676,7.017,8.537C304.058,362.806,304.424,363.181,304.798,363.581z M312.984,380.062
	c3.489-1.955,6.411-4.749,9.243-7.578c0.063-0.063,0.152-0.119,0.254-0.172c-2.367-4.552-4.742-9.092-6.868-13.762
	c-1.59,1.076-3.173,2.175-4.737,3.304c0.04,0.375-0.638,0.8-1.37,0.994c-1.125,0.835-2.227,1.697-3.313,2.577
	c0.058,0.123,0.111,0.245,0.145,0.365c0.252,0.899-1.458,1.236-2.003,1.246c-0.003,0-0.007,0-0.011,0
	c-0.022,0-0.037-0.002-0.058-0.002c-1.873,1.617-3.652,3.336-5.312,5.169C303.737,374.638,308.377,377.314,312.984,380.062z
	 M327.281,379.925c-1.611-1.752-2.802-3.77-3.915-5.912c-2.726,2.65-5.583,5.1-8.889,6.938c0.019,0.011,0.037,0.021,0.055,0.032
	c0.596,0.357,0.191,0.835-0.453,1.154c1.422,1.664,2.734,3.424,4.226,5.029C321.691,385.308,324.539,382.651,327.281,379.925z
	 M399.338,483.798c-0.238-0.027-0.401-0.1-0.41-0.232c-0.122-1.783-1.775-3.805-2.688-5.24c-2.282-3.589-4.724-7.076-7.196-10.535
	c-7.543-10.557-15.382-20.902-23.292-31.186c-13.374-17.387-26.545-35.404-41.418-51.569c-0.244,0.191-0.494,0.374-0.741,0.56
	c0.009,0.018,0.023,0.033,0.027,0.055c1.308,7.325,6.61,14.77,10.256,21.069c6.604,11.407,13.667,22.558,21.031,33.489
	c7.61,11.295,15.455,22.521,24.201,32.976c3.035,3.628,6.152,7.274,9.692,10.427c1.439,1.282,3.447,3.284,5.524,3.814
	C395.897,486.09,397.569,484.866,399.338,483.798z M408.961,479.657c-0.011-0.031-0.027-0.058-0.033-0.092
	c-0.217-1.217-0.85-2.448-1.614-3.637c-0.867,0.238-1.867,0.181-1.714-0.379c0.133-0.489,0.287-0.965,0.451-1.436
	c-0.613-0.823-1.225-1.609-1.73-2.322c-3.33-4.696-6.838-9.266-10.388-13.797c-9.651-12.316-19.613-24.391-29.693-36.357
	c-9.258-10.99-18.577-21.947-28.238-32.588c-2.396-2.64-4.777-5.352-7.384-7.793c-0.804,0.777-1.624,1.529-2.459,2.259
	c0.258-0.005,0.472,0.039,0.583,0.159c15.254,16.521,28.742,34.985,42.415,52.803c7.73,10.074,15.421,20.191,22.788,30.536
	c2.465,3.462,4.934,6.935,7.195,10.534c0.851,1.354,2.342,3.196,2.63,4.895C404.072,481.267,406.489,480.331,408.961,479.657z
	 M487.594,477.733c0.061,0.156,0.265,0.223,0.535,0.23c0.888,0.026,2.519-0.606,2.363-1.008c-3.449-8.868-11.58-14.2-20.067-14.009
	c-3.773,0.085-7.618,1.259-11.153,3.704c-1.181,0.816,1.718,0.392,2.21,0.051C471.776,459.581,483.676,467.661,487.594,477.733z
	 M470.844,442.649c0.46,1.071,1.099,1.975,1.855,2.731c1.127,1.128,2.525,1.912,4.051,2.354c1.497,0.434,3.109,0.546,4.693,0.335
	c0.63-0.084,1.255-0.216,1.866-0.4c0.1-0.03,0.19-0.066,0.275-0.104c0.621,0.715,1.356,1.35,2.175,1.892
	c5.276,3.488,13.84,3.2,15.205-2.931c0.15-0.004,0.297-0.003,0.452-0.015c2.613-0.194,5.057-1.344,7.123-2.952
	c0.094-0.073,0.191-0.143,0.284-0.219c0.797-0.647,1.539-1.357,2.201-2.115c2.254-2.582,4.066-6.226,3.327-9.728
	c-0.905-4.287-6.044-5.278-9.707-5.433c-0.125-0.006-0.327,0.036-0.561,0.105c1.117-6.934-7.583-12.367-14.412-11.28
	c-1.984,0.315-3.801,1.187-5.178,2.728c-0.578,0.646-1.086,1.396-1.485,2.289c-0.242,0.542,0.033,0.849,0.49,0.965
	c0.742,0.189,1.964-0.123,2.248-0.758c2.083-4.658,7.397-3.773,11.108-1.645c4.396,2.523,5.767,7.24,2.821,11.438
	c-0.849,1.21,2.104,1.11,2.737,0.207c0.655-0.934,1.095-1.855,1.383-2.759c3.056,0.265,6.309,1.226,7.489,4.34
	c1.025,2.704-0.242,5.791-1.677,8.083c-0.986,1.574-2.49,3.303-4.227,4.415c-0.778,0.498-1.597,0.885-2.446,1.059
	c-0.633,0.13-1.229,0.116-1.79-0.001c0.001-0.028,0.007-0.054,0.008-0.082c0-0.008,0.001-0.014,0.002-0.021
	c0.025-0.592-0.78-0.691-1.546-0.523c-1.765-1.086-3.046-3.207-3.783-5.002c-0.302-0.734-3.135,0.199-2.897,0.777
	c1.109,2.701,2.824,4.841,5.285,5.711c-0.934,7.994-13.932,2.67-13.726-4.297c0.033-1.119-2.863-0.488-2.889,0.395
	c-0.039,1.309,0.253,2.505,0.785,3.577c-3.516,0.889-6.748-0.571-8.562-3.757c-1.927-3.383-0.017-6.709,3.487-7.69
	c0.28-0.079,0.497-0.196,0.667-0.333c0.656,0.137,1.356,0.001,1.941-0.324c0.271-0.15,0.985-0.808,0.293-0.982
	c-1.982-0.5-4.297-1.285-5.237-3.276c-0.708-1.501-0.034-3.138,0.931-4.336c0.675-0.839,1.461-1.436,2.304-1.826
	c1.301-0.603,2.738-0.698,4.127-0.375c1.472,0.343,2.888,1.149,4.022,2.33c0.625,0.651,3.358-0.397,2.706-1.076
	c-1.583-1.649-3.572-2.553-5.657-2.833c-3.124-0.42-6.467,0.574-9.007,2.667c-1.579,1.301-2.825,3.214-2.58,5.329
	c0.094,0.813,0.451,1.495,0.958,2.073c0.309,0.352,0.674,0.664,1.076,0.94c0.368,0.254,0.762,0.48,1.172,0.678
	C471.256,434.726,468.982,438.313,470.844,442.649z M512.654,366.643c-3.96,2.835-8.72,4.89-12.958,7.296
	c-2.55,1.449-5.106,2.877-7.669,4.291c-6.574,3.628-13.197,7.145-19.872,10.6c-0.784,0.406-1.563,0.817-2.349,1.222
	c-2.77,1.425-5.492,3.205-8.719,3.224c-3.418,0.018-5.123-2.472-6.982-5.143c-5.997-8.61-10.051-18.402-15.967-27.075
	c-0.072-0.104-0.08-0.212-0.046-0.317c-0.115-0.041-0.207-0.104-0.263-0.195c-1.713-2.793-4.708-4.221-6.455-6.834
	c-1.491-2.229,1.328-4.295,2.931-5.465c5.192-3.793,11.811-8.7,18.099-10.377c5.599-1.492,9.299,0.712,13.285,4.556
	c8.55-4.91,17.018-9.95,26.005-14.04c1.389-0.632,2.621-0.842,3.734-0.744c0.203,0.018,0.402,0.043,0.596,0.08
	c3.361,0.649,5.577,4.177,7.64,7.297c3.671-2.057,9.319-4.787,12.709-2.797c0.734,0.43,1.36,1.086,1.84,2.014
	c0.205,0.396,0.383,0.842,0.53,1.343c0.072,0.247,0.137,0.505,0.194,0.778c0.745,3.568,0.876,7.465,0.583,11.383
	c-0.123,1.638-0.321,3.277-0.58,4.9c-0.472,2.966-1.146,5.869-1.944,8.572c-0.079,0.432-0.204,0.842-0.375,1.229
	c-0.014,0.044-0.026,0.088-0.04,0.131c-0.02,0.062-0.062,0.12-0.112,0.177c-0.114,0.224-0.238,0.443-0.379,0.654
	C515.265,364.636,514.013,365.671,512.654,366.643z M435.073,349.271c-0.561,0.603-0.984,1.236-1.17,1.903
	c-0.679,2.428,5.556,6.526,6.824,8.593c0.023,0.037,0.015,0.082-0.005,0.128c0.053,0.03,0.099,0.067,0.13,0.113
	c4.318,6.33,7.706,13.157,11.507,19.793c2.021,3.528,4.133,8.43,7.387,10.909c0.078,0.06,0.159,0.099,0.238,0.152
	c2.27-7.94,3.701-16.063,5.435-24.131c1.118-5.203,2.022-10.623,6.293-14.213c3.439-2.891,8.194-4.105,12.168-6.035
	c6.016-2.92,11.569-6.64,17.315-10.037c-1.094-1.797-2.091-3.775-3.579-5.193c-3.611-3.443-9.854,0.818-13.109,2.55
	c-6.397,3.403-12.616,7.124-18.91,10.712c-0.905,0.516-3.009,0.094-2.228-0.695c-1.802-1.781-3.862-3.649-6.175-4.727
	c-4.355-2.025-10.577,2.888-14.174,5.057c-1.513,0.912-4.306,2.197-6.424,3.777C436.024,348.353,435.508,348.802,435.073,349.271z
	 M513.798,362.784c0.124-0.299,0.212-0.614,0.277-0.941c0.037-0.189,0.068-0.383,0.083-0.583c0.037-0.488,0.016-1.004-0.095-1.56
	c-0.065-0.326,0.316-0.629,0.822-0.838c1.539-6.209,2.311-13.027,1.573-19.145c-0.469-3.887-1.607-7.047-4.943-6.783
	c-0.879,0.069-1.902,0.363-3.115,0.959c-1.373,0.674-2.716,1.401-4.042,2.157c0.064,0.094,0.128,0.186,0.192,0.277
	c0.045,0.065,0.09,0.132,0.136,0.195c0.736,1.044-2.063,2.05-2.681,1.174c-0.043-0.062-0.083-0.128-0.126-0.19
	c-2.782,1.674-5.519,3.429-8.314,5.081c-4.115,2.433-8.318,4.572-12.717,6.444c-3.739,1.592-7.723,3.194-9.613,7.084
	c-2.544,5.236-3.221,11.389-4.364,17.041c-1.256,6.213-2.571,12.4-4.385,18.477c0.136,0,0.272-0.009,0.409-0.019
	c0.322-0.022,0.646-0.069,0.973-0.142c2.598-0.578,5.288-2.592,7.432-3.668c7.912-3.972,15.66-8.191,23.357-12.566
	c3.858-2.193,7.711-4.399,11.602-6.534c1.801-0.988,4.056-2.038,5.701-3.485C512.76,364.516,513.412,363.716,513.798,362.784z
	 M388.595,266.89c7.507-16.858,22.512-26.548,39.724-28.083c0.506-0.864,1.15-1.702,1.793-2.548c2.497-3.283,5.225-6.37,7.95-9.459
	c-8.133-0.219-15.967,1.525-23.067,6.035c-1.229,0.779-3.598-0.355-1.944-1.406c8.273-5.254,17.383-7.258,26.907-6.79
	c2.369-2.71,4.697-5.456,6.822-8.371c0.048-0.065,0.127-0.128,0.221-0.188c0.011-0.015,0.015-0.028,0.03-0.044
	c3.955-4.352,9.667-7.158,15.178-3.596c3.106,2.01,7.733,4.996,9.415,8.448c1.693,3.474,0.278,7.032-1.259,10.359
	c-0.022,0.048-0.055,0.095-0.096,0.139c6.094,5.196,12.407,10.214,18.002,15.958c3.594,3.689,2.889,6.434,0.239,10.205
	c-0.589,0.838-3.529,1.018-2.719-0.137c1.565-2.227,3.652-4.938,1.053-7.606c-2.072-2.128-4.188-4.208-6.4-6.19
	c-4.375-3.926-8.905-7.669-13.369-11.491c-0.451-0.386,0.062-0.878,0.775-1.163c2.292-5.299,2.191-9.01-2.652-13.078
	c-1.817-1.527-3.618-3.301-5.717-4.443c-3.847-2.092-7.047-0.65-9.821,2.4c-0.034,0.037-0.081,0.072-0.135,0.107
	c-0.005,0.064-0.028,0.135-0.09,0.22c-2.204,3.023-4.635,5.842-7.099,8.634c0.724,0.065,1.449,0.144,2.176,0.236
	c1.953,0.249,0.496,2.377-0.981,2.188c-1.027-0.131-2.051-0.227-3.071-0.301c-1.507,1.703-3.01,3.411-4.463,5.168
	c-1.25,1.512-3.782,4.025-5.056,6.548c3.204-0.131,6.472,0.01,9.773,0.44c0.749,0.098-1.711,1.19-2.387,1.102
	c-2.671-0.348-5.293-0.48-7.855-0.415c-0.216,0.646-0.332,1.281-0.287,1.891c7.522-0.442,14.92-1.776,22.387-2.722
	c3.954-0.5,7.909-1.095,11.691,0.488c3.564,1.491,5.992,5.234,8.643,7.866c4.042,4.016,8.596,7.382,12.966,11.02
	c2.23,1.857,7.81,5.544,7.539,9.102c-0.207,2.707-2.492,4.245-4.668,5.499c-5.503,3.176-12.706,4.887-19.027,5.166
	c-1.03,0.045-0.832-0.303-0.305-0.641c-4.664,1.053-8.232-2.889-11.922-6.096c-7.062-6.137-14.419-12.033-21.1-18.593
	c-2.627-2.579-7.275-5.403-8.676-8.899c-0.578-1.442-0.444-2.723,0.049-3.93c-16.026,1.338-29.344,10.806-36.311,26.451
	C391.126,267.097,388.4,267.328,388.595,266.89z M430.486,242.782c0.043,0.096,0.071,0.195,0.125,0.289
	c1.657,2.891,4.833,5.035,7.181,7.34c4.895,4.807,10.105,9.283,15.306,13.752c2.845,2.443,5.7,4.877,8.511,7.359
	c1.804,1.594,5.494,5.988,8.273,4.497c0.787-0.423,3.434-0.333,1.725,0.584c-0.167,0.089-0.327,0.15-0.49,0.228
	c4.936-0.242,17.601-1.992,19.189-7.539c1.67-5.831-10.932-12.904-14.516-15.908c-3.224-2.703-6.112-5.634-9-8.684
	c-2.297-2.428-4.809-4.856-8.369-5.033C449.229,239.208,439.747,241.969,430.486,242.782z M536.425,314.294
	c-0.167,0.078-0.335,0.156-0.526,0.268c-0.646,0.377-0.175,0.484,0.507,0.457c0.108-0.004,0.222-0.012,0.337-0.022
	c-0.113,0.024-0.226,0.05-0.339,0.075c-0.185,0.041-0.369,0.082-0.554,0.123c-0.126-0.049-0.351,4.969-0.403,5.788
	c-0.312,4.946-0.715,9.888-1.115,14.827c-0.013,0.162-0.026,0.324-0.039,0.487c-0.061,0.753-0.127,1.505-0.188,2.257
	c-0.324,3.969-0.661,7.937-0.995,11.904c-0.562,6.67-1.121,13.339-1.693,20.008c-0.399,4.646-0.799,9.294-1.194,13.941
	c-1.988,23.356-4.486,46.839-5.802,70.312c-0.205,3.653-0.382,7.306-0.523,10.958c-0.142,3.684-0.251,7.367-0.315,11.049
	c-0.1,5.739-3.594,8.101-9.101,9.184c-1.475,0.29-12.729,1.492-12.033-2.035c0.09-0.457-1-0.438-1.863-0.179
	c-0.321-0.312-0.653-0.618-1.003-0.915c-3.124-2.643-7.141-3.811-11.219-4.254c-2.197-0.238-4.411-0.27-6.514-0.199
	c-1.615,0.053-2.258,2.102-0.28,2.035c5.648-0.188,11.145,0.586,15.767,4.045c0.142,0.105,0.271,0.222,0.407,0.332
	c0.738,0.602,1.402,1.266,1.988,1.988c2.908,3.594,4.042,8.518,4.529,13.006c0.138,1.272,3.044,0.572,2.897-0.777
	c-0.44-4.053-1.42-7.871-3.38-11.191c-0.079-0.133-0.158-0.266-0.24-0.396c0.561,0.083,1.146,0.142,1.733,0.179
	c2.399,0.152,4.828-0.027,5.681-0.095c5.198-0.413,12.012-2.006,14.847-6.859c1.953-3.344,0.836-10.233,1.021-14
	c0.335-6.82,0.798-13.637,1.28-20.449c2.437-34.473,5.619-68.892,8.49-103.33c0.64-7.677,1.297-15.355,1.782-23.043
	C538.504,317.698,539.729,312.77,536.425,314.294z" fill="#0984E3"></path>
</svg>