<?xml version="1.0" standalone="no"?>
<svg version="1.1" id="Layer_1" xmlns="http://www.w3.org/2000/svg" xmlns:xlink="http://www.w3.org/1999/xlink" x="0px" y="0px" width="595.28px" height="595.28px" viewBox="0 0 595.28 595.28" enable-background="new 0 0 595.28 595.28" xml:space="preserve">
<path id="color_x5F_2" fill="#fbc02d" d="M134.729,273.171c-2.376,0.229-4.747,0.519-7.145,0.644
	c0.037-0.148,0.115-0.274,0.244-0.371C128.449,272.979,131.173,272.962,134.729,273.171z M151.341,325.215
	c0.062,0.178-0.045,0.357-0.24,0.521c1.851,2.387,3.729,4.752,5.664,7.072c0.193-0.221,0.384-0.443,0.581-0.662l-0.102-0.711
	c-0.325-0.044-0.554-0.176-0.554-0.424c0-18.27,0-36.539,0-54.81c-4.752-0.142-9.454-0.887-14.172-1.419
	c-4.41-0.496-8.677,0.099-12.985,0.473C144.222,287.83,145.394,307.955,151.341,325.215z M191.572,311.744
	c-2.118-1.82-3.158-2.478-5.498-0.939c-5.534,3.637-10.696,7.893-15.722,12.192c-4.193,3.586-8.736,7.214-12.201,11.546
	c0.069,0.231-0.092,0.466-0.368,0.667c-0.667,0.484-2.005,0.764-2.425,0.276c-1.567-1.819-3.063-3.691-4.543-5.576
	c-2.178-2.774-4.313-5.58-6.517-8.339l-19.696-20.696l-1.289-2.32c-4.17-3.771-8.868-6.533-13.371-5.008
	c-1.289,0.437-3.059-0.492-1.133-1.145c3.725-1.262,7.209-0.733,10.421,0.755c-1.255-2.384-2.529-5.387-4.966-6.419
	c-0.173-0.073-0.295-0.158-0.391-0.248c-6.189-0.48-12.395-0.677-18.61-0.694c-0.321-0.001-0.568-0.063-0.761-0.159
	c-13.456,16.421-9.299,41.337-9.092,61.121c0.21,20.074,0.82,40.146,0.84,60.221c0,0.541-1.072,0.916-1.913,1.002l-0.073,1.002
	h45.717v-0.113c-0.51-0.051-0.919-0.301-0.922-0.82c-0.058-8.887-0.997-17.769-1.433-26.642c-0.363-7.412-1.105-15.292,0.36-22.627
	c-0.326-0.344-0.649-0.681-0.968-1.003c-4.424-4.477-9.309-7.555-14.425-11.101c-3.705-2.568-7.622-5.426-8.971-9.929
	c-0.271-0.904,2.619-1.709,2.898-0.777c2.519,8.413,13.486,11.655,19.485,17.133c1.567,1.432,3.11,3.044,4.659,4.727
	c0.093,0.061,0.167,0.136,0.211,0.23c5.806,6.333,11.717,13.651,19.386,16.63c11.53,4.478,26.187-8.336,34.384-15.6
	c8.36-7.407,15.803-15.698,23.068-24.16c0.039-0.046,0.092-0.089,0.151-0.13c-2.946-5.141-6.012-10.249-9.499-15.044
	C196.333,316.957,194.215,314.014,191.572,311.744z M160.101,377.248c1.232,0,3.923-1.459,7.132-3.536
	c-3.345,1.723-6.819,2.992-10.345,3.46C157.982,377.218,159.086,377.248,160.101,377.248z M517.085,317.725
	c-1.176,2.018-2.38,4.02-3.606,6.007c0.028,0.1,0.045,0.208,0.035,0.333c-0.006,0.078-0.016,0.154-0.022,0.231
	C514.217,323.044,515.567,320.657,517.085,317.725z M472.038,363.079c4.796-1.337,8.828-4.106,12.472-7.439
	c9.626-8.805,18.003-19.029,24.896-30.099c5.631-9.043,13.668-19.764,13.361-30.867c-10.361,2.201-21.213-1.665-27.904-10.064
	c-2.15,3.655-5.035,6.893-9.208,8.188c-0.373,0.116-1.365,0.327-1.595-0.153c-1.214-2.547,0.245-5.265,1.133-7.774
	c-0.026-0.033-0.047-0.069-0.057-0.112c-0.874-3.981-2.586-7.128-4.967-9.75c-3.333,2.236-8.483,4.28-13.679,5.115
	c-2.872,0.822-5.501,0.677-7.618,0.21c-1.776-0.236-3.438-0.706-4.889-1.469c0,7.011,0,14.022,0,21.034
	c2.318-2.48,5.497-4.474,8.003-6.052c1.077-0.678,3.533,0.075,1.869,1.123c-3.488,2.196-8.873,5.376-9.872,9.692
	c0,9.242,0,18.483,0,27.725c0,0.267-0.167,0.499-0.418,0.688c1.188,0.599,2.403,1.115,3.639,1.386
	c3.84,0.84,6.291-2.595,8.306-5.321c8.692-11.761,19.277-21.947,27.969-33.707c0.584-0.79,3.517-0.993,2.709,0.1
	c-5.493,7.433-11.73,14.216-17.792,21.177c-3.547,4.074-6.882,8.256-10.177,12.53c-1.552,2.012-3.234,4.395-5.48,5.698
	c-3.465,2.012-6.89,1.668-10.446-0.025c-8.057-3.837-14.897-9.6-22.682-13.903c-0.089,0.286-0.35,0.537-0.684,0.717
	c-1.996,2.575-4.039,5.115-6.023,7.693l-8.532,12.801c-0.179,0.337-0.35,0.681-0.522,1.023c0.578-0.29,1.312-0.427,1.784-0.186
	c11.937,6.098,23.913,12.837,36.524,17.492C458.245,362.797,465.546,364.889,472.038,363.079z M486.789,291.073
	c-0.038-0.002-0.077-0.008-0.116-0.011c0.007,0.023,0.013,0.047,0.02,0.07C486.726,291.114,486.757,291.092,486.789,291.073z
	 M506.934,367.956c-2.641-13.206,1.365-25.83,3.106-38.811c-0.209,0.319-0.41,0.644-0.621,0.961
	c-7.086,10.688-15.802,21.769-26.16,29.492c-8.891,6.629-18.983,7.572-29.467,4.057c-2.334-0.782-4.645-1.649-6.936-2.57
	c0.604,7.809-2.225,14.64-5.409,21.671c-4.288,9.467-7.185,18.797-7.376,29.273h86.349c-0.068-0.096-0.122-0.206-0.144-0.342
	C517.882,396.494,509.94,382.992,506.934,367.956z"></path>
<path id="color_x5F_1" d="M117.995,233.063c1.442,2.853,4.677,4.735,5.822,7.686c1.109,2.858-2.065,4.434-4.207,5.426
	c-1.243,0.576-2.948-0.207-1.109-1.059c3.25-1.506,3.053-3.29,0.898-5.69c-1.585-1.767-3.221-3.448-4.303-5.585
	C114.719,233.092,117.524,232.133,117.995,233.063z M99.287,240.716c1.117,0.766,2.066,1.728,3.021,2.682
	c0.516,0.516,1.332,0.473,1.958,0.179c0.421-0.197,1.221-0.909,0.702-1.427c-1.081-1.081-2.168-2.186-3.433-3.053
	c-0.594-0.407-1.531-0.197-2.073,0.194C98.978,239.641,98.698,240.313,99.287,240.716z M113.881,229.278
	c0.997,0.347,1.806,1.037,2.401,1.895c0.616,0.886,3.416-0.119,2.68-1.178c-0.818-1.177-1.998-1.941-3.337-2.406
	c-0.644-0.224-1.579,0.093-2.05,0.549C113.091,228.607,113.305,229.078,113.881,229.278z M96.926,232.242
	c0.494-0.092,1.454-0.289,1.689-0.824c0.226-0.512-1.001-0.372-1.176-0.34c-2.675,0.497-5.103,1.925-5.633,4.768
	c-0.142,0.762,2.726,0.266,2.865-0.484C94.894,234.172,95.566,232.494,96.926,232.242z M111.54,224.098
	c-0.35-0.943-0.228-2.123,0.88-2.329c0.568-0.106,1.492-0.347,1.634-1.03c0.135-0.648-0.847-0.781-1.272-0.702
	c-2.356,0.438-5.183,2.016-4.14,4.839C109.046,225.969,111.92,225.127,111.54,224.098z M104.088,255.9
	c2.313,2.172,5.74,2.512,8.346,0.601c1.585-1.162-0.88-1.605-1.814-0.92c-1.33,0.976-2.765,0.181-3.846-0.833
	C106.002,254.023,103.27,255.133,104.088,255.9z M290.823,252.426c0,1.026-2.561,1.561-2.867,0.914
	c-0.543,0.156-1.096,0.202-1.373-0.002c-6.322-4.659-13.872-3.088-18.435,3.248c-2.706,3.758-5.165,9.105-4.068,13.865
	c2.037,8.842,13.253,15.272,21.325,9.715c0.049-1.187,2.922-1.666,2.922-0.229c0,18.406,0,36.812,0,55.217
	c0,0.197-0.084,0.373-0.215,0.527c1.4,0.142-0.627,1.369-1.487,1.369c-26.022,0-52.045,0-78.067,0
	c-7.837,9.076-15.955,18.065-25.341,25.559c-4.628,3.695-10.104,8.074-15.984,11.103c-3.345,1.723-6.819,2.992-10.345,3.46
	c-1.109,0.147-2.222,0.234-3.338,0.209c-1.002-0.023-1.983-0.15-2.947-0.363c-0.188,10.258,1.993,20.938,3.418,31.037
	c0.174,1.232-2.735,1.93-2.898,0.777c-1.504-10.663-3.808-21.927-3.407-32.725c-6.657-2.716-12.379-9.267-17.286-14.682
	c-0.302,2.353-0.43,4.751-0.447,7.164v1.438c0.046,4.893,0.481,9.821,0.757,14.527c0.453,7.724,1.189,15.467,1.239,23.208
	c0.005,0.713-1.139,1.191-1.996,1.105c-0.51-0.051-0.919-0.301-0.922-0.82c-0.058-8.887-0.997-17.769-1.433-26.642
	c-0.363-7.412-1.105-15.292,0.36-22.627c-0.326-0.344-0.649-0.681-0.968-1.003c-4.424-4.477-9.309-7.555-14.425-11.101
	c-3.705-2.568-7.622-5.426-8.971-9.929c-0.271-0.904,2.619-1.709,2.898-0.777c2.519,8.413,13.486,11.655,19.485,17.133
	c1.567,1.432,3.11,3.044,4.659,4.727c0.093,0.061,0.167,0.136,0.211,0.23c5.806,6.333,11.717,13.651,19.386,16.63
	c11.53,4.478,26.187-8.336,34.384-15.6c8.36-7.407,15.803-15.698,23.068-24.16c0.039-0.046,0.092-0.089,0.151-0.13
	c-2.946-5.141-6.012-10.249-9.499-15.044c-2.035-2.8-4.153-5.743-6.796-8.013c-2.118-1.82-3.158-2.478-5.498-0.939
	c-5.534,3.637-10.696,7.893-15.722,12.192c-4.193,3.586-8.736,7.214-12.201,11.546c0.069,0.231-0.092,0.466-0.368,0.667
	c-0.667,0.484-2.005,0.764-2.425,0.276c-1.567-1.819-3.063-3.691-4.543-5.576c-2.178-2.774-4.313-5.58-6.517-8.339
	c-0.079-0.099-0.155-0.199-0.234-0.298c-3.449-4.301-7.334-8.095-11.03-12.162c-2.383-2.623-5.821-7.03-9.721-10.557
	c-4.17-3.771-8.868-6.533-13.371-5.008c-1.289,0.437-3.059-0.492-1.133-1.145c3.725-1.262,7.209-0.733,10.421,0.755
	c-1.255-2.384-2.529-5.387-4.966-6.419c-0.173-0.073-0.295-0.158-0.391-0.248c-6.189-0.48-12.395-0.677-18.61-0.694
	c-0.321-0.001-0.568-0.063-0.761-0.159c-13.456,16.421-9.299,41.337-9.092,61.121c0.21,20.074,0.82,40.146,0.84,60.221
	c0,0.541-1.072,0.916-1.913,1.002c-0.54,0.056-0.985-0.007-0.985-0.225c-0.02-20.883-0.711-41.76-0.86-62.641
	c-0.145-20.078-4.136-44.558,10.593-60.717c-0.298-1.542-0.555-3.085-0.578-4.662c-0.002-0.167,0.121-0.316,0.313-0.447
	c-0.208-3.838-1.283-7.598-2.884-11.086c-2.666,1.721-6.443,3.68-9.612,2.667c-2.026-0.647-2.675-2.816-2.557-4.757
	c-6.524-7.434-19.351-8.303-24.201-17.252c-3.767-6.949-2.475-13.557,5.741-15.537c0.229-0.055,0.434-0.072,0.616-0.063
	c-0.249-0.165-0.418-0.42-0.428-0.786c-0.147-5.73,1.53-10.617,6.146-14.213c4.691-3.654,9.995-6.143,13.002-11.485
	c2.249-3.997,5.888-12.72,11.058-15.587c0.882-0.688,1.779-1.17,2.651-1.363c0.396-0.087,0.771-0.096,1.131-0.067
	c1.031-0.697,1.358-0.415,1.275,0.393c0.138,0.08,0.278,0.155,0.403,0.26c0.1,0.083,0.18,0.178,0.257,0.274
	c0.146,0.053,0.291,0.099,0.439,0.162c0.546,0.234,0.728,0.646,0.565,1.203c-0.699,2.396-1.678,4.522-2.993,6.545
	c2.251-0.457,6.601-1.351,10.695-2.244c3.02-0.924,6.048-1.836,9.206-2.17c2.68-0.586,4.629-0.602,6.076,0.406
	c5.312,2.359,0.838,8.82-2.534,12.28c-1.765,1.812-3.855,3.188-6.13,4.222c0.042,0.021,0.085,0.043,0.121,0.071
	c6.138,4.907,10.893,11.382,14.874,18.108c3.113,5.26,7.835,12.158,7.868,18.494c0.034,6.311-5.186,11.151-9.33,15.335
	c-1.285,1.298-5.104,3.706-4.53,5.591c0.452,1.487,1.167,2.807,1.924,4.1c0.156-0.015,0.3-0.008,0.419,0.025
	c0.913,0.258,1.764,0.616,2.559,1.056c0.985,0.026,1.962-0.005,2.936-0.056c2.397-0.125,4.769-0.414,7.145-0.644
	c2.592-0.249,5.193-0.413,7.853-0.146c4.706,0.475,9.383,1.262,14.108,1.498c0-25.873,0-51.746,0-77.619
	c-0.68-0.543-0.018-1.747,1.233-1.747c2.782,0,5.565,0,8.348,0c-2.153-2.59-2.57-7.646,0.324-9.313
	c3.55-2.045,6.755,0.297,8.776,3.349c0.008-0.016,0.01-0.029,0.018-0.046c1.373-2.683,4.447-5.932,7.342-3.715
	c1.11-2.006,2.9-3.826,5.268-2.517c0.424,0.234,0.782,0.57,1.113,0.945c1.103-0.997,2.391-1.727,3.94-2.167
	c0.454-0.129,1.226-0.182,1.563,0.244c0.796,1.006,1.456,2.115,1.974,3.291c2.066-0.962,4.466-0.896,6.152,1.082
	c1.939,2.273,3.026,5.556,2,8.468c-0.016,0.046-0.037,0.092-0.054,0.138c28.411,0,56.821,0,85.232,0
	c0.782,0,0.948,0.283,0.796,0.623c0.066,0.062,0.107,0.138,0.107,0.234C290.823,214.658,290.823,233.542,290.823,252.426z
	 M114.867,195.047c0.095-0.004,0.188-0.006,0.283-0.009c0.019-0.058,0.056-0.117,0.108-0.179c-0.025,0.004-0.048,0.005-0.074,0.008
	C115.085,194.93,114.979,194.99,114.867,195.047z M128.455,284.535c-1.386-0.958-2.888-1.729-4.32-2.594
	c0.346,1.707,0.61,3.418,0.695,5.197c0.021,0.43-0.261,0.764-0.657,0.971c0.036,0.057,0.067,0.115,0.088,0.184
	c0.479,1.58,2.587,5.993,4.83,3.8c2.084-2.037,1.77-5.13,0.459-7.497C129.107,284.691,128.689,284.697,128.455,284.535z
	 M123.481,275.969c0.372,0.727,0.709,1.476,0.967,2.273c0.093,0.289-0.016,0.555-0.235,0.775c1.228,1.08,2.636,1.896,4.056,2.705
	C127.067,279.533,125.494,277.421,123.481,275.969z M95.686,277.896c8.458,0.082,16.906,0.529,25.358,0.038
	c-1.7-3.075-6.339-8.794-3.813-11.358c4.175-4.236,10.438-8.251,12.672-14.074c2.77-7.216-3.203-16.078-6.833-22.02
	c-3.983-6.52-8.452-12.957-14.47-17.769c-0.272-0.218-0.348-0.449-0.303-0.671c-0.741,0.248-1.492,0.471-2.256,0.661
	c-2.553,0.888-4.779,1.3-6.493,1.478c0.155,0.175,0.282,0.381,0.377,0.624l0.31,0.124l-0.195,0.325
	c0.008,0.043,0.005,0.087,0.01,0.131c2.824,1.304-1.042,4.217-4.25,6.733c-3.937,3.98-8.885,7.098-13.998,9.464l0.4,0.2
	c0.087,0.022,0.163,0.055,0.213,0.106l0.252,0.126l0.074,0.149c0.01,0.021,0.049,0.1,0.101,0.211
	c6.954,7.675,5.419,17.399,3.601,26.876c0.346,0.16,0.683,0.351,0.992,0.605c0.398,0.327-2.138,1.463-2.734,0.973
	c-0.359-0.295-0.745-0.576-1.18-0.751c-0.095-0.038-0.323-0.075-0.476-0.11c-0.021,0.018-0.042,0.032-0.065,0.053
	c-0.253,0.22-0.492,0.454-0.691,0.725c-0.932,1.266-1.492,2.854-1.6,4.432c0.086,0.104,0.179,0.2,0.263,0.306
	c0.295,0.37,0.116,0.745-0.261,1.031c0.121,1.22,0.553,2.479,1.666,3.081c1.97,1.063,4.26-0.698,5.835-1.746
	c0.389-0.258,0.905-0.423,1.407-0.499c0.023-0.815,2.479-1.53,2.938-0.581C94.216,270.254,95.382,274.032,95.686,277.896z
	 M121.659,285.016c-0.229-1.638-0.59-3.234-0.992-4.858c-8.399,0.476-16.794,0.036-25.199-0.046
	c0.094,1.176,0.288,2.336,0.513,3.495c0.031,0.017,0.056,0.034,0.073,0.055C104.611,283.698,113.153,284.044,121.659,285.016z
	 M140.127,312.469c-2.37-6.672-6.368-12.719-9.185-19.22c-0.217,0.162-0.449,0.314-0.698,0.456
	c-1.575,0.896-3.504,1.172-5.191,0.418c-2.037-0.911-3.073-3.023-3.69-5.053c-0.145-0.475,0.236-0.885,0.765-1.131
	c-0.136-0.154-0.228-0.352-0.24-0.605c-0.002-0.045-0.01-0.088-0.012-0.133c-0.148,0.026-0.3,0.037-0.45,0.02
	c-0.901-0.107-1.804-0.203-2.706-0.296c1.579,1.773,2.584,4.122,3.819,6.144c0.376,0.615-0.115,1.183-0.785,1.473
	c3.868,2.457,7.287,6.1,10.19,9.274C134.616,306.738,137.416,309.567,140.127,312.469z M146.56,319.941
	c-3.963-13.892-6.278-28.82-15.805-39.731c0.446,0.76,0.854,1.542,1.225,2.335c0.064,0.139,0.043,0.277-0.03,0.41
	c0.028,0.032,0.061,0.062,0.083,0.099c1.518,2.489,1.955,5.706,0.652,8.161c0.396,0.078,0.738,0.284,0.898,0.666
	c3.435,8.186,8.875,15.592,10.758,24.381c0.062,0.287-0.007,0.545-0.152,0.766c0.174,0.207,0.358,0.402,0.529,0.61
	C145.342,318.397,145.947,319.173,146.56,319.941z M158.052,331.392c-0.291,0.058-0.573,0.074-0.808,0.044
	c-0.325-0.044-0.554-0.176-0.554-0.424c0-18.27,0-36.539,0-54.81c-4.752-0.142-9.454-0.887-14.172-1.419
	c-4.41-0.496-8.677,0.099-12.985,0.473c14.688,12.574,15.86,32.699,21.808,49.959c0.062,0.178-0.045,0.357-0.24,0.521
	c1.851,2.387,3.729,4.752,5.664,7.072c0.193-0.221,0.384-0.443,0.581-0.662C157.576,331.891,157.816,331.643,158.052,331.392z
	 M197.22,186.918c0.877,2.82,0.978,5.888,0.21,8.732c0.269,0.075,0.469,0.227,0.524,0.48c0.186,0.854,0.38,1.976,1.09,2.575
	c0.154,0.131,0.171,0.209,0.166,0.242c0.012-0.02,0.042-0.052,0.109-0.1c0.192-0.126,0.369-0.271,0.529-0.436
	c1.073-1.105,1.899-2.585,2.206-4.103C202.517,192.028,200.394,184.502,197.22,186.918z M190.301,185.762
	c0.662,1.478,1.04,3.165,1.29,4.453c0.308,1.586,0.626,3.507,0.582,5.35c0.283,0.039,0.521,0.148,0.649,0.357
	c0.254,0.465,0.548,0.901,0.884,1.311c0.104,0.058,0.195,0.112,0.273,0.163c0.211-0.384,0.374-0.803,0.484-1.204
	c0.299-1.085,0.543-2.21,0.572-3.34c0.079-3.179-0.797-6.422-2.61-9.04C191.562,184.274,190.901,184.946,190.301,185.762z
	 M184.62,187.738c1.677,2.855,2.109,6.557,1.73,9.716c-0.021,0.168-0.047,0.335-0.073,0.503c0.22,0.026,0.425,0.096,0.587,0.23
	c0.432,0.357,0.902,0.771,1.441,0.957c0.066,0.022,0.107,0.028,0.15,0.036c0.119-0.241,0.42-0.976,0.489-1.347
	c0.423-2.248,0.206-4.617-0.252-6.843c-0.275-1.337-0.61-2.854-1.222-4.179c-0.288-0.105-0.437-0.303-0.31-0.607
	c-0.217-0.385-0.456-0.75-0.739-1.075c-0.101-0.115-0.21-0.229-0.323-0.32c-0.706,0.838-1.106,1.897-1.474,2.918
	C184.624,187.731,184.622,187.734,184.62,187.738z M176.066,190.343c0.148,0.273,0.286,0.549,0.414,0.824
	c0.705-0.166,1.504-0.009,1.753,0.661c0.825,2.22,0.579,4.673,1.303,6.917c0.296,0.919,2.306,3.944,3.204,1.831
	c0.401-0.944,0.554-1.925,0.665-2.938c0.265-2.42,0.089-4.758-0.78-7.06c-0.415-1.098-0.956-2.564-1.958-3.285
	c-1.178-0.848-2.054,1.408-2.488,2.256C177.838,190.215,176.807,190.482,176.066,190.343z M170.403,195.084
	c0.055,0.02,0.09,0.048,0.129,0.073c1.795,0,3.589,0,5.384,0c-0.051-0.351-0.106-0.697-0.173-1.034
	c-0.662,0.131-1.333,0.036-1.482-0.443c-0.393-1.263-4.91-9.144-6.344-6.32C166.805,189.55,167.901,194.172,170.403,195.084z
	 M208.6,330.277c5.439-3.525,10.194-9.094,14.112-14.017c2.437-3.061,9.46-10.909,7.713-15.679c-2.033,2.913-4.469,5.676-5.6,7.906
	c-0.366,0.723-3.051,0.908-2.855,0.523c2.35-4.635,11.046-12.18,8.305-17.935c-2.591,5.754-6.938,10.829-11.44,15.083
	c-0.738,0.697-3.598,0.627-2.346-0.555c4.526-4.275,8.027-9.007,10.932-14.484c0.622-1.176,3.01-7.25,0.492-6.998
	c-1.577,6.423-10.848,13.791-13.534,17.591c-0.677,0.956-3.637,0.981-2.754-0.268c2.996-4.235,16.038-14.499,13.117-20.621
	c-7.644,3.968-12.695,12.278-18.534,18.358c-0.004,0.012-0.009,0.026-0.013,0.037c-0.327,0.88-3.191,1.24-2.883,0.414
	c0.01-0.025,0.019-0.055,0.027-0.08c-0.166-0.208-0.146-0.497,0.214-0.867c0.043-0.044,0.085-0.091,0.128-0.135
	c1.554-4.916,2.211-12.275,0.521-16.842c-0.704-1.901-0.878-1.063-1.828,0.338c-1.949,2.874-2.445,6.288-2.832,9.662
	c-0.763,6.674-2.347,12.976-4.463,19.344c-0.013,0.038-0.036,0.074-0.059,0.111c1.268,1.254,2.381,2.654,3.28,3.787
	C202.129,319.779,205.465,324.975,208.6,330.277z M287.925,196.689c-28.01,0-56.018,0-84.027,0
	c-0.871,1.624-2.127,3.079-3.873,3.691c-2.113,0.74-3.505-0.076-4.319-1.621c-1.21,0.997-2.777,0.967-4.122-0.036
	c-0.07,0.175-0.127,0.358-0.213,0.524c-1.272,2.463-3.773,2.455-5.815,1.264c-0.954,2.17-2.741,3.621-5.7,2.633
	c-2.735-0.913-3.316-3.392-3.672-5.978c-5.531,0-11.063,0-16.594,0c0,44.211,0,88.421,0,132.632
	c3.735-3.724,7.944-7.084,11.943-10.36c4.609-3.777,9.72-8.888,15.334-11.136c2.146-0.859,4.189-0.201,6.02,1.063
	c1.335-4.129,2.54-8.295,3.18-12.603c0.69-4.649,0.803-9.345,2.943-13.622c1.044-2.086,3.655-4.917,6.323-4.234
	c3.653,0.936,3.06,9.701,2.005,15.58c5.186-6.077,10.228-12.785,17.588-15.932c0.57-0.244,1.505-0.397,1.956,0.172
	c0.905,1.143,1.278,2.386,1.263,3.688c3.01-0.423,4.62,1.461,3.385,5.4c-0.063,0.199-0.135,0.395-0.202,0.592
	c0.273-0.018,0.499,0.017,0.61,0.136c2.719,2.908,1.925,6.296,0.033,9.625c0.283,0.03,0.524,0.128,0.657,0.318
	c3.644,5.244-4.192,14.225-7.198,17.904c-4.5,5.511-9.682,11.73-15.92,15.433c0.418,0.717,0.834,1.436,1.246,2.156
	c0.279,0.488-0.072,0.941-0.607,1.229c-0.131,0.153-0.265,0.307-0.396,0.46c25.229,0,50.457,0,75.687,0
	c-0.022-0.078-0.036-0.162-0.036-0.256c0-17.896,0-35.789,0-53.684c-10.189,4.848-24.941-1.102-24.369-13.824
	c0.592-13.126,15.392-23.375,26.893-16.516C287.925,233.155,287.925,214.922,287.925,196.689z M479.649,255.138
	c2.838,0.363,6.424-0.909,7.644-3.671c0.192-0.438-1.005-0.23-1.14-0.205c-0.426,0.081-1.501,0.275-1.71,0.748
	c-0.413,0.936-1.256,2.213-2.396,2.067c-0.668-0.086-1.415,0.124-2.02,0.392C479.854,254.547,478.99,255.054,479.649,255.138z
	 M467.152,248.016c-0.398-0.262-2.563-1.447-1.752-2.146c0.967-0.832,1.899-1.697,2.79-2.609c1.497-1.532,2.77-3.312,3.33-5.398
	c0.17-0.634-2.662-0.232-2.859,0.504c-0.924,3.441-3.732,5.857-6.337,8.098c-0.097,0.072-0.143,0.168-0.136,0.285
	c0.474,1.095,1.256,1.617,2.235,2.26C465.118,249.465,467.571,248.291,467.152,248.016z M468.313,235.574
	c0.021-0.97,0.389-1.833,0.696-2.739c0.166-0.49-0.969-0.307-1.157-0.272c-0.416,0.074-1.531,0.289-1.7,0.786
	c-0.337,0.994-0.714,1.938-0.737,3.003C465.405,236.795,468.295,236.41,468.313,235.574z M483.575,243.662
	c0.651,0.187,1.594-0.021,2.049-0.549c0.483-0.562,0.626-1.191,0.627-1.915c0.001-0.691-0.72-0.854-1.299-0.798
	c-0.5,0.05-1.618,0.412-1.619,1.085c0,0.177-0.006,0.353-0.021,0.53c-0.011,0.125-0.035,0.247-0.063,0.369
	c0.011-0.049-0.122,0.186-0.005,0.049C482.832,242.914,482.925,243.477,483.575,243.662z M486.043,232.869
	c1.427-0.248,2.753-0.027,4.058,0.594c0.635,0.303,1.488,0.109,2.057-0.253c0.396-0.25,0.873-0.896,0.236-1.2
	c-1.875-0.894-3.93-1.199-5.981-0.844c-0.563,0.098-1.491,0.348-1.637,1.02C484.635,232.834,485.63,232.94,486.043,232.869z
	 M541.465,278.104c-2.31,6.26-6.528,11.705-12.688,14.566c-1.044,0.485-2.104,0.893-3.175,1.241c0.055,0.111,0.095,0.235,0.1,0.384
	c0.221,6.396-2.396,12.397-5.455,17.891c-1.033,1.856-2.092,3.701-3.162,5.539c-1.176,2.018-2.38,4.02-3.606,6.007
	c0.028,0.1,0.045,0.208,0.035,0.333c-0.006,0.078-0.016,0.154-0.022,0.231c-1.246,15.181-6.697,29.353-3.225,44.663
	c3.25,14.334,10.609,27.367,12.908,41.951c0.201,1.275-2.131,1.993-2.755,1.119c-0.068-0.096-0.122-0.206-0.144-0.342
	c-2.395-15.193-10.336-28.695-13.343-43.731c-2.641-13.206,1.365-25.83,3.106-38.811c-0.209,0.319-0.41,0.644-0.621,0.961
	c-7.086,10.688-15.802,21.769-26.16,29.492c-8.891,6.629-18.983,7.572-29.467,4.057c-2.334-0.782-4.645-1.649-6.936-2.57
	c0.604,7.809-2.225,14.64-5.409,21.671c-4.288,9.467-7.185,18.797-7.376,29.273c-0.002,0.109-0.008,0.218-0.01,0.328
	c-0.011,0.841-2.904,1.242-2.898,0.777c0.132-10.249,2.76-19.567,6.966-28.854c3.391-7.484,6.652-14.727,5.772-23.15
	c-0.034-0.333,0.486-0.626,1.096-0.808c-10.824-4.521-21.235-10.309-31.601-15.604c-0.173-0.088-0.284-0.188-0.35-0.294
	c-0.89,0.537-2.775,0.633-2.483,0.029c0.48-0.996,0.995-1.969,1.527-2.929c-0.045-0.015-0.092-0.027-0.134-0.048
	c-3.381-1.688-6.471-3.443-9.341-5.383c-0.373,0.249-0.822,0.434-1.198,0.434c-28.805,0-57.609,0-86.414,0
	c-1.474,0-0.776-1.001,0.157-1.499c0-17.768,0-35.535,0-53.302c-10.189,4.847-24.942-1.102-24.367-13.824
	c0.594-13.127,15.39-23.377,26.893-16.515c0-18.28,0-36.56,0-54.839c0-0.087,0.023-0.168,0.058-0.248
	c-0.042-0.521,1.12-1.387,1.938-1.387c28.446,0,56.892,0,85.338,0c1.962,0,0.077,1.773-1.092,1.773c-27.781,0-55.562,0-83.343,0
	c0,18.579,0,37.158,0,55.736c0,1.026-2.562,1.561-2.867,0.914c-0.543,0.156-1.098,0.203-1.375-0.002
	c-6.322-4.659-13.872-3.088-18.434,3.248c-2.705,3.758-5.164,9.105-4.068,13.865c2.037,8.843,13.252,15.272,21.324,9.715
	c0.049-1.187,2.922-1.666,2.922-0.229c0,18.273,0,36.546,0,54.818c27.538,0,55.076,0,82.615,0
	c-4.368-3.199-8.221-6.936-11.811-11.703c-2.727-3.62-9.228-11.781-2.978-15.119c0.078-0.042,0.157-0.074,0.235-0.104
	c-0.235-0.859-0.43-1.69-0.57-2.467c-0.545-2.997,0.532-5.323,2.739-5.723c-0.188-1.903-0.103-3.842,0.358-5.793
	c0.214-0.907,1.563-1.158,2.324-1.01c0.383,0.074,0.723,0.164,1.038,0.269c-0.036-1.646,0.585-2.981,2.185-3.773
	c4.598-2.276,7.787,2.648,10.197,5.883c2.775,3.726,5.392,7.613,7.798,11.606c-1.461-5.426-3.058-13.72,1.142-14.464
	c3.539-0.627,6.649,5.358,8.27,7.542c1.978,2.667,4.105,5.716,4.734,9.057c0.646,3.432,0.591,6.897,2.215,9.949
	c0.908-0.479,2.947-0.602,2.33,0.224c-0.09,0.12-0.182,0.239-0.272,0.359c0.446-0.115,0.891-0.134,1.161,0.015
	c6.223,3.426,11.679,8.128,17.928,11.475c0.445,0.238,0.9,0.494,1.359,0.752c0-8.802,0-17.604,0-26.406
	c-0.043-0.104-0.057-0.229-0.022-0.377c0.006-0.026,0.017-0.051,0.022-0.077c0-22.702,0-45.405,0-68.108
	c-0.005-0.018-0.015-0.033-0.014-0.053c0.003-0.051,0.01-0.101,0.014-0.151c0-13.13,0-26.261,0-39.391c-5.547,0-11.093,0-16.64,0
	c-0.352,2.517-0.975,4.951-3.497,5.793c-3.328,1.11-5.119-0.205-6.01-2.589c-1.967,1.194-4.545,1.61-5.695-0.906
	c-0.141-0.308-0.253-0.631-0.35-0.961c-1.418,1.118-3.064,1.373-4.272,0.288c-0.917,1.427-2.361,2.425-4.254,1.762
	c-2.336-0.819-3.958-3.289-4.55-5.62c-1.309-5.15,3.541-12.143,8.61-9.883c0.493-0.998,1.085-1.952,1.784-2.836
	c0.418-0.529,1.431-0.725,2.049-0.549c1.475,0.419,2.675,1.141,3.694,2.13c0.321-0.319,0.665-0.612,1.065-0.833
	c2.479-1.371,4.133,0.49,5.156,2.537c2.756-2.036,5.604,0.396,7.034,3.19c0.728,1.422-2.01,2.551-2.643,1.314
	c-0.277-0.542-1.78-3.684-2.691-2.862c-0.925,0.836-1.489,2.087-1.882,3.249c-0.809,2.4-1.038,4.748-0.691,7.252
	c0.14,1.003,0.244,2.415,1.003,3.179c1.419,1.43,2.712-1.021,2.949-2.137c0.469-2.207,0.447-4.541,1.239-6.67
	c0.265-0.712,1.259-1.006,2.004-0.861c1.945-3.692,5.859-7.852,9.822-5.568c3.155,1.817,1.934,7.013-0.492,9.571
	c3.069,0,6.139,0,9.208,0c1.308,0,1.46,0.883,0.946,1.479c0,10.905,0,21.812,0,32.718c3.453-4.537,9.158-7.972,12.66-12.191
	c-0.78-0.85-1.395-1.822-1.741-2.961c-1.272-4.18-0.176-9.111,3.084-12.144c10.23-9.515,35.505-9.257,43.157,3.817
	c7.894,3.358,16.504,4.121,18.627,14.078c1.326,6.218-0.356,12.509,0.758,18.686c0.96,5.32,3.501,9.614,6.618,13.959
	c2.704,3.771,6.755,8.197,6.999,13.102C544.362,270.068,542.961,274.05,541.465,278.104z M413.492,187.378
	c-1.037-0.935-2.007-1.407-3.042-0.192c-0.618,0.724-1.149,1.606-1.454,2.511c-0.499,1.478-0.743,2.938-0.28,4.46
	c0.439,1.448,1.143,2.918,2.275,3.959c0.263,0.242,0.532,0.49,0.859,0.645c0.043,0.011,0.062,0.021,0.094,0.031
	c0.441-0.612,0.613-1.386,0.771-2.108c0.052-0.239,0.245-0.445,0.503-0.61C412.495,193.19,412.614,190.172,413.492,187.378z
	 M420.364,186.219c-0.715-0.959-1.519-1.75-2.537-2.294c-1.619,2.573-2.485,5.949-2.161,8.909c0.124,1.124,0.29,2.294,0.713,3.352
	c0.629,1.572,0.616,1.596,1.444,0.244c0.129-0.21,0.384-0.379,0.688-0.502c-0.063-1.885,0.254-3.852,0.614-5.508
	C419.405,189.135,419.762,187.602,420.364,186.219z M426.052,188.07c-0.021-0.041-0.048-0.078-0.064-0.125
	c-0.357-0.997-0.801-2.484-1.716-3.143c-0.013-0.009-0.015-0.019-0.024-0.027c-0.026,0.043-0.058,0.088-0.105,0.148
	c-0.235,0.293-0.439,0.616-0.629,0.949c0.013,0.238-0.118,0.461-0.335,0.65c-0.626,1.347-0.979,2.881-1.231,4.264
	c-0.396,2.166-0.725,4.596-0.188,6.768c0.47,1.904,0.835,1.938,2.206,0.805c0.127-0.104,0.27-0.182,0.418-0.238
	c-0.031-0.219-0.062-0.439-0.086-0.665C423.966,194.395,424.456,190.852,426.052,188.07z M442.582,187.599
	c-2.333-2.837-5.58,3.64-6.165,5.521c-0.146,0.472-0.859,0.807-1.545,0.926c-0.063,0.36-0.119,0.73-0.17,1.112
	c2.056,0,4.111,0,6.166,0C442.998,194.334,443.958,189.271,442.582,187.599z M464.291,261.189
	c8.769,7.577,20.258,9.541,23.506,21.831c0.39,0.024,0.653,0.147,0.583,0.399c-0.671,2.424-2.363,5.1-1.707,7.643
	c0.007,0.023,0.013,0.047,0.02,0.07c0.033-0.019,0.064-0.041,0.097-0.06c2.833-1.651,4.876-5.219,6.249-7.909
	c0.078-0.154,0.249-0.287,0.467-0.398c-0.238-0.354-0.471-0.714-0.694-1.081c-5.507-9.027-2.531-18.079,1.993-26.702
	c3.145-5.994,5.379-11.478,4.221-18.351c-0.729-4.333-1.789-8.571-2.277-12.935c-6.199,1.497-14.464-0.095-19.392-1.387
	c-1.643-0.431-3.58-0.973-5.442-1.742l-0.576,0.346l-0.922,1.248c0.209-0.031,0.418-0.051,0.618-0.047
	c1.981,0.04,3.585,0.775,4.812,2.342c0.198,0.254-2.357,1.468-2.898,0.777c-0.862-1.103-2.013-1.785-3.376-1.927l-2.322,3.146
	C460.352,237.175,453.462,251.832,464.291,261.189z M426.616,321.297c-3.055-4.333-1.856-9.602-4.04-14.27
	c-1.389-2.968-3.3-5.472-5.313-8.029c-1.003-1.275-1.983-3.047-3.323-4.07c-0.011,0.125-0.023,0.285-0.037,0.541
	c-0.034,0.658-0.054,1.313-0.012,1.973c0.097,1.537,0.291,3.068,0.558,4.586c0.482,2.739,1.066,5.463,1.872,8.127
	c0.404,1.338-2.449,2.123-2.888,0.801c-0.767,0.342-1.868,0.496-2.161-0.023c-2.361-4.193-4.982-8.281-7.775-12.197
	c-1.605-2.25-3.232-4.57-5.186-6.537c-0.837-0.843-3.188-3.395-3.357-0.688c-0.277,4.456,3.755,9.405,6.242,12.704
	c2.07,2.744,4.217,5.634,6.784,7.944c0.647,0.584-2.033,1.678-2.709,1.07c-2.354-2.119-10.11-10.473-12.519-16.884
	c-0.299-0.016-0.564-0.097-0.733-0.271c-0.258-0.143-0.516-0.286-0.774-0.43c-0.156,1.517-0.104,3.017,0.132,4.488
	c0.097,0.042,0.19,0.073,0.29,0.12c0.377,0.179,0.229,0.442-0.139,0.685c1.331,6.506,6.045,12.4,11.058,16.543
	c0.896,0.74-1.815,1.896-2.678,1.184c-5.319-4.396-10.259-10.77-11.432-17.734c-0.13-0.092-0.107,0.021-0.187,0.587
	c-0.115,0.813-0.074,1.636,0.072,2.441c0.401,2.206,1.104,4.356,1.996,6.413c1.687,3.89,3.856,8.781,7.587,11.128
	c0.536,0.338-1.965,1.51-2.717,1.037c-3.829-2.408-6.799-7.777-8.462-12.686c-3.339,2.858,5.796,13.318,7.532,15.335
	c5.593,6.496,11.532,10.408,19.019,14.213C417.188,332.986,422.034,327.244,426.616,321.297z M522.767,294.674
	c-10.361,2.201-21.213-1.665-27.904-10.064c-2.15,3.655-5.035,6.893-9.208,8.188c-0.373,0.116-1.365,0.327-1.595-0.153
	c-1.214-2.547,0.245-5.265,1.133-7.774c-0.026-0.033-0.047-0.069-0.057-0.112c-0.874-3.981-2.586-7.128-4.967-9.75
	c-3.333,2.236-8.483,4.28-13.679,5.115c-2.872,0.822-5.501,0.677-7.618,0.21c-1.776-0.236-3.438-0.706-4.889-1.469
	c0,7.011,0,14.022,0,21.034c2.318-2.48,5.497-4.474,8.003-6.052c1.077-0.678,3.533,0.075,1.869,1.123
	c-3.488,2.196-8.873,5.376-9.872,9.692c0,9.242,0,18.483,0,27.725c0,0.267-0.167,0.499-0.418,0.688
	c1.188,0.599,2.403,1.115,3.639,1.386c3.84,0.84,6.291-2.595,8.306-5.321c8.692-11.761,19.277-21.947,27.969-33.707
	c0.584-0.79,3.517-0.993,2.709,0.1c-5.493,7.433-11.73,14.216-17.792,21.177c-3.547,4.074-6.882,8.256-10.177,12.53
	c-1.552,2.012-3.234,4.395-5.48,5.698c-3.465,2.012-6.89,1.668-10.446-0.025c-8.057-3.837-14.897-9.6-22.682-13.903
	c-0.089,0.286-0.35,0.537-0.684,0.717c-1.996,2.575-4.039,5.115-6.023,7.693c-3.134,4.071-6.119,8.24-8.532,12.801
	c-0.179,0.337-0.35,0.681-0.522,1.023c0.578-0.29,1.312-0.427,1.784-0.186c11.937,6.098,23.913,12.837,36.524,17.492
	c6.088,2.247,13.389,4.339,19.881,2.529c4.796-1.337,8.828-4.106,12.472-7.439c9.626-8.805,18.003-19.029,24.896-30.099
	C515.036,316.498,523.073,305.777,522.767,294.674z" fill="#0d89ec"></path>
</svg>