<?xml version="1.0" standalone="no"?>
<svg version="1.1" id="Layer_1" xmlns="http://www.w3.org/2000/svg" xmlns:xlink="http://www.w3.org/1999/xlink" x="0px" y="0px" width="595.28px" height="595.28px" viewBox="0 0 595.28 595.28" enable-background="new 0 0 595.28 595.28" xml:space="preserve">
<path id="color_x5F_2" fill="#fbc02d" d="M363.924,414.304c-5.533,4.97-9.038,12.09-9.101,20.714
	c-0.125,17.209,13.087,30.277,30.086,31.422c16.434,1.105,28.216-10.84,28.628-27.049c0.37-14.592-7.931-29.053-23.242-31.338
	c-0.774-0.115-0.785-0.562-0.478-0.935c-1.487-0.229-3.01-0.349-4.56-0.349C377.262,406.77,369.659,409.55,363.924,414.304z
	 M387.91,423.92c15.302,3.396,11.452,28.809-5.093,25.822c-7.593-1.371-13.9-7.984-11.918-16.16
	c1.88-7.758,8.765-11.064,16.32-10.291C387.785,423.349,387.963,423.618,387.91,423.92z M385.786,424.865
	c0.037,0.235,0.24,0.437,0.689,0.514c12.68,2.172,11.877,23.625-1.875,22.875C368.733,447.387,369.599,423.871,385.786,424.865z
	 M368.883,494.795c-1.242,2.218-1.984,4.836-2.049,7.83c-0.216,9.922,6.896,18.084,16.858,19.125
	c10.233,1.07,17.812-5.986,17.863-16.252c0.043-8.641-4.775-17.004-13.819-18.447c-0.137-0.021-0.243-0.057-0.334-0.097
	c-0.8-0.108-1.609-0.185-2.438-0.185C378.429,486.77,372.338,489.85,368.883,494.795z M386.173,495.682
	c0.444,0.045,0.647,0.222,0.69,0.441c9.515,2.381,6.767,18.107-3.652,16.227c-4.735-0.855-8.756-4.953-7.512-10.082
	C376.899,497.314,381.348,495.189,386.173,495.682z M382.91,523.221c0.822,0.121,1.626,0.174,2.422,0.196
	c-0.124,0.002-0.244,0.019-0.368,0.019c-2.171,0-4.287-0.455-6.282-1.236C380.044,522.66,381.459,523.006,382.91,523.221z
	 M384.82,497.261c0.1,0.147,0.29,0.267,0.609,0.321c7.105,1.217,6.971,13.656-0.844,13.23
	C375.595,510.321,375.73,496.91,384.82,497.261z M218.828,154.658c-2.525,1.27-5.094,2.67-7.629,4.201
	c-0.367,0.191-0.731,0.383-1.089,0.576c-3.292,1.773-6.198,3.995-8.705,6.325c-4.463,3.704-8.391,7.965-11.225,12.847
	c-0.099-0.063-0.298-0.092-0.553-0.089c-0.856-1.552-3.229-3.279-4.054-4.089c-0.361-0.354-0.729-0.703-1.092-1.056
	c4.612-11.361,15.125-19.048,25.462-25.077c4.477-2.611,9.157-4.715,13.974-6.613c2.279-0.9,4.587-1.723,6.906-2.512
	c0.836-0.285,3.554-1.005,4.688-1.421c0.083-0.019,0.166-0.035,0.243-0.052c1.128,2.96,2.344,5.875,3.716,8.693
	C232.145,148.551,220.314,153.912,218.828,154.658z M324.109,294.436l2.082-3.123c-0.758,1.368-1.519,2.734-2.278,4.102
	L324.109,294.436z M383.911,367.048c0.639-1.587,1.246-3.192,1.818-4.815l-0.62,3.203c0,0-0.417,0.692-1.195,1.613
	C383.914,367.049,383.912,367.048,383.911,367.048z M335.845,303.25c-3.991,0.077-8.179-2.26-11.313-4.303
	c1.182-2.13,2.364-4.26,3.544-6.391c1.395-2.518,2.778-5.039,4.169-7.559c0.529-0.113,1.03-0.326,1.199-0.584
	c5.988-9.121,14.979-17.472,24.502-23.331c1.707-0.971,3.436-1.867,5.163-2.647c2.103-0.949,3.872-1.786,5.473-2.455
	c6.005-1.781,12.294-1.539,17.822,2.248c5.84,4.001,10.713,12.045,12.01,19.219c0.274,2.218,0.407,4.47,0.443,6.678
	c-0.084,5.097-0.937,10.277-1.658,15.215c-1.305,8.934-3.089,17.799-5.014,26.617c-3.071,14.074-5.975,28.977-11.492,42.352
	c-0.002,0.005-0.001,0.009-0.002,0.014c-0.321,0.156-0.576,0.365-0.675,0.613c-1.345,3.371-7.625,0.471-10.405-1.476
	c0.1-0.327-0.133-0.599-0.503-0.765c-0.018-0.084-0.046-0.217-0.085-0.436c-0.104-0.596-0.088-1.217-0.098-1.818
	c-0.033-1.979,0.106-3.963,0.232-5.936c0.354-5.545,0.991-11.076,1.708-16.584c0.632-4.855,1.382-9.703,2.416-14.488
	c0.927-4.289,2.123-9.324,0.746-13.66c-1.493-4.7-5.478-3.713-9.62-1.141c0.499-0.751,0.972-1.518,1.382-2.318
	c1.541-3.01,2.767-6.547,3.563-10.234c0.28-0.885,0.539-1.771,0.757-2.645c0.886-3.543,0.853-7.215,0.023-10.383
	c-0.135-1.146-0.33-2.264-0.595-3.338c-1.329-5.393-7.021-8.355-11.782-4.973c-4.577,3.252-6.914,9.382-9.688,14.243
	c-2.008,3.181-5.295,7.618-8.958,9.45C338.111,302.935,337,303.181,335.845,303.25z M336.426,277.42
	c0.066-0.12,0.133-0.24,0.199-0.36c0.237-0.217,0.493-0.449,0.759-0.689C337.061,276.72,336.743,277.07,336.426,277.42z
	 M368.109,366.436c0,0,0.001-0.02,0.003-0.051c0.457-0.078,0.727,0.109,0.873,0.26c-0.243-0.088-0.529-0.134-0.818-0.126
	C368.131,366.468,368.109,366.436,368.109,366.436z M361.593,278.59c-0.483,0.055-0.97,0.18-1.455,0.366
	c0.185-0.083,0.369-0.174,0.56-0.233C361.009,278.625,361.305,278.594,361.593,278.59z M370.418,327.425
	c0.332-5.903,0.587-10.757,0.666-12.963c0.015,0.031,0.032,0.056,0.046,0.089C372.702,318.241,371.335,323.472,370.418,327.425z
	 M243.73,399.357c-0.102,0.075-0.215,0.161-0.343,0.26c-0.583,0.08-1.187,0.238-1.416,0.434
	c-16.881,14.391-24.534,38.818-27.863,59.969c-1.493,9.488-2.216,20.134-1.09,30.439c-0.162,0.971-0.251,1.51-0.251,1.51
	l0.597,1.253c1.591,11.103,5.487,21.64,13.068,29.712c-0.059,0.037-0.115,0.077-0.163,0.121c-2.158,1.986-5.175,2.512-8.071,2.658
	c0.005-0.035,0.001-0.066-0.027-0.092c-19.99-18.252-35.199-41.354-37.861-68.787c-2.671-27.528,8.68-54.16,23.821-76.502
	c7.343,3.793,15.955,5.654,24.098,5.221c0.117-0.006,0.25-0.035,0.388-0.078h1.667c1.576,2.279,3.343,4.466,5.294,6.539
	C238.134,394.729,240.861,397.178,243.73,399.357z M218.766,527.969c0,0-0.034-0.032-0.097-0.094
	c0.108-0.095,0.167-0.181,0.173-0.254c0.262-0.023,0.523-0.051,0.784-0.082L218.766,527.969z M223.099,513.668
	c-1.166-2.051-2.177-4.188-3.045-6.395L223.099,513.668z M203.678,380.098c-0.056,0-0.113,0-0.175,0.003
	c0.015-0.022,0.033-0.048,0.048-0.069C203.593,380.054,203.636,380.074,203.678,380.098z M216.975,459.541
	c1.018-6.882,2.556-14.145,4.746-21.299c-2.281,13.686-4.557,27.34-6.244,37.463C215.655,470.137,216.216,464.669,216.975,459.541z"></path>
<path id="color_x5F_1" d="M245.98,195.732c-0.499,0.488-1.372,0.729-2.049,0.549c-1.557-0.41-2.972-1.137-4.136-2.258
	c-0.867-0.836,1.876-1.955,2.679-1.182c0.897,0.865,1.998,1.424,3.197,1.74C246.282,194.742,246.436,195.289,245.98,195.732z
	 M230.248,276.568c2.382-11.518-0.589-21.703-5.852-31.951c-5.453-10.619-11.27-20.621-11.478-32.908
	c-0.015-0.828-2.916-0.287-2.897,0.777c0.192,11.359,5.128,20.961,10.349,30.76c5.737,10.77,9.539,21.383,6.988,33.715
	C227.147,277.982,230.056,277.496,230.248,276.568z M208.818,277.457c7.282-12.566,6.523-26.51,1.434-39.748
	c-0.388-1.008-3.252-0.143-2.897,0.777c4.956,12.891,5.887,26.635-1.232,38.918C205.439,278.584,208.348,278.268,208.818,277.457z
	 M141.355,128.699c-3.054,6.479-4.51,14.414-1.51,21.172c0.387,0.871,3.215-0.063,2.897-0.777
	c-2.969-6.686-1.534-14.41,1.491-20.826C144.559,127.578,141.748,127.867,141.355,128.699z M134.938,130.748
	c-0.65-0.348-1.464-0.072-2.059,0.246c-3.07,1.641-4.959,4.67-5.038,8.152c-0.03,1.295,2.884,0.721,2.907-0.326
	c0.066-2.918,1.341-5.445,3.961-6.846C135.163,131.732,135.529,131.063,134.938,130.748z M259.285,138.529
	c3.533,0.1,7.016,1.395,10.164,2.924c1.187,0.576,3.335-1.133,1.677-1.939c-3.336-1.621-7.091-2.971-10.833-3.076
	c-0.704-0.02-1.55,0.186-1.889,0.885C258.107,137.939,258.666,138.512,259.285,138.529z M263.45,126.455
	c3.798,1.35,6.702,4.018,10.22,5.861c1.108,0.58,3.655-0.922,2.235-1.666c-3.704-1.939-6.779-4.717-10.779-6.139
	C263.898,124.076,261.72,125.84,263.45,126.455z M436.937,386.773c-0.56,51.286-1.119,102.572-1.678,153.857
	c0.408,0.157,0.312,0.515-0.009,0.861c-0.002,0.257-0.005,0.514-0.008,0.771c-0.012,1.043-2.922,1.623-2.907,0.326
	c0.001-0.092,0.002-0.184,0.003-0.275c-34.701,0-69.403,0-104.105,0c-0.105,1.01-2.913,1.551-2.898,0.275
	c0.543-49.859,1.087-99.72,1.631-149.58c-7.478,8.248-17.717,14.229-28.493,17.014c-19.07,4.928-38.487,1.283-53.932-10.07
	c-11.146,9.535-18.349,23.686-22.819,38.289c-2.19,7.154-3.728,14.417-4.746,21.299c-0.759,5.128-1.319,10.596-1.498,16.164
	c-0.343,10.721,0.741,21.812,4.577,31.568c0.868,2.207,1.879,4.344,3.045,6.395c1.678,2.952,3.682,5.721,6.055,8.248
	c0.035,0.016,0.073,0.027,0.105,0.047c7.459,4.477,13.653,13.57,16.323,21.746c0.4,1.227-2.488,2.031-2.897,0.777
	c-0.017-0.051-0.037-0.103-0.054-0.153c-1.708,0.313-3.644,0.187-5.209,0.245c-5.587,0.211-11.178,0.33-16.768,0.432
	c-14.206,0.263-28.415,0.428-42.625,0.438c-0.762,0.617-2.952,0.766-2.667,0.207c7.597-14.939,24.102-18.36,39.527-18.304
	c-0.218-0.316-0.122-0.755,0.2-1.091c-19.639-18.034-35.471-41.422-37.678-68.648c-2.259-27.871,8.548-54.168,23.956-76.867
	c0.29-0.427,1.388-0.614,2.135-0.644c0.062-0.003,0.119-0.003,0.175-0.003c-0.042-0.023-0.085-0.044-0.127-0.066
	c-1.18-0.632-2.328-1.31-3.431-2.041c-0.102-0.104-0.134-0.225-0.098-0.365c5.401-11.365,11.48-22.469,11.965-35.297
	c-0.899-0.791-7.036-6.275-12.793-13.41c-4.85-5.131-8.994-10.848-11.091-17.432c-2.678-8.407-1.716-16.877,0.802-25.014
	c0.122-0.662,0.204-1.037,0.204-1.037l0.267-0.458c1.295-3.878,2.92-7.675,4.65-11.345c0.306-0.651,1.944-0.984,2.623-0.796
	c1.474-1.58,5.46-5.478,5.46-1.401c0,5,0,10,0,10s2,4,7,0s7-8,7-8s2-3.332,4.334-4.666c2.925-1.672,6.825,10.679,7.287,12.183
	c0.315-0.003,0.533,0.028,0.521,0.091c-2.855,14.92,6.744,24.778,17.902,33.096c0.638-1.158,1.362-2.185,2.173-3.098
	c-0.998-0.531-8.465-4.61-11.883-9.271c-10.054-13.709-5.667-21.332-5.667-21.332s3.196-13.555,3.333-19
	c0.073-2.922-0.666-14.668-0.666-14.668l0.163,0.112c-0.043-0.052-0.088-0.101-0.131-0.153c-0.18-0.219-0.18-0.537-0.053-0.779
	c4.657-8.881,7.688-18.287,7.249-28.398c-0.002-0.051,0.008-0.099,0.015-0.146c-1.488-2.164-3.28-4.102-5.254-5.642
	c-1.983,3.505-6.215,4.892-10.131,3.788c-1.081-0.305-1.934-0.73-2.613-1.248c0.184,5.817,2.021,10.769,5.91,15.686
	c2.756,3.484,5.225,6.715,5.33,11.299c0.026,1.127-2.886,1.678-2.918,0.289c-0.142-6.178-5.503-9.822-8.21-14.873
	c-2.525-4.711-3.474-9.408-3.03-14.73c0.843-10.119,2.659-21.191-2.199-30.533c-7.114,6.047-14.118,12.759-20.029,20.195
	c-0.456,8.018-2.585,16.502,0.09,24.313c1.759,5.133,3.516,9.574,3.575,15.119c0.131,12.176-3.848,23.924-12.579,32.588
	c-0.657,0.652-3.512,0.74-2.315-0.445c9.102-9.031,13.474-22.906,11.687-35.609c-0.766-5.438-3.75-10.205-4.314-15.65
	c-0.076-0.729-0.116-1.455-0.147-2.182c-6.945,4.263-14.612,1.194-12.859-8.563c1.83-10.191,5.639-20.299,6.579-30.638
	c-0.18-0.159-0.285-0.387-0.257-0.698c0.045-0.497-1.75-2.23-3.512-3.83c-0.543,0.729-3.025,1.027-2.791,0.281
	c0.224-0.713,0.489-1.406,0.758-2.098c-0.497-0.441-0.898-0.799-1.115-1.008c-4.061-3.904-8.145-7.787-12.132-11.77
	c-4.039-4.031-8.127-8.104-11.683-12.58c-1.515-1.906-3.889-4.523-4.168-7.176c-0.058-0.125-0.073-0.278-0.027-0.464
	c-0.001-0.118-0.005-0.237,0.003-0.356c0.016-0.23,0.121-0.431,0.275-0.6c4.691-15.598,20.062-29.471,34.236-36.494
	c7.395-3.664,15.134-6.85,23.032-9.258c4.471-1.361,10.732-3.729,15.486-2.161c0.693-0.035,1.318,0.252,1.241,0.972
	c-0.362,3.371,0.844,7.137,1.661,10.367c1.349,5.322,2.908,10.592,4.578,15.822c1.766,5.529,3.484,11.221,5.54,16.742
	c0.283,0.086,0.475,0.229,0.534,0.451c0.043,0.16-0.034,0.318-0.184,0.465c0.902,2.369,1.875,4.701,2.944,6.973
	c6.205,1.613,12.889,1.904,19.215,2.877c5.541,0.852,12.364,1.285,17.408,3.982c5.251,2.809,2.45,10.398-0.14,14.047
	c-2.74,3.861-6.839,8.111-11.6,9.743c2.945,2.581,5.568,5.369,6.646,9.243c1.585,5.691-1.033,11.191-4.174,15.859
	c-0.052,0.077-0.107,0.156-0.161,0.234c0.406-0.011,0.708,0.063,0.711,0.242c0.113,5.48,1.453,11.104,0.447,15.961
	c2.272-3.69,3.894-7.851,5.408-12.168c3.279-9.35,6.263-18.396,8.589-28.051c3.495-14.506,9.643-28.109,13.309-42.564
	c0.102-0.4,0.491-0.707,0.953-0.895l0.104-0.379c-0.049-0.001-0.099-0.004-0.148-0.004c-1.962-0.02-0.005-1.703,1.114-1.693
	c1.823,0.018,3.671,0.087,5.533,0.214c2.295-4.068,4.706-8.076,6.827-12.237c2.006-3.934,5.373-9.463,4.989-14.076
	c-0.771-9.26-9.749-14.584-12.022-23.332c-0.105-0.404,0.657-0.732,0.919-0.822c5.749-1.977,12.246-2.637,18.298-2.564
	c3.454,0.039,12.07-0.039,13.02,4.797c0.386,1.97-0.261,3.537-1.514,4.727c0.555-0.121,1.122-0.086,1.399,0.221
	c1.229,1.354,2.314,0.886,3.219-0.412c0.012-0.123,0.09-0.238,0.223-0.345c1.624-2.655,2.612-7.888,2.722-9.354
	c0.177-2.375,0.232-5.697-1.501-7.602c-2.236-2.455-5.552-0.093-7.67,1.404c-0.468,2.353-0.85,4.238-0.885,5.174
	c-0.033,0.912-2.917,1.313-2.897,0.777c0.187-4.992,7.45-24.5-0.322-26.293c-4.194-0.967-7.1,10.461-7.764,13.135
	c-0.965,3.885-2.167,8.344-1.684,12.381c0.101,0.834-2.819,1.432-2.897,0.777c-0.64-5.342,1.161-11.781,2.92-16.738
	c1.588-4.473,3.628-9.186,8.465-10.729c9.001-2.869,7.265,10,5.545,19.054c2.901-1.647,6.571-2.909,9.216-0.739
	c2.746,2.254,2.711,6.764,2.291,9.963c-0.249,1.895-1.294,5.461-2.91,8.331c0.021,0.024,0.035,0.05,0.038,0.081
	c0.226,2.627,1.052,2.883,2.817,1.307c2.01-1.795,3.717-3.998,4.922-6.412c2.139-4.281,2.143-8.603-1.764-10.063
	c-0.192,0.736-2.999,1.21-2.856,0.467c0.061-0.313,0.129-0.637,0.2-0.963c-0.128-0.006-0.242-0.023-0.375-0.025
	c-0.861-0.018-0.219-0.445,0.559-0.779c1.419-6.035,4.485-13.811,9.297-17.326c4.354-3.18,10.177-2.021,9.941,4.217
	c-0.142,3.752-1.119,7.326-1.838,10.99c-1.09,5.559-1.257,11.252-2.331,16.811c-1.002,5.182-2.494,10.195-6.637,13.732
	c-3.375,2.883-7.238,5.226-10.298,8.445c-4.488,10.451-4.604,22.23-7.644,33.123c-0.051,0.183-0.208,0.345-0.422,0.481
	c1.748,1.152,3.423,2.41,4.989,3.81c0.511,0.456-0.358,1.065-1.274,1.286c-3.278,7.854-6.73,15.648-10.141,23.46
	c-3.98,9.605-8.542,20.713-12.617,30.88c-1.09,3.003-2.138,6.022-3.121,9.065c-3.885,12.025-7.696,24.854-8.743,37.496
	c-0.939,11.348,2.21,22.19,3.185,33.393c13.932-25.362,27.93-50.689,42.168-75.881c7.096-12.553,14.225-25.094,21.602-37.484
	c3.615-6.074,7.098-12.555,11.414-18.226c0.663-2.65,3.261-7.077,3.758-8.194c2.898-6.5,5.984-12.928,9.345-19.201
	c3.257-6.082,6.629-12.412,11.112-17.701c1.91-2.252,5.135-5.941,8.569-5.15c2.86,0.66,9.039,2.635,9.496,6.332
	c0.503,4.074-2.44,7.553-4.267,10.945c-2.158,4.01-1.99,7.896,1.193,11.383c1.138,1.244,3.021,2.432,3.57,4.104
	c0.76,2.311-0.361,4.809-1.383,6.859c-2.493,5.004-5.567,9.705-8.18,14.654c-3.155,5.979-7.336,9.318-13.295,5.811
	c-3.238,4.389-5.919,9.297-8.668,13.949c-4.862,8.229-9.582,16.541-14.261,24.876c0.385,0.52-0.105,1.085-0.779,1.388
	c-0.548,0.977-1.098,1.952-1.645,2.93c-6.022,10.76-11.986,21.552-17.936,32.352c0.05,0.039,0.1,0.079,0.149,0.117
	c0.93,0.71-0.16,1.612-1.197,1.784c-6.572,11.935-13.13,23.878-19.697,35.815c0.609,0.588-0.044,1.278-0.867,1.572
	c-0.781,1.42-1.566,2.838-2.349,4.257c-0.066,0.12-0.132,0.24-0.199,0.36c0.317-0.35,0.635-0.7,0.958-1.05
	c9.109-9.872,20.517-19.497,33.822-22.417c6.08-1.334,12.816-0.633,17.905,3.197c5.974,4.494,11.577,13.035,12.38,20.574
	c0.674,6.332-0.229,12.908-1.116,19.174c-1.308,9.229-3.069,18.395-5.057,27.498c-2.728,12.497-5.284,25.631-9.588,37.836
	c-0.573,1.623-1.179,3.229-1.818,4.815c0.001,0,0.002,0.001,0.003,0.001c0.25,0.01,0.485,0.074,0.67,0.211
	c9.046,6.678,22.39,5.047,30.805,12.643c2.906,2.624,1.233,5.055-1.415,6.889c6.717,0,13.435,0,20.152,0
	C434.622,385.955,436.95,385.61,436.937,386.773z M382.666,369.154c-2.766,5.42-11.281,2.664-15.556-0.377
	c-0.003,0.002-0.005,0.004-0.008,0.006c-5.771,4.095-10.268,11.137-8.941,18.399c0.396-0.086,0.793-0.08,1.091,0.077
	c6.652,3.51,15.049,3.986,22.428,3.939c6.911-0.043,13.999-0.459,20.748-2.051c0.848-0.2,2.982-0.682,5.188-1.399
	c0.156-0.379,1.386-0.958,1.956-0.958c0.206,0,0.411,0,0.617,0c2.383-1.031,4.23-2.352,3.695-3.896
	c-1.157-3.34-6.473-4.723-9.424-5.738C397.066,374.613,389.156,373.787,382.666,369.154z M365.168,367.412
	c0.31-0.22,0.698-0.307,1.076-0.298c-0.752-2.523-0.082-7.442-0.017-8.364c0.708-10.068,1.794-20.285,3.927-30.16
	c0.08-0.371,0.17-0.764,0.264-1.165c0.917-3.953,2.284-9.184,0.712-12.874c-0.014-0.033-0.031-0.058-0.046-0.089
	c-1.327-2.909-4.493-0.979-6.432,0.323c-3.431,2.303-6.122,5.758-9.564,7.938c-0.059,0.037-0.124,0.067-0.189,0.097
	c-4.31,4.026-8.267,8.214-12.333,12.505c-3.799,4.01-6.32,7.008-5.254,12.887c1.037,5.717,1.789,11.309,1.522,17.133
	c-0.365,7.975-3,15.273-7.168,21.608c0.176-0.048,0.326-0.079,0.417-0.079c7.667,0,15.334,0,23,0
	C354.189,379.17,359.018,371.776,365.168,367.412z M368.112,366.385c-0.224,0.039-0.497,0.151-0.816,0.355
	c0.007-0.002,0.013-0.004,0.02-0.006c0.254-0.137,0.551-0.207,0.851-0.216c0.289-0.008,0.575,0.038,0.818,0.126
	C368.839,366.494,368.569,366.307,368.112,366.385z M332.246,284.998c-1.391,2.52-2.775,5.041-4.169,7.559
	c-1.18,2.131-2.362,4.261-3.544,6.391c3.134,2.043,7.322,4.38,11.313,4.303c1.434-0.027,2.844-0.359,4.168-1.139
	c3.134-1.844,5.416-4.834,7.313-7.877c0.251-0.403,0.497-0.823,0.74-1.249c2.775-4.861,5.112-10.991,9.688-14.243
	c4.761-3.383,10.453-0.42,11.782,4.973c0.265,1.074,0.459,2.191,0.595,3.338c0.49,4.152,0.155,8.693-0.781,13.027
	c-0.796,3.688-2.022,7.225-3.563,10.234c-0.41,0.801-0.883,1.567-1.382,2.318c4.143-2.572,8.127-3.56,9.62,1.141
	c1.377,4.336,0.181,9.371-0.746,13.66c-1.034,4.785-1.784,9.633-2.416,14.488c-0.717,5.508-1.354,11.039-1.708,16.584
	c-0.126,1.973-0.266,3.957-0.232,5.936c0.01,0.602-0.007,1.223,0.098,1.818c0.039,0.219,0.067,0.352,0.085,0.436
	c0.37,0.166,0.603,0.438,0.503,0.765c2.78,1.946,9.06,4.847,10.405,1.476c0.099-0.248,0.354-0.457,0.675-0.613
	c0.001-0.005,0-0.009,0.002-0.014c5.518-13.375,8.421-28.277,11.492-42.352c1.925-8.818,3.709-17.684,5.014-26.617
	c0.722-4.938,1.574-10.118,1.658-15.215c0.028-1.707-0.029-3.406-0.208-5.082c-0.056-0.525-0.138-1.059-0.235-1.596
	c-1.297-7.174-6.17-15.218-12.01-19.219c-5.528-3.787-11.817-4.029-17.822-2.248c-1.958,0.58-3.885,1.372-5.745,2.33
	c-1.638,0.844-3.271,1.776-4.891,2.772c-9.523,5.859-18.514,14.21-24.502,23.331C333.275,284.672,332.775,284.885,332.246,284.998z
	 M336.758,272.179c-4.702-3.67-9.637-8.395-15.496-9.81c-0.117-0.028-0.213-0.063-0.295-0.103
	c-4.767,8.645-9.524,17.294-14.272,25.948c1.445-0.219,0.456,0.641-0.529,0.966c-1.721,3.138-3.435,6.278-5.154,9.416
	c0.332-0.113,0.67-0.161,0.947-0.093c5.819,1.424,10.08,6.443,14.62,10.105c0.274-0.49,0.549-0.979,0.823-1.469
	c2.182-3.902,4.342-7.817,6.512-11.727c0.759-1.367,1.52-2.733,2.278-4.102C329.722,284.939,333.245,278.563,336.758,272.179z
	 M286.647,254.342c1.32-0.774,2.802-1.6,4.352-2.203c-1.203,0.289-2.22,0.761-2.773,1.049c-0.223,0.564-2.207,1.273-2.778,0.775
	c-5.354-4.688-10.622-9.43-14.667-15.334c-0.559-0.814,2.25-1.734,2.71-1.063c0.464,0.677,0.948,1.335,1.442,1.982
	c0.235-0.836,0.404-1.688,0.424-2.59c0.004-0.19,0.143-0.367,0.35-0.52c-0.359-0.016-0.687-0.129-0.898-0.373
	c-1.825-2.107-3.737-4.184-5.841-6.02c-0.898-0.783-1.813-1.582-2.819-2.229c-0.42-0.27-0.856-0.582-1.33-0.752
	c-0.124-0.021-0.208-0.045-0.268-0.072c-0.011,0.006-0.022,0.013-0.034,0.019c4.606,11.838,8.898,23.737,11.919,36.089
	C279.153,259.52,282.753,256.627,286.647,254.342z M304.744,132.635c1.474,0.136,3.111,0.294,4.807,0.471
	c-1.478-0.206-2.955-0.368-4.428-0.494C304.99,132.625,304.863,132.634,304.744,132.635z M301.937,234.104
	c0.04-2.393,0.696-4.635,1.279-6.938c0.475-1.867-2.405-2.658-2.879-0.793c-0.649,2.561-1.343,5.068-1.387,7.73
	C298.919,236.029,301.904,236.027,301.937,234.104z M298.283,272.104c0.05,3.064,0.658,6.096,1.387,9.063
	c0.46,1.871,3.339,1.076,2.88-0.793c-0.667-2.717-1.235-5.465-1.28-8.27C301.238,270.18,298.253,270.176,298.283,272.104z
	 M303.821,148.016c-5.663,9.471-9.33,19.936-12.818,30.355c-0.612,1.832,2.271,2.611,2.88,0.795
	c3.409-10.186,6.982-20.387,12.517-29.643C307.39,147.865,304.808,146.365,303.821,148.016z M281.821,201.348
	c-2.446,3.783-4.025,7.973-6,12c-0.845,1.723,1.73,3.236,2.578,1.508c1.975-4.027,3.554-8.217,6-12
	C285.448,201.232,282.862,199.738,281.821,201.348z M297.564,290.245c0.695,0.19,1.351,0.247,1.978,0.209
	C299.006,290.428,298.344,290.367,297.564,290.245z M387.781,145.744c0.302,0.004,0.494,0.037,0.449,0.092
	c-0.368,0.446-0.718,0.91-1.073,1.369c-0.084,0.222-0.162,0.438-0.223,0.637c0.229-0.014,0.423,0.016,0.543,0.109
	c4.563,3.559,9.639,6.29,14.621,9.192c0.206-0.259,0.4-0.527,0.61-0.782c0.542-0.658,3.005-0.709,2.854-0.525
	c-0.079,0.096-0.152,0.197-0.23,0.294c0.055,0.021,0.107,0.046,0.151,0.077c6.228,4.379,8.389-3.029,10.719-7.4
	c2.157-4.051,5.037-7.775,6.793-12.035c2.111-5.123-0.138-5.828-2.921-9.531c-3.9-5.188-2.548-9.059,0.462-14.246
	c2.221-3.826,4.973-8.783-0.387-11.477c-2.465-1.238-4.733-2.9-6.991-0.83c-7.801,7.15-12.74,18.424-17.319,27.754
	c-2.336,4.758-4.594,9.561-6.662,14.441C389.003,143.293,388.361,144.495,387.781,145.744z M364.544,184.479
	c0.146-0.011,0.287-0.007,0.414,0.025c5.805,1.461,9.857,6.914,14.258,10.847c3.396-6.029,6.818-12.043,10.299-18.022
	c3.558-6.108,6.975-12.66,11.214-18.416c-4.922-2.92-9.986-5.588-14.609-8.965c-0.297,0.149-0.61,0.265-0.951,0.307
	c-0.086,0.011-0.177,0.016-0.268,0.02c-3.193,4.627-5.954,9.645-8.793,14.406C372.193,171.243,368.352,177.852,364.544,184.479z
	 M342.974,222.609c0.344-0.123,0.697-0.176,0.984-0.105c5.682,1.385,10.328,5.862,14.851,9.592
	c2.897-5.258,5.792-10.516,8.703-15.766c3.44-6.203,6.887-12.405,10.36-18.592c-4.544-3.789-8.603-9.752-14.441-11.317
	c-2.419,4.222-4.829,8.449-7.228,12.683C351.771,206.926,347.364,214.763,342.974,222.609z M321.854,260.659
	c0.38-0.156,0.783-0.233,1.104-0.155c5.705,1.378,10.508,5.659,15.098,9.316c6.481-11.784,12.956-23.572,19.444-35.354
	c-4.641-3.727-9.416-8.679-15.238-10.098c-0.087-0.021-0.158-0.048-0.226-0.076C335.271,236.395,328.55,248.52,321.854,260.659z
	 M307.391,131.008c9.363,0.9,18.896,3.323,26.961,8.037c2.592-10.045,2.977-20.76,6.743-30.447c-0.32-0.04-0.479-0.166-0.276-0.414
	c0.263-0.32,0.54-0.625,0.817-0.929c0.329-0.771,0.677-1.536,1.057-2.292c0.273-0.543,1.48-0.858,2.255-0.834
	c5.042-4.219,10.752-7.454,12.645-14.516c2.103-7.85,2.204-16.057,3.949-23.984c0.686-3.111,1.725-6.705,1.116-9.896
	c-0.367-1.926-1.124-3.664-3.452-3.68c-1.405-0.008-3.428,3.039-4.032,4.002c-2.566,4.089-4.758,8.796-5.917,13.559
	c2.84,0.329,5.783,1.535,5.912,4.842c0.135,3.447-1.657,6.875-3.688,9.555c-1.531,2.021-8.594,8.443-10.819,5.256
	c-1.842,1.736-4.074,2.129-6.533-0.582c-0.102-0.112-0.148-0.227-0.15-0.34c-4.422,2.576-12.384,2.327-15.2-0.391
	c-0.588-0.568,2.099-1.639,2.715-1.045c2.985,2.881,8.771,3.008,11.572-0.383c2.458-2.975-0.285-5.932-3.519-6.721
	c-6.598-1.608-15.201-0.994-21.823,1.052c2.59,8.865,12.027,14.362,11.861,24.187c-0.073,4.318-3.041,9.359-4.991,13.066
	C312.3,122.47,309.79,126.705,307.391,131.008z M302.214,132.41c0.623,0.054,1.305,0.113,2.032,0.18
	c-0.065-0.017-0.117-0.039-0.156-0.064C303.462,132.479,302.838,132.443,302.214,132.41z M266.783,203.082
	c-1.822,2.56-3.641,5.325-4.195,8.182c-0.799,4.12,0.299,8.05,0.783,12.102C269.528,218.308,267.311,210.392,266.783,203.082z
	 M237.363,184.844c-3.917-2.365-7.437-6.953-7.779-11.529c-0.988,0.617-1.942,1.219-2.809,1.774
	c0.844,4.382,3.946,8.68,7.579,11.353C235.44,186,236.475,185.422,237.363,184.844z M245.957,170.788
	c-1.045-2.028-1.792-4.26-2.196-6.239c-0.054-0.264,0.105-0.485,0.318-0.658c0.301-0.685,1.075-1.232,1.906-1.666
	c-2.555,1.216-5.063,2.559-7.509,3.999c0.667-0.155,1.538-0.106,1.703,0.185c0.365,0.014,0.707,0.123,0.945,0.365
	c1.264,1.289,2.778,2.801,3.908,4.48c0.052,0,0.104,0,0.157-0.001c0.001-0.001,0.01-0.003,0.024-0.004
	c0.047-0.037,0.091-0.071,0.091-0.071C245.479,171.01,245.711,170.888,245.957,170.788z M257.128,173.84
	c-2.852-3.213-6.405-6.435-7.31-10.736c-0.66,0.27-1.32,0.54-1.98,0.811c-0.274,0.112-0.563,0.162-0.832,0.168
	c1.006,4.024,3.792,7.189,6.601,10.299C254.698,174.596,255.884,174.42,257.128,173.84z M249.227,160.768
	c-0.586,0.248-1.169,0.504-1.751,0.767c0.162-0.069,0.315-0.136,0.445-0.194C248.354,161.144,248.791,160.958,249.227,160.768z
	 M257.483,175.3c-0.01,0.004-0.019,0.009-0.029,0.013c-0.312,0.121-0.653,0.237-1.013,0.346c0.346-0.046,0.686-0.117,1.01-0.239
	C257.466,175.381,257.471,175.34,257.483,175.3z M201.404,165.761c3.08-2.556,6.403-4.853,9.794-6.901
	c2.536-1.531,5.104-2.932,7.629-4.201c1.486-0.746,13.316-6.107,20.641-8.266c-1.372-2.818-2.588-5.733-3.716-8.693
	c-0.005-0.012-0.01-0.025-0.015-0.037c-0.066,0.027-0.142,0.057-0.228,0.089c-1.134,0.416-3.852,1.136-4.688,1.421
	c-2.319,0.789-4.627,1.611-6.906,2.512c-4.816,1.898-9.497,4.002-13.974,6.613c-10.337,6.029-20.85,13.716-25.462,25.077
	c0.363,0.353,0.73,0.701,1.092,1.056c0.825,0.81,3.197,2.537,4.054,4.089c0.255-0.003,0.454,0.026,0.553,0.089
	C193.014,173.726,196.941,169.465,201.404,165.761z M182.615,171.569c5.856-11.975,18.326-20.435,29.88-26.245
	c1.643-0.826,15.933-7.293,22.793-8.832c-2.118-5.71-3.901-11.582-5.694-17.313c-1.707-5.457-3.383-10.947-4.665-16.523
	c-0.609-2.646-1.417-5.558-1.308-8.334c-4.79-1.469-12.189,1.81-16.555,3.322c-6.739,2.336-13.444,5.014-19.776,8.314
	c-13.236,6.897-27.974,20.2-32.012,35.018c0.063,3.169,4.216,7.078,6.065,9.176c3.96,4.49,8.188,8.738,12.472,12.92
	C176.731,165.921,179.682,168.736,182.615,171.569z M216.69,179.664c-0.012-0.58,0.743-1.063,1.489-1.193
	c1.675-1.323,3.357-2.607,5.04-3.838c14.479-10.586,32.25-21.1,50.821-20.33c1.958,0.082-0.08,1.637-1.142,1.592
	c-4.271-0.177-8.545,0.302-12.767,1.276c0.022,0.079,0.022,0.164-0.013,0.255c0.332,0.01,0.61,0.103,0.741,0.309
	c1.965,3.105,5.189,7.535,3.404,11.408c-0.425,0.922-0.931,1.723-1.502,2.44c0.652,0.556,1.312,1.104,1.969,1.654
	c5.878-1.225,12.447-8.711,13.37-14.212c1.07-6.387-3.729-7.27-8.759-8.291c-8.27-1.677-16.906-2.096-25.198-3.736
	c-0.769,0.246-1.671,0.27-1.791-0.178c0.062,0.232-4.124,1.318-5.197,1.684c-2.319,0.789-4.628,1.613-6.906,2.512
	c-4.816,1.9-9.498,4.002-13.975,6.613c-11.08,6.465-22.368,14.826-26.368,27.582c-0.069,0.221-0.319,0.41-0.642,0.557
	c-0.942,4.848-2.317,9.66-3.434,14.395c-0.824,3.494-1.713,6.998-2.293,10.541c-0.842,5.145,1.638,13.98,8.95,8.162
	c0.176-0.141,0.576-0.264,1.017-0.35c-0.061-4.229,0.46-8.439,0.851-12.66c-2.43,3.426-4.606,6.998-6.44,10.721
	c-0.443,0.898-3.295,1.193-2.894,0.379c2.607-5.292,5.894-10.375,9.637-15.198c0.008-0.157,0.022-0.313,0.029-0.47
	c0.016-0.372,0.485-0.689,1.04-0.867C201.885,192.74,209.167,185.749,216.69,179.664z M220.07,179.912
	c-0.055-0.145-0.112-0.291-0.163-0.434c-0.018,0.015-0.035,0.029-0.053,0.044C219.928,179.652,220,179.782,220.07,179.912z
	 M247.666,231.157c0.06,0.037,0.112,0.081,0.143,0.14c10.813,20.691,12.899,44.565,21.41,66.129c1.8-2.588,2.897-5.764,3.072-9.73
	c0.312-7.08-1.461-15.013,2.144-21.555c-0.217-0.051-0.374-0.152-0.413-0.322c-3.1-13.33-7.747-26.104-12.711-38.826
	c-0.774-0.157-1.329-0.652-0.694-1.213c-0.272-3.635-1.569-7.321-1.348-10.947c0.228-3.744,1.706-6.982,3.738-10.098
	c3.604-5.525,9.916-12.762,7.304-19.918c-1.417-3.88-4.229-6.693-7.247-9.35c-0.715-0.032-0.994-0.408-0.955-0.833
	c-0.438-0.379-0.877-0.756-1.315-1.134c-0.378,0.282-0.771,0.55-1.191,0.793c-0.08,0.124-0.156,0.239-0.232,0.355
	c0.56-0.096,1.122-0.057,1.214,0.395c0.576,2.811-0.226,5.512-1.001,8.201c-0.277,0.957-3.185,1.379-2.895,0.375
	c0.643-2.226,1.337-4.457,1.145-6.764c-2.935,0.922-6.458,0.523-8.711-1.529c-0.119-0.107-0.145-0.226-0.115-0.346
	c-0.82-0.752-1.547-1.681-2.193-2.698c-0.304,0.169-0.624,0.297-0.955,0.392c0.817,1.664,1.143,3.465,0.433,5.361
	c-1.538,4.105-4.698,7.213-8.572,9.189c-3.2,1.631-7.25,3.281-10.739,1.57c-2.227-1.092-4.135-3.429-5.514-5.898
	c2.603,6.648,2.445,13.895,1.88,21.064c0.152,0.012,0.244,0.04,0.238,0.082c-0.339,2.365-1.132,5.648,0.346,7.803
	c0.988,1.441,2.729,2.518,4.454,2.844c2.583,0.49,3.822-1.266,4.661-3.316c0.106-0.26,0.548-0.453,1.054-0.574
	c-1.441-0.953-2.95-1.701-4.49-2.15c-0.81-0.236,1.739-1.287,2.388-1.098C240.996,210.179,248.952,221.695,247.666,231.157z
	 M242.258,250.58c0.15-0.781,0.29-1.564,0.416-2.352c0.193-1.209,3.146-1.639,2.925-0.262c-0.99,6.195-2.78,12.197-4.601,18.191
	c-1.137,3.744-0.438,5.445,1.657,8.719c5.82,9.094,14.061,15.853,23.027,21.658c-7.906-20.921-10.207-43.86-20.489-63.887
	c-0.312-0.022-0.519-0.109-0.486-0.287c0.566-3.054,0.055-6.399-1.183-9.607c-0.28,4.146-1.08,8.237-2.441,12.203
	c-1.145,3.336-2.45,6.619-4.091,9.748C235.772,247.033,239.735,249.431,242.258,250.58z M237.799,272.153
	c-0.194-0.53-0.33-1.062-0.39-1.616l-0.3,0.898L237.799,272.153z M247.942,315.451c0.076,0.055,0.152,0.111,0.229,0.166
	c0.168,0.121,0.035,0.24-0.063,0.348c-2.176,2.385-4.528,4.616-6.984,6.739c0.164,0.033,0.296,0.095,0.368,0.198
	c4.874,7.111,10.703,11.4,19.458,12.355c5.731,0.625,11.438,0.473,17.185,0.537c8.6-13.708,15.642-28.699,23.408-42.865
	c0.523-0.955,1.049-1.908,1.572-2.863c-2.528,0.908-4.773,1.979-7.901,1.359c-5.503-1.092-4.321-8.271-3.398-12.096
	c1.231-5.105,3.652-9.719,4.938-14.768c0.696-2.736,1.637-6.602,0.294-9.344c-2.505-5.119-7.741-1.41-11.027,1.072
	c-6.001,4.531-10.586,9.889-10.9,17.83c-0.262,6.627,1.297,13.939-1.547,20.219c-2.159,4.77-5.584,8.082-10.442,10.018
	c-0.919,0.366-1.816,0.709-2.692,1.047l-1.327,1.031l-6.149,2.691c-1.901,1.42-3.513,3.285-4.732,6.039
	C248.182,315.272,248.078,315.367,247.942,315.451z M276.97,350.041c3.928-1.828,8.505-4.226,10.753-7.627
	c2.669-4.041-3.585-5.059-9.369-5.258c-0.381,0.03-0.708,0.021-0.873-0.025c-3.162-0.067-6.034,0.081-7.022,0.072
	c-6.528-0.057-13.925,0.064-20.021-2.672c-4.708-2.112-8.046-5.524-10.987-9.631l-0.341,0.535l-11.025,6.941
	c-1.074,0.694-2.154,1.374-3.238,2.039l-1.296,0.816c-1.254,0.824-3.071,2.131-4.953,3.184c1.976,1.355,4.044,2.589,6.161,3.758
	c0.803-0.166,1.624-0.088,1.484,0.375c-0.038,0.126-0.064,0.253-0.101,0.379c6.458,3.477,13.208,6.575,18.763,11.311
	c5.894,5.023,6.979,13.705,14.356,17.721c7.128,3.881,18.35,3.361,25.361-0.807c-5.36,0.639-10.869,0.084-15.344-1.488
	c-1.694-0.596,0.611-2.186,1.714-1.799c8.203,2.882,21.155,2.162,27.467-4.725c-1.134,0.238-2.256,0.419-3.322,0.561
	c-6.95,0.928-13.902,0.625-20.888,0.588c-1.962-0.01-0.026-1.723,1.107-1.717c6.381,0.033,34.442,2.486,31.951-9.467
	c-1.248-5.992-12.458-3.17-16.548-2.574c-4.714,0.686-9.757,1.787-14.572,1.271c-0.061,0.028-0.13,0.061-0.184,0.085
	c-0.946,0.431-2.234,0.131-1.785-0.435c-0.814-0.473,1.256-1.67,2.129-1.505C276.554,349.986,276.763,350.009,276.97,350.041z
	 M211.67,364.373c-1.308,3.271-2.594,6.545-3.333,10c-0.402,1.877,2.477,2.676,2.879,0.793c0.74-3.455,2.026-6.727,3.334-10
	C215.266,363.377,212.376,362.607,211.67,364.373z M223.052,344.084c-2.372-1.307-4.705-2.67-6.902-4.192l-0.614,0.387
	c0.205,0.261-0.126,0.594-0.638,0.847c0.007,0.037,0.018,0.072,0.017,0.115c-0.014,0.624-0.046,1.243-0.085,1.859l7.28,3.338
	c0,0,0,0.58,0.017,1.566C222.377,346.697,222.689,345.39,223.052,344.084z M243.475,318.576c0.568-0.547,1.043-1.15,1.116-1.752
	L243.475,318.576z M208.721,328.492c0.319,0.334,0.49,0.615,0.814,1.102c0.362,0.543,0.734,1.092,1.186,1.564
	c1.332,1.395,3.441-0.719,2.111-2.111c-0.318-0.334-0.489-0.617-0.813-1.102c-0.362-0.543-0.734-1.092-1.187-1.564
	C209.499,324.986,207.391,327.1,208.721,328.492z M197.216,293.832c0.434-1.873-2.445-2.668-2.879-0.793
	c-2.482,10.742-0.405,20.336,8.384,27.453c1.482,1.199,3.608-0.9,2.111-2.111C196.877,311.938,194.96,303.598,197.216,293.832z
	 M242.293,544.053c-0.217-0.109-0.261-0.244-0.201-0.385C242.009,543.793,242.037,543.924,242.293,544.053z M228.117,524.283
	c-2.43,1.986-5.414,2.891-8.492,3.256c-0.261,0.031-0.522,0.059-0.784,0.082c-0.005,0.073-0.065,0.159-0.173,0.254
	c-0.458,0.402-1.659,0.92-2.117,0.902c-14.427-0.512-30.071,1.798-37.7,15.303c13.114-0.008,26.23-0.146,39.343-0.373
	c5.759-0.1,11.518-0.205,17.274-0.389c1.893-0.061,3.785-0.119,5.676-0.223c0.343-0.018,0.686-0.043,1.029-0.064
	C239.552,536.049,234.296,528.473,228.117,524.283z M244.006,399.562c-0.091-0.069-0.185-0.135-0.275-0.204
	c-2.87-2.18-5.597-4.629-8.152-7.344c-1.951-2.073-3.719-4.26-5.294-6.539c-0.02-0.029-0.041-0.059-0.061-0.089l-1.023-0.167
	c-0.193,0.107-0.394,0.196-0.584,0.256c-0.138,0.043-0.271,0.072-0.388,0.078c-8.143,0.434-16.755-1.428-24.098-5.221
	c-15.141,22.342-26.492,48.974-23.821,76.502c2.662,27.434,17.871,50.535,37.861,68.787c0.028,0.025,0.032,0.057,0.027,0.092
	c2.896-0.146,5.913-0.672,8.071-2.658c0.048-0.044,0.104-0.084,0.163-0.121c-7.581-8.072-11.477-18.609-13.068-29.712
	c-0.132-0.917-0.244-1.839-0.345-2.763c-1.125-10.306-0.402-20.951,1.09-30.439c3.329-21.15,10.982-45.578,27.863-59.969
	c0.229-0.195,0.832-0.354,1.416-0.434C243.603,399.587,243.816,399.566,244.006,399.562z M326.997,390.081
	c0.011-0.993,0.022-1.987,0.033-2.981c0.009-0.836,1.871-1.371,2.608-0.889c0.971-1.594,1.848-3.252,2.602-4.984
	c2.447-5.627,3.831-11.666,3.785-17.824c-0.042-5.744-1.81-11.309-1.895-16.977c-0.059-3.977,1.453-6.488,4.14-9.311
	c3.664-3.848,6.981-7.957,10.927-11.533c1.12-1.016,2.319-2.045,3.532-3.104c-0.203-0.272-0.135-0.629,0.458-1.004
	c0.977-0.618,2.885-2.371,5.173-4.301c1.839-1.973,3.453-4.091,4.552-6.426c1.541-3.273,2.605-6.805,3.32-10.348
	c0.921-4.566,1.687-9.533,0.791-14.17c-0.438-2.272-2.217-7.678-5.429-7.641c-0.288,0.004-0.584,0.035-0.896,0.133
	c-0.191,0.06-0.375,0.15-0.56,0.233c-4.327,1.951-7.09,10.102-9.247,13.739c-2.758,4.65-6.133,9.031-11.317,11.039
	c-5.583,2.163-11.288,0.156-16.174-2.744c-5.262,9.473-10.562,18.927-16.021,28.285c-3.196,5.48-6.275,12.574-10.935,17.033
	c-0.488,0.467-3.203,0.809-2.616,0.246c3.568-3.416,5.986-8.766,8.464-12.951c4.443-7.509,8.743-15.102,13.009-22.713
	c-0.116-0.034-0.225-0.08-0.316-0.15c-4.592-3.537-8.887-8.943-14.723-10.371c-0.072-0.018-0.127-0.041-0.186-0.063
	c-4.027,7.354-8.055,14.707-12.077,22.064c-2.434,4.451-4.677,9.126-7.359,13.446c2.618,0.029,5.369,0.153,7.733,1.11
	c8.033,3.254-2.923,10.084-9.135,13.356c7.183,0.375,14.721-2.432,21.856-2.423c4.459,0.006,11.251,1.584,8.795,7.713
	c-1.339,3.34-4.31,5.303-7.643,6.507c-0.023,0.042-0.041,0.083-0.074,0.128c-3.401,4.621-8.988,7.377-15.01,8.545
	c0.551,0.26,0.754,0.75-0.08,1.287c-6.224,4.006-14.738,5.174-21.984,4.051c-9.367-1.449-14.389-7.359-19.065-15.244
	c-1.9-3.205-3.218-5.08-6.298-7.092c-2.848-1.859-5.771-3.598-8.716-5.299c-1.81-1.045-3.674-2.045-5.54-3.051
	c-3.665,15.435,0.31,31.704,11.059,43.643c16.553,18.385,41.729,27.125,65.577,18.576
	C311.718,404.184,320.745,398.227,326.997,390.081z M432.356,540.549c0.554-50.856,1.108-101.713,1.663-152.568
	c-0.187,0.055-0.362,0.09-0.497,0.09c-7.232,0-14.465,0-21.698,0c-1.652,0.854-3.324,1.48-4.357,1.809
	c-8.744,2.775-18.266,3.623-27.404,3.441c-7.681-0.15-15.844-0.683-22.794-4.26c-0.776,0.297-1.746,0.193-1.916-0.574
	c-0.059-0.264-0.09-0.527-0.135-0.791c-0.438,0.167-0.869,0.293-1.059,0.293c-7.729,0-15.457,0-23.185,0
	c-0.347,0.499-0.702,0.992-1.068,1.479c-0.549,50.36-1.099,100.721-1.647,151.082C362.959,540.549,397.657,540.549,432.356,540.549z
	 M415.401,432.643c1.542,12.227-2.63,25.373-13.731,31.807c-11.917,6.904-29.765,3.754-39.458-5.684
	c-9.495-9.244-12.432-24.281-6.647-36.336c6.588-13.73,21.056-18.73,35.513-17.006c0.989,0.118,0.74,0.798,0.169,1.193
	C404.514,408.676,413.741,419.486,415.401,432.643z M363.924,414.304c-5.533,4.97-9.038,12.09-9.101,20.714
	c-0.125,17.209,13.087,30.277,30.086,31.422c16.434,1.105,28.216-10.84,28.628-27.049c0.37-14.592-7.931-29.053-23.242-31.338
	c-0.774-0.115-0.785-0.562-0.478-0.935c0.073-0.089,0.163-0.173,0.267-0.247c-1.098-0.131-2.197-0.261-3.303-0.311
	C377.983,406.169,369.807,409.02,363.924,414.304z M370.899,433.582c1.88-7.758,8.765-11.064,16.32-10.291
	c0.565,0.058,0.744,0.327,0.69,0.629c15.302,3.396,11.452,28.809-5.093,25.822C375.225,448.371,368.917,441.758,370.899,433.582z
	 M384.601,448.254c13.752,0.75,14.555-20.703,1.875-22.875c-0.449-0.077-0.653-0.278-0.689-0.514
	C369.599,423.871,368.733,447.387,384.601,448.254z M403.566,507.668c-1.431,9.508-8.852,16.005-18.234,15.749
	c-0.795-0.022-1.6-0.075-2.422-0.196c-1.451-0.215-2.866-0.561-4.228-1.021c-9.111-3.085-15.755-11.439-13.787-21.793
	c2.189-11.516,12.591-16.758,23.623-15.527c0.722,0.08,0.784,0.464,0.543,0.82C399.172,487.631,405.079,497.615,403.566,507.668z
	 M401.556,505.498c0.043-8.641-4.775-17.004-13.819-18.447c-0.137-0.021-0.243-0.057-0.334-0.097
	c-0.341-0.148-0.394-0.405-0.27-0.659c-7.593-0.652-14.832,2.395-18.25,8.5c-1.242,2.218-1.984,4.836-2.049,7.83
	c-0.216,9.922,6.896,18.084,16.858,19.125C393.926,522.82,401.504,515.764,401.556,505.498z M383.211,512.35
	c-4.735-0.855-8.756-4.953-7.512-10.082c1.2-4.953,5.648-7.078,10.474-6.586c0.444,0.045,0.647,0.222,0.69,0.441
	C396.378,498.504,393.63,514.23,383.211,512.35z M385.429,497.582c-0.319-0.055-0.509-0.174-0.609-0.321
	c-9.09-0.351-9.225,13.061-0.235,13.552C392.399,511.238,392.534,498.799,385.429,497.582z M444.441,424.566
	c5.291,6.998,7.36,15.314,2.978,23.328c-0.712,1.301,2.215,1.084,2.724,0.156c4.618-8.443,2.588-17.246-3.023-24.668
	C446.454,422.502,443.664,423.537,444.441,424.566z M456.311,411.383c-0.679-0.873-3.466,0.17-2.678,1.184
	c10.737,13.816,15.048,31.48,5.977,47.328c-0.732,1.279,2.198,1.074,2.724,0.156C471.651,443.771,467.37,425.613,456.311,411.383z
	 M311.85,423.896c-5.624,7.438-7.597,16.223-2.978,24.668c0.511,0.932,3.318-0.014,2.678-1.184
	c-4.379-8.006-2.253-16.35,3.023-23.328C315.423,422.928,312.477,423.066,311.85,423.896z M302.658,411.896
	c-11.074,14.248-15.299,32.383-5.977,48.668c0.531,0.928,3.339-0.029,2.678-1.184c-9.066-15.838-4.7-33.531,6.022-47.328
	C306.242,410.947,303.295,411.078,302.658,411.896z" fill="#0d89ec"></path>
</svg>